<svg width="32" height="32" viewBox="0 0 32 32" fill="none" xmlns="http://www.w3.org/2000/svg">
<rect width="32" height="32" rx="16" fill="#FD4545" fill-opacity="0.1"/>
<path d="M23.1426 25.0001H8.77539C7.79581 25.0001 6.97949 24.1838 6.97949 23.2042V10.0205C6.97949 9.04093 7.63255 8.22461 8.48968 8.22461H9.38763V9.40828H8.48968C8.36724 9.40828 8.20397 9.65318 8.20397 10.0205V23.2042C8.20397 23.5307 8.48968 23.8164 8.81621 23.8164H23.1834C23.51 23.8164 23.7957 23.5307 23.7957 23.2042V10.0205C23.7957 9.65318 23.5916 9.40828 23.51 9.40828H22.612V8.22461H23.51C24.3263 8.22461 25.0201 9.04093 25.0201 10.0205V23.2042C24.9385 24.1838 24.1222 25.0001 23.1426 25.0001Z" fill="#FD4545"/>
<path d="M11.1855 10.6326C10.859 10.6326 10.5732 10.3469 10.5732 10.0204V7.61224C10.5732 7.28571 10.859 7 11.1855 7C11.512 7 11.7977 7.28571 11.7977 7.61224V10.0204C11.7569 10.3469 11.512 10.6326 11.1855 10.6326Z" fill="#FD4545"/>
<path d="M20.7324 10.6326C20.4058 10.6326 20.1201 10.3469 20.1201 10.0204V7.61224C20.1201 7.28571 20.4058 7 20.7324 7C21.0589 7 21.3446 7.28571 21.3446 7.61224V10.0204C21.3446 10.3469 21.0589 10.6326 20.7324 10.6326Z" fill="#FD4545"/>
<path d="M12.9795 8.22461H18.9386V9.4491H12.9795V8.22461Z" fill="#FD4545"/>
<path d="M8.16309 11.8164H23.7548V13.0409H8.16309V11.8164Z" fill="#FD4545"/>
<path d="M21.3467 14.2246H22.5303V15.4083H21.3467V14.2246Z" fill="#FD4545"/>
<path d="M18.9404 14.2246H20.1649V15.4083H18.9404V14.2246Z" fill="#FD4545"/>
<path d="M16.5693 14.2246H17.753V15.4083H16.5693V14.2246Z" fill="#FD4545"/>
<path d="M14.1631 14.2246H15.3467V15.4083H14.1631V14.2246Z" fill="#FD4545"/>
<path d="M11.7529 14.2246H12.9774V15.4083H11.7529V14.2246Z" fill="#FD4545"/>
<path d="M21.3467 16.6328H22.5303V17.8165H21.3467V16.6328Z" fill="#FD4545"/>
<path d="M18.9404 16.6328H20.1649V17.8165H18.9404V16.6328Z" fill="#FD4545"/>
<path d="M16.5693 16.6328H17.753V17.8165H16.5693V16.6328Z" fill="#FD4545"/>
<path d="M14.1631 16.6328H15.3467V17.8165H14.1631V16.6328Z" fill="#FD4545"/>
<path d="M11.7529 16.6328H12.9774V17.8165H11.7529V16.6328Z" fill="#FD4545"/>
<path d="M9.38574 16.6328H10.5694V17.8165H9.38574V16.6328Z" fill="#FD4545"/>
<path d="M21.3467 19H22.5303V20.2245H21.3467V19Z" fill="#FD4545"/>
<path d="M18.9404 19H20.1649V20.2245H18.9404V19Z" fill="#FD4545"/>
<path d="M16.5693 19H17.753V20.2245H16.5693V19Z" fill="#FD4545"/>
<path d="M14.1631 19H15.3467V20.2245H14.1631V19Z" fill="#FD4545"/>
<path d="M11.7529 19H12.9774V20.2245H11.7529V19Z" fill="#FD4545"/>
<path d="M9.38574 19H10.5694V20.2245H9.38574V19Z" fill="#FD4545"/>
<path d="M18.9404 21.4082H20.1649V22.5919H18.9404V21.4082Z" fill="#FD4545"/>
<path d="M16.5693 21.4082H17.753V22.5919H16.5693V21.4082Z" fill="#FD4545"/>
<path d="M14.1631 21.4082H15.3467V22.5919H14.1631V21.4082Z" fill="#FD4545"/>
<path d="M11.7529 21.4082H12.9774V22.5919H11.7529V21.4082Z" fill="#FD4545"/>
<path d="M9.38965 21.4082H10.5733V22.5919H9.38965V21.4082Z" fill="#FD4545"/>
</svg>
