<svg width="21" height="15" viewBox="0 0 21 15" fill="currentColor"
    xmlns="http://www.w3.org/2000/svg">
    <path
        d="M20.5126 0.03125H1.20225C1.1108 0.03125 1.02309 0.0675802 0.95842 0.132248C0.893752 0.196916 0.857422 0.284625 0.857422 0.376079V14.6244C0.857422 14.7159 0.893752 14.8036 0.95842 14.8683C1.02309 14.9329 1.1108 14.9693 1.20225 14.9693H20.5126C20.604 14.9693 20.6918 14.9329 20.7564 14.8683C20.8211 14.8036 20.8574 14.7159 20.8574 14.6244V0.376079C20.8574 0.284625 20.8211 0.196916 20.7564 0.132248C20.6918 0.0675802 20.604 0.03125 20.5126 0.03125ZM20.1678 11.2934H1.54708V10.4658H20.1678V11.2934ZM1.54708 11.983H20.1678V12.7761H1.54708V11.983ZM1.54708 0.720908H20.1678V9.77612H1.54708V0.720908ZM1.54708 14.2796V13.4658H20.1678V14.2796H1.54708Z"
        fill="currentColor" />
    <path
        d="M18.9332 2.94074C18.6198 2.93712 18.3203 2.81029 18.0997 2.58767C17.879 2.36506 17.7548 2.06454 17.7539 1.75108C17.7539 1.65962 17.7176 1.57192 17.6529 1.50725C17.5882 1.44258 17.5005 1.40625 17.4091 1.40625H4.30561C4.21416 1.40625 4.12645 1.44258 4.06178 1.50725C3.99711 1.57192 3.96078 1.65962 3.96078 1.75108C3.95987 2.06691 3.83377 2.3695 3.61011 2.59251C3.38646 2.81551 3.08351 2.94074 2.76768 2.94074C2.67623 2.94074 2.58852 2.97707 2.52385 3.04174C2.45918 3.10641 2.42285 3.19412 2.42285 3.28557V7.20973C2.42285 7.30118 2.45918 7.38889 2.52385 7.45356C2.58852 7.51822 2.67623 7.55455 2.76768 7.55455C2.92436 7.55455 3.07951 7.58542 3.22426 7.64538C3.36901 7.70533 3.50054 7.79322 3.61133 7.90401C3.72212 8.0148 3.81 8.14633 3.86996 8.29108C3.92992 8.43583 3.96078 8.59098 3.96078 8.74766C3.96078 8.83912 3.99711 8.92683 4.06178 8.99149C4.12645 9.05616 4.21416 9.09249 4.30561 9.09249H17.4091C17.5005 9.09249 17.5882 9.05616 17.6529 8.99149C17.7176 8.92683 17.7539 8.83912 17.7539 8.74766C17.7539 8.43123 17.8796 8.12776 18.1033 7.90401C18.3271 7.68026 18.6306 7.55455 18.947 7.55455C19.0384 7.55455 19.1262 7.51822 19.1908 7.45356C19.2555 7.38889 19.2918 7.30118 19.2918 7.20973V3.28557C19.2919 3.2391 19.2825 3.1931 19.2643 3.15034C19.2461 3.10758 19.2195 3.06894 19.186 3.03673C19.1525 3.00452 19.1128 2.97942 19.0694 2.96292C19.026 2.94643 18.9796 2.93888 18.9332 2.94074ZM18.5884 6.89593C18.2149 6.96681 17.8715 7.14844 17.6027 7.41721C17.334 7.68597 17.1523 8.02941 17.0815 8.40283H4.60216C4.53129 8.02941 4.34965 7.68597 4.08089 7.41721C3.81213 7.14844 3.46869 6.96681 3.09527 6.89593V3.59936C3.46861 3.52961 3.81219 3.34877 4.08106 3.08052C4.34993 2.81226 4.53155 2.46909 4.60216 2.09591H17.0815C17.1521 2.46909 17.3337 2.81226 17.6026 3.08052C17.8714 3.34877 18.215 3.52961 18.5884 3.59936V6.89593Z"
        fill="currentColor" />
    <path
        d="M10.8576 4.90876C10.8042 4.90786 10.7533 4.88602 10.7159 4.84797C10.6785 4.80991 10.6576 4.75868 10.6576 4.70531C10.6571 4.67876 10.6619 4.65238 10.6718 4.62772C10.6816 4.60305 10.6963 4.58059 10.7149 4.56166C10.7335 4.54272 10.7557 4.52768 10.7802 4.51741C10.8047 4.50714 10.831 4.50186 10.8576 4.50186C10.8844 4.50161 10.911 4.50666 10.9358 4.51672C10.9607 4.52678 10.9833 4.54165 11.0024 4.56048C11.0333 4.59658 11.0713 4.6259 11.1141 4.6466C11.1569 4.6673 11.2035 4.67893 11.251 4.68076C11.2985 4.68259 11.3458 4.67459 11.3901 4.65726C11.4343 4.63992 11.4745 4.61362 11.5081 4.58002C11.5417 4.54641 11.568 4.50622 11.5854 4.46197C11.6027 4.41772 11.6107 4.37037 11.6089 4.32288C11.607 4.27539 11.5954 4.22879 11.5747 4.18601C11.554 4.14323 11.5247 4.10519 11.4886 4.07428C11.4067 3.9919 11.3094 3.92631 11.2024 3.88117V3.80186C11.2024 3.71041 11.1661 3.6227 11.1014 3.55803C11.0367 3.49336 10.949 3.45703 10.8576 3.45703C10.7661 3.45703 10.6784 3.49336 10.6137 3.55803C10.5491 3.6227 10.5127 3.71041 10.5127 3.80186V3.88117C10.3177 3.95783 10.1558 4.10065 10.0554 4.28463C9.95501 4.46861 9.92253 4.68203 9.96363 4.88755C10.0047 5.09306 10.1168 5.27758 10.2802 5.40879C10.4437 5.54001 10.648 5.60958 10.8576 5.60532C10.8841 5.60486 10.9105 5.60969 10.9352 5.61954C10.9598 5.62939 10.9823 5.64405 11.0012 5.66266C11.0202 5.68128 11.0352 5.70348 11.0455 5.72798C11.0557 5.75247 11.061 5.77876 11.061 5.80532C11.058 5.84384 11.0444 5.88079 11.0218 5.91211C10.9992 5.94343 10.9684 5.96791 10.9328 5.98288C10.8971 5.99784 10.8581 6.0027 10.8199 5.99692C10.7817 5.99115 10.7458 5.97497 10.7162 5.95015C10.6841 5.91783 10.646 5.89217 10.604 5.87467C10.5619 5.85716 10.5169 5.84815 10.4714 5.84815C10.4258 5.84815 10.3808 5.85716 10.3387 5.87467C10.2967 5.89217 10.2586 5.91783 10.2265 5.95015C10.1623 6.01475 10.1263 6.10215 10.1263 6.19325C10.1263 6.28435 10.1623 6.37175 10.2265 6.43636C10.3088 6.51833 10.4059 6.58386 10.5127 6.62946V6.70877C10.5127 6.80023 10.5491 6.88793 10.6137 6.9526C10.6784 7.01727 10.7661 7.0536 10.8576 7.0536C10.949 7.0536 11.0367 7.01727 11.1014 6.9526C11.1661 6.88793 11.2024 6.80023 11.2024 6.70877V6.62946C11.4017 6.5564 11.5684 6.41445 11.6722 6.22926C11.7761 6.04407 11.8103 5.82785 11.7686 5.61966C11.727 5.41146 11.6123 5.22502 11.4452 5.09402C11.2781 4.96301 11.0697 4.89608 10.8576 4.90531V4.90876Z"
        fill="currentColor" />
    <path
        d="M10.8574 2.36328C10.2867 2.36396 9.729 2.53382 9.25482 2.85137C8.78064 3.16893 8.41124 3.61993 8.19332 4.14738C7.9754 4.67483 7.91874 5.25504 8.03049 5.81469C8.14224 6.37433 8.4174 6.88828 8.82118 7.29158C9.22496 7.69488 9.73924 7.96943 10.299 8.08051C10.8588 8.1916 11.4389 8.13424 11.9661 7.91569C12.4933 7.69714 12.9439 7.3272 13.2608 6.85264C13.5778 6.37808 13.747 5.8202 13.747 5.2495C13.7452 4.48399 13.4401 3.75041 12.8984 3.20943C12.3568 2.66846 11.6229 2.36419 10.8574 2.36328ZM10.8574 7.44606C10.4231 7.44538 9.99874 7.31598 9.63797 7.0742C9.2772 6.83243 8.9962 6.48913 8.83048 6.0877C8.66476 5.68627 8.62175 5.24473 8.70689 4.81886C8.79204 4.393 9.00151 4.00193 9.30884 3.69508C9.61617 3.38823 10.0076 3.17937 10.4336 3.0949C10.8596 3.01042 11.301 3.05412 11.7022 3.22047C12.1034 3.38683 12.4462 3.66837 12.6874 4.02952C12.9286 4.39066 13.0574 4.81521 13.0574 5.2495C13.0574 5.53825 13.0004 5.82416 12.8898 6.09089C12.7792 6.35761 12.6171 6.59991 12.4128 6.80393C12.2085 7.00794 11.9659 7.16967 11.699 7.27985C11.4321 7.39004 11.1461 7.44652 10.8574 7.44606Z"
        fill="currentColor" />
    <path
        d="M6.75714 4.85938H6.06748C5.97603 4.85938 5.88832 4.8957 5.82365 4.96037C5.75899 5.02504 5.72266 5.11275 5.72266 5.2042C5.72266 5.29566 5.75899 5.38337 5.82365 5.44804C5.88832 5.5127 5.97603 5.54903 6.06748 5.54903H6.75714C6.84859 5.54903 6.9363 5.5127 7.00097 5.44804C7.06564 5.38337 7.10197 5.29566 7.10197 5.2042C7.10197 5.11275 7.06564 5.02504 7.00097 4.96037C6.9363 4.8957 6.84859 4.85938 6.75714 4.85938Z"
        fill="currentColor" />
    <path
        d="M15.6019 4.85938H14.9122C14.8208 4.85938 14.733 4.8957 14.6684 4.96037C14.6037 5.02504 14.5674 5.11275 14.5674 5.2042C14.5674 5.29566 14.6037 5.38337 14.6684 5.44804C14.733 5.5127 14.8208 5.54903 14.9122 5.54903H15.6019C15.6933 5.54903 15.781 5.5127 15.8457 5.44804C15.9104 5.38337 15.9467 5.29566 15.9467 5.2042C15.9467 5.11275 15.9104 5.02504 15.8457 4.96037C15.781 4.8957 15.6933 4.85938 15.6019 4.85938Z"
        fill="currentColor" />
</svg>