<svg width="19" height="25" viewBox="0 0 19 25" fill="none" xmlns="http://www.w3.org/2000/svg">
    <path
        d="M7.71446 16.0846L4.63729 13.0075L3.42871 14.216L7.71446 18.5017L15.4288 10.7875L14.2202 9.57031L7.71446 16.0846Z"
        fill="currentColor" />
    <path
        d="M17.143 3.07143H14.5716V2.21429C14.5716 1.75963 14.3909 1.32359 14.0694 1.0021C13.7479 0.680612 13.3119 0.5 12.8573 0.5H6.00005C5.54539 0.5 5.10935 0.680612 4.78786 1.0021C4.46636 1.32359 4.28575 1.75963 4.28575 2.21429V3.07143H1.7143C1.25964 3.07143 0.8236 3.25204 0.502107 3.57353C0.180613 3.89502 0 4.33106 0 4.78571V22.7857C0 23.2404 0.180613 23.6764 0.502107 23.9979C0.8236 24.3194 1.25964 24.5 1.7143 24.5H17.143C17.5977 24.5 18.0337 24.3194 18.3552 23.9979C18.6767 23.6764 18.8573 23.2404 18.8573 22.7857V4.78571C18.8573 4.33106 18.6767 3.89502 18.3552 3.57353C18.0337 3.25204 17.5977 3.07143 17.143 3.07143ZM6.00005 2.21429H12.8573V5.64286H6.00005V2.21429ZM17.143 22.7857H1.7143V4.78571H4.28575V7.35714H14.5716V4.78571H17.143V22.7857Z"
        fill="currentColor" />
</svg>