<svg width="24" height="22" viewBox="0 0 24 22" fill="none" xmlns="http://www.w3.org/2000/svg">
<path d="M9.71918 16.7305C9.53242 16.7305 9.34935 16.6727 9.19048 16.5635C9.0316 16.4542 8.9032 16.2979 8.81966 16.1121L7.0863 12.2548H3.68555V10.0169H7.70797C7.89472 10.0169 8.0778 10.0748 8.23667 10.184C8.39555 10.2932 8.52395 10.4495 8.60748 10.6354L9.71918 13.1095L12.8421 6.15965C12.935 5.98639 13.0667 5.84293 13.2244 5.74331C13.3821 5.64368 13.5603 5.59131 13.7416 5.59131C13.9229 5.59131 14.1011 5.64368 14.2588 5.74331C14.4165 5.84293 14.5482 5.98639 14.6411 6.15965L16.3745 10.0169H19.7752V12.2548H15.7528C15.5661 12.2548 15.383 12.197 15.2241 12.0877C15.0652 11.9785 14.9368 11.8222 14.8533 11.6364L13.7416 9.16219L10.6187 16.1121C10.5352 16.2979 10.4068 16.4542 10.2479 16.5635C10.089 16.6727 9.90594 16.7305 9.71918 16.7305Z" fill="#5D5D5D"/>
<rect x="0.5" y="1.43701" width="23" height="19.1259" rx="9.56295" stroke="#5D5D5D"/>
</svg>
