<svg width="27" height="28" viewBox="0 0 27 28" fill="none" xmlns="http://www.w3.org/2000/svg">
<path d="M1.96676 26.5876L2.29585 25.6004L2.29675 25.5977L3.00736 25.794V25.0876H3.02546C2.82057 24.618 2.74422 24.1182 2.74422 23.6234C2.74422 23.2286 2.74146 22.8288 2.73868 22.4259C2.73235 21.5089 2.72592 20.5763 2.75167 19.6531L2.75168 19.6527C2.81005 17.5942 3.76696 15.9871 5.51295 14.9122L5.51336 14.912C6.62355 14.2295 7.82171 14.0832 8.97543 14.1294C9.16116 14.1367 9.36703 14.1925 9.54949 14.3371C9.71837 14.4709 9.80758 14.6344 9.85669 14.7486C10.1613 15.4481 10.4687 16.1462 10.7769 16.8462C10.8525 17.018 10.9282 17.1898 11.0039 17.3618L11.0041 17.3623C11.2198 17.8534 11.4361 18.3451 11.6526 18.8371C11.8595 19.3074 12.0666 19.7779 12.2732 20.2483C12.4027 19.7307 12.5325 19.2119 12.6605 18.7089C12.3188 18.3718 11.9793 18.0313 11.6426 17.6935C11.4946 17.545 11.3471 17.397 11.2002 17.2501L11.7305 16.7197L11.2002 17.2501L11.1994 17.2492C11.1573 17.2071 11.0817 17.1316 11.02 17.0466C10.9627 16.9677 10.815 16.7454 10.8535 16.4348C10.8912 16.1318 11.0815 15.9535 11.1476 15.895C11.2205 15.8303 11.3049 15.7746 11.3525 15.7431L11.3562 15.7406L11.3562 15.7406C12.0094 15.3088 12.6598 14.8743 13.3083 14.4363L13.3083 14.4362L13.3119 14.4338C13.373 14.3926 13.4604 14.3335 13.5484 14.2877C13.6467 14.2366 13.8061 14.1686 14.0104 14.168C14.2156 14.1673 14.376 14.235 14.4757 14.2867C14.564 14.3326 14.6513 14.3917 14.7114 14.4325L14.7143 14.4344C15.3157 14.8405 15.9202 15.243 16.5267 15.6467C16.5792 15.6817 16.6319 15.7167 16.6845 15.7518L16.2688 16.3761M1.96676 26.5876L17.3522 16.6135C17.1582 17.0556 16.9639 17.4979 16.7697 17.9402C16.4288 18.7163 16.0878 19.4926 15.7475 20.2689C15.6191 19.7505 15.4901 19.2316 15.3594 18.7131C15.7184 18.3575 16.0756 17.9998 16.431 17.6438C16.5659 17.5086 16.7006 17.3737 16.835 17.2393L16.8364 17.2379C16.8796 17.1945 16.9548 17.1177 17.0175 17.025C17.0804 16.932 17.1993 16.7238 17.1667 16.4421C17.1344 16.164 16.9744 15.9899 16.8976 15.9166C16.8194 15.842 16.7326 15.7837 16.6835 15.7511L16.2688 16.3761M1.96676 26.5876H2.60073M1.96676 26.5876H2.60073M16.2688 16.3761C16.2162 16.341 16.1636 16.306 16.1109 16.2709C15.5048 15.8674 14.8981 15.4636 14.2946 15.056L16.3046 16.709C16.4702 16.5425 16.463 16.5049 16.2688 16.3761ZM13.4408 18.6842C13.4819 18.524 13.4408 18.4237 13.328 18.3136L13.4408 18.6842ZM13.4408 18.6842C13.2889 19.2781 13.1402 19.8728 12.9915 20.4674C12.9159 20.7696 12.8403 21.0718 12.7644 21.3739L13.4408 18.6842ZM2.60073 26.5876C2.73074 26.6791 2.85997 26.7141 2.93814 26.7293C3.0328 26.7478 3.11852 26.7495 3.16935 26.7495H3.16981C10.4383 26.7451 17.7069 26.7451 24.9754 26.7495L24.9755 26.5849H25.137V25.9451C25.148 25.9202 25.148 25.8847 25.137 25.8349H24.977H24.976H24.5291C24.6814 25.654 24.8092 25.4614 24.9136 25.2587C24.9163 25.2582 24.9188 25.2577 24.9211 25.2572C24.9459 25.2524 24.9655 25.2506 24.9763 25.2499C24.978 25.2498 24.9795 25.2497 24.9808 25.2496C24.987 25.2493 24.9876 25.2496 24.9808 25.2495L24.9763 25.2495C24.957 25.2495 24.9377 25.2495 24.9183 25.2495C24.946 25.1953 24.972 25.1404 24.9964 25.0849M2.60073 26.5876L22.7741 25.9983L22.8876 26.5849H23.5064H24.9721L24.971 26.7495C25.023 26.7499 25.1098 26.7485 25.2058 26.7299C25.3006 26.7116 25.4667 26.6651 25.62 26.5279C25.979 26.2062 25.8914 25.7729 25.8693 25.6732L25.7394 25.0849H25.137H24.9964M24.9964 25.0849H24.1501M24.9964 25.0849C25.1888 24.6461 25.2792 24.1645 25.2793 23.6553C25.2795 23.3561 25.2799 23.0565 25.2803 22.7566C25.2817 21.7802 25.283 20.8007 25.2775 19.8219V19.8218C25.2725 18.9536 25.1165 18.0796 24.6916 17.2476L24.6914 17.2473C24.1165 16.1231 23.2632 15.2704 22.1344 14.6999L22.1343 14.6998C21.1246 14.1896 20.0721 14.1075 19.0984 14.1253L19.0965 14.1254C18.9439 14.1286 18.7387 14.1604 18.5404 14.2912C18.3406 14.423 18.2274 14.6026 18.1621 14.7558C17.9423 15.2698 17.7178 15.781 17.4918 16.2957C17.4453 16.4014 17.3989 16.5073 17.3523 16.6134L24.1501 25.0849M24.1501 25.0849C24.4094 24.6716 24.5293 24.1916 24.5293 23.6548L24.1501 25.0849ZM15.2041 18.8666L15.2046 18.866L15.2041 18.8666Z" stroke="#5D5D5D" stroke-width="1.5"/>
<path d="M13.9036 14.0853L13.9037 14.0853L19.6892 7.53245L20.4391 7.52009C20.4391 7.52008 20.4391 7.52007 20.4391 7.52006C20.3825 4.08707 17.5069 1.17622 14.0062 1.25141C10.5419 1.17734 7.55793 4.08993 7.58218 7.68786L7.58218 7.68791C7.60647 11.2603 10.4756 14.0376 13.9036 14.0853Z" stroke="#5D5D5D" stroke-width="1.5"/>
</svg>
