<svg width="59" height="58" viewBox="0 0 59 58" fill="none" xmlns="http://www.w3.org/2000/svg">
<path d="M12 45.16C11.3301 45.16 10.7303 45.2812 10.2008 45.5236C9.6776 45.7661 9.23418 46.117 8.87051 46.5764C8.50684 47.0294 8.2293 47.5812 8.03789 48.232C7.84648 48.8764 7.75078 49.6038 7.75078 50.4141C7.75078 51.4987 7.90391 52.4334 8.21016 53.2182C8.51641 53.9965 8.98216 54.5963 9.60742 55.0174C10.2327 55.4321 11.0238 55.6395 11.9809 55.6395C12.5742 55.6395 13.1516 55.582 13.7131 55.4672C14.2745 55.3523 14.8551 55.196 15.4549 54.9982V56.9506C14.887 57.1739 14.3128 57.3366 13.7322 57.4387C13.1516 57.5408 12.4817 57.5918 11.7225 57.5918C10.2933 57.5918 9.10658 57.2951 8.1623 56.7018C7.22441 56.1084 6.52259 55.2726 6.05684 54.1943C5.59746 53.1161 5.36777 51.8528 5.36777 50.4045C5.36777 49.3454 5.51452 48.3756 5.80801 47.4951C6.1015 46.6146 6.52897 45.8554 7.09043 45.2174C7.65189 44.573 8.34414 44.0785 9.16719 43.734C9.99661 43.3831 10.9441 43.2076 12.0096 43.2076C12.7114 43.2076 13.4005 43.2874 14.0768 43.4469C14.7594 43.6 15.3911 43.8201 15.9717 44.1072L15.1678 46.0021C14.6829 45.7725 14.1757 45.5747 13.6461 45.4088C13.1165 45.2429 12.5678 45.16 12 45.16ZM28.8342 43.4086L23.9438 57.4004H21.5129L16.6225 43.4086H18.9768L21.9244 52.175C22.0137 52.4302 22.1094 52.7396 22.2115 53.1033C22.32 53.467 22.4189 53.8339 22.5082 54.2039C22.6039 54.574 22.6773 54.9025 22.7283 55.1896C22.7794 54.9025 22.8495 54.574 22.9389 54.2039C23.0346 53.8339 23.1335 53.467 23.2355 53.1033C23.3376 52.7396 23.4333 52.427 23.5227 52.1654L26.4799 43.4086H28.8342ZM38.749 53.5914C38.749 54.4208 38.5449 55.1354 38.1365 55.7352C37.7346 56.3349 37.154 56.7943 36.3947 57.1133C35.6419 57.4323 34.7423 57.5918 33.6959 57.5918C33.1855 57.5918 32.6974 57.5631 32.2316 57.5057C31.7659 57.4482 31.3257 57.3653 30.9109 57.2568C30.5026 57.142 30.1294 57.0048 29.7912 56.8453V54.6824C30.359 54.9312 30.9939 55.1577 31.6957 55.3619C32.3975 55.5597 33.1121 55.6586 33.8395 55.6586C34.4328 55.6586 34.9241 55.582 35.3133 55.4289C35.7089 55.2694 36.0023 55.0461 36.1937 54.759C36.3852 54.4655 36.4809 54.1242 36.4809 53.735C36.4809 53.3202 36.3692 52.9693 36.1459 52.6822C35.9226 52.3951 35.5844 52.1335 35.1314 51.8975C34.6848 51.655 34.1234 51.3966 33.4471 51.1223C32.9877 50.9372 32.5475 50.7267 32.1264 50.4906C31.7117 50.2546 31.3416 49.977 31.0162 49.658C30.6908 49.339 30.4324 48.9626 30.241 48.5287C30.056 48.0885 29.9635 47.5717 29.9635 46.9783C29.9635 46.1872 30.1517 45.5109 30.5281 44.9494C30.9109 44.388 31.4469 43.9573 32.1359 43.6574C32.8314 43.3576 33.6417 43.2076 34.5668 43.2076C35.3005 43.2076 35.9896 43.2842 36.634 43.4373C37.2848 43.5904 37.9228 43.8074 38.548 44.0881L37.8207 45.9352C37.2465 45.6991 36.6882 45.5109 36.1459 45.3705C35.61 45.2301 35.0613 45.16 34.4998 45.16C34.0149 45.16 33.6034 45.2333 33.2652 45.3801C32.9271 45.5268 32.6687 45.7342 32.49 46.0021C32.3178 46.2637 32.2316 46.5764 32.2316 46.94C32.2316 47.3484 32.3305 47.6929 32.5283 47.9736C32.7325 48.248 33.0451 48.5 33.4662 48.7297C33.8937 48.9594 34.4424 49.2146 35.1123 49.4953C35.8843 49.8143 36.5383 50.1493 37.0742 50.5002C37.6165 50.8511 38.0312 51.2722 38.3184 51.7635C38.6055 52.2484 38.749 52.8577 38.749 53.5914Z" fill="#00A651"/>
<path fill-rule="evenodd" clip-rule="evenodd" d="M58.7998 15.75V49C58.7998 52.85 55.1248 56 50.6331 56H42.4665V52.5H50.6331C52.879 52.5 54.7165 50.925 54.7165 49V15.75H46.5498C43.1606 15.75 40.4248 13.405 40.4248 10.5V3.5H17.9665C15.7206 3.5 13.8831 5.075 13.8831 7V38.5H9.7998V7C9.7998 3.15 13.4748 0 17.9665 0H40.4248L58.7998 15.75Z" fill="#00A651"/>
</svg>
