<svg width="24" height="25" viewBox="0 0 24 25" fill="none" xmlns="http://www.w3.org/2000/svg">
    <path
        d="M5.25 5.83333C5.25 5.3731 5.68173 5 6.21429 5C6.74685 5 7.17857 5.3731 7.17857 5.83333V19.1667C7.17857 19.6269 6.74685 20 6.21429 20C5.68173 20 5.25 19.6269 5.25 19.1667V5.83333Z"
        fill="currentColor" />
    <path
        d="M9.10714 10.8333C9.10714 10.3731 9.53887 10 10.0714 10C10.604 10 11.0357 10.3731 11.0357 10.8333V19.1667C11.0357 19.6269 10.604 20 10.0714 20C9.53887 20 9.10714 19.6269 9.10714 19.1667V10.8333Z"
        fill="currentColor" />
    <path
        d="M12.9643 14.1667C12.9643 13.7064 13.396 13.3333 13.9286 13.3333C14.4611 13.3333 14.8929 13.7064 14.8929 14.1667V19.1667C14.8929 19.6269 14.4611 20 13.9286 20C13.396 20 12.9643 19.6269 12.9643 19.1667V14.1667Z"
        fill="currentColor" />
    <path
        d="M16.8214 7.5C16.8214 7.03976 17.2532 6.66667 17.7857 6.66667C18.3183 6.66667 18.75 7.03976 18.75 7.5V19.1667C18.75 19.6269 18.3183 20 17.7857 20C17.2532 20 16.8214 19.6269 16.8214 19.1667V7.5Z"
        fill="currentColor" />
    <rect y="0.5" width="24" height="24" rx="1.5" stroke="currentColor" stroke-width="2.0"
        mask="url(#path-1-inside-1_1060_5743)" />
</svg>