<svg width="28" height="28" viewBox="0 0 28 28" fill="none" xmlns="http://www.w3.org/2000/svg">
<rect width="28" height="28" rx="14" fill="none"/>
<path d="M11.6667 7.7C11.6667 7.3134 12.0149 7 12.4444 7H15.5556C15.9851 7 16.3333 7.3134 16.3333 7.7V8.4H20.2222C20.6518 8.4 21 8.7134 21 9.1C21 9.4866 20.6518 9.8 20.2222 9.8H7.77778C7.34822 9.8 7 9.4866 7 9.1C7 8.7134 7.34822 8.4 7.77778 8.4H11.6667V7.7Z" fill="currentColor"/>
<path d="M9.33333 11.2C9.76289 11.2 10.1111 11.5134 10.1111 11.9V18.9C10.1111 19.2866 10.4593 19.6 10.8889 19.6H17.1111C17.5407 19.6 17.8889 19.2866 17.8889 18.9V11.9C17.8889 11.5134 18.2371 11.2 18.6667 11.2C19.0962 11.2 19.4444 11.5134 19.4444 11.9V18.9C19.4444 20.0598 18.3998 21 17.1111 21H10.8889C9.60022 21 8.55556 20.0598 8.55556 18.9V11.9C8.55556 11.5134 8.90378 11.2 9.33333 11.2Z" fill="currentColor"/>
<path d="M11.6667 13.3C11.6667 12.9134 12.0149 12.6 12.4444 12.6C12.874 12.6 13.2222 12.9134 13.2222 13.3V17.5C13.2222 17.8866 12.874 18.2 12.4444 18.2C12.0149 18.2 11.6667 17.8866 11.6667 17.5V13.3Z" fill="currentColor"/>
<path d="M15.5556 12.6C15.126 12.6 14.7778 12.9134 14.7778 13.3V17.5C14.7778 17.8866 15.126 18.2 15.5556 18.2C15.9851 18.2 16.3333 17.8866 16.3333 17.5V13.3C16.3333 12.9134 15.9851 12.6 15.5556 12.6Z" fill="currentColor"/>
</svg>
