<svg width="18" height="19" viewBox="0 0 18 19" fill="none" xmlns="http://www.w3.org/2000/svg">
<g clip-path="url(#clip0_1462_33942)">
<path d="M2.70039 16.7C2.69946 15.507 3.0373 14.3382 3.67461 13.3297C4.31191 12.3211 5.22249 11.5143 6.30039 11.003V7.997C5.22249 7.4857 4.31191 6.67886 3.67461 5.67032C3.0373 4.66179 2.69946 3.49302 2.70039 2.3H0.900391V0.5H17.1004V2.3H15.3004C15.3013 3.49302 14.9635 4.66179 14.3262 5.67032C13.6889 6.67886 12.7783 7.4857 11.7004 7.997V11.003C12.7783 11.5143 13.6889 12.3211 14.3262 13.3297C14.9635 14.3382 15.3013 15.507 15.3004 16.7H17.1004V18.5H0.900391V16.7H2.70039ZM4.50039 2.3C4.50018 3.33739 4.8584 4.34299 5.51442 5.14661C6.17043 5.95024 7.08396 6.50252 8.10039 6.71V9.5H9.90039V6.71C10.9168 6.50252 11.8303 5.95024 12.4864 5.14661C13.1424 4.34299 13.5006 3.33739 13.5004 2.3H4.50039Z" fill="currentColor"/>
<path fill-rule="evenodd" clip-rule="evenodd" d="M15.2735 16.7004C15.2905 16.5275 15.2992 16.3524 15.2992 16.1754C15.2992 12.9859 12.4786 10.4004 8.99922 10.4004C5.51982 10.4004 2.69922 12.9859 2.69922 16.1754C2.69922 16.3524 2.7079 16.5275 2.7249 16.7004H15.2735Z" fill="currentColor"/>
</g>
<defs>
<clipPath id="clip0_1462_33942">
<rect width="18" height="18" fill="white" transform="translate(0 0.5)"/>
</clipPath>
</defs>
</svg>
