<svg width="28" height="28" viewBox="0 0 28 28" fill="none" xmlns="http://www.w3.org/2000/svg">
<rect width="28" height="28" rx="14" fill="white"/>
<path fill-rule="evenodd" clip-rule="evenodd" d="M7 9.44349C7 8.16699 8.04467 7.13219 9.33333 7.13219H13.2222C13.6518 7.13219 14 7.47712 14 7.90262C14 8.32812 13.6518 8.67305 13.2222 8.67305H9.33333C8.90378 8.67305 8.55556 9.01799 8.55556 9.44349V18.6887C8.55556 19.1142 8.90378 19.4591 9.33333 19.4591H18.6667C19.0962 19.4591 19.4444 19.1142 19.4444 18.6887V14.0661C19.4444 13.6406 19.7927 13.2957 20.2222 13.2957C20.6518 13.2957 21 13.6406 21 14.0661V18.6887C21 19.9652 19.9553 21 18.6667 21H9.33333C8.04467 21 7 19.9652 7 18.6887V9.44349Z" fill="#040921"/>
<path d="M18.1333 7.45131C18.7408 6.84956 19.7258 6.84956 20.3332 7.45131C20.9407 8.05306 20.9407 9.02868 20.3332 9.63043L14.8335 15.0782C14.5298 15.3791 14.0373 15.3791 13.7336 15.0782L12.6336 13.9887C12.3299 13.6878 12.3299 13.2 12.6336 12.8991L18.1333 7.45131Z" fill="#040921"/>
<path d="M11.3222 14.8144C11.1486 14.6425 10.852 14.6393 10.7825 14.8725L10.2744 16.5786C10.1145 17.1156 10.5761 17.5729 11.1183 17.4145L12.8406 16.9112C13.0761 16.8424 13.0728 16.5485 12.8992 16.3766L11.3222 14.8144Z" fill="#040921"/>
</svg>
