<svg width="23" height="22" viewBox="0 0 23 22" fill="none"
    xmlns="http://www.w3.org/2000/svg">
    <path
        d="M10.6666 3.10938H3.86058C3.34485 3.10938 2.85024 3.31882 2.48557 3.69163C2.12089 4.06444 1.91602 4.57008 1.91602 5.09731V19.0129C1.91602 19.5401 2.12089 20.0458 2.48557 20.4186C2.85024 20.7914 3.34485 21.0008 3.86058 21.0008H17.4725C17.9883 21.0008 18.4829 20.7914 18.8476 20.4186C19.2122 20.0458 19.4171 19.5401 19.4171 19.0129V12.0551"
        stroke="currentColor" stroke-width="2" stroke-linecap="round" stroke-linejoin="round" />
    <path
        d="M17.959 1.61757C18.3458 1.22215 18.8704 1 19.4174 1C19.9644 1 20.489 1.22215 20.8758 1.61757C21.2626 2.013 21.4799 2.54931 21.4799 3.10853C21.4799 3.66774 21.2626 4.20406 20.8758 4.59948L11.6391 14.0422L7.75 15.0362L8.72228 11.0603L17.959 1.61757Z"
        stroke="currentColor" stroke-width="2" stroke-linecap="round" stroke-linejoin="round" />
</svg>