<svg width="56" height="57" viewBox="0 0 56 57" fill="none" xmlns="http://www.w3.org/2000/svg">
<path d="M12.1639 56H9.55117L6.0293 50.2674L2.48828 56H0.0287109L4.67988 48.7457L0.344531 42.0082H2.88066L6.13457 47.3102L9.36934 42.0082H11.8289L7.47441 48.8127L12.1639 56ZM20.0115 43.7596C19.3416 43.7596 18.7419 43.8808 18.2123 44.1232C17.6891 44.3657 17.2457 44.7166 16.882 45.176C16.5184 45.629 16.2408 46.1809 16.0494 46.8316C15.858 47.476 15.7623 48.2034 15.7623 49.0137C15.7623 50.0983 15.9154 51.033 16.2217 51.8178C16.5279 52.5962 16.9937 53.1959 17.6189 53.617C18.2442 54.0317 19.0354 54.2391 19.9924 54.2391C20.5857 54.2391 21.1632 54.1816 21.7246 54.0668C22.2861 53.952 22.8667 53.7956 23.4664 53.5979V55.5502C22.8986 55.7735 22.3243 55.9362 21.7437 56.0383C21.1632 56.1404 20.4932 56.1914 19.734 56.1914C18.3048 56.1914 17.1181 55.8947 16.1738 55.3014C15.2359 54.708 14.5341 53.8722 14.0684 52.7939C13.609 51.7157 13.3793 50.4524 13.3793 49.0041C13.3793 47.945 13.526 46.9752 13.8195 46.0947C14.113 45.2143 14.5405 44.455 15.102 43.817C15.6634 43.1726 16.3557 42.6781 17.1787 42.3336C18.0081 41.9827 18.9556 41.8072 20.0211 41.8072C20.7229 41.8072 21.412 41.887 22.0883 42.0465C22.771 42.1996 23.4026 42.4197 23.9832 42.7068L23.1793 44.6018C22.6944 44.3721 22.1872 44.1743 21.6576 44.0084C21.1281 43.8425 20.5794 43.7596 20.0115 43.7596ZM34.3957 56H26.4715V42.0082H34.3957V43.9414H28.7684V47.7408H34.0416V49.6645H28.7684V54.0572H34.3957V56ZM37.4199 56V42.0082H39.7168V54.0477H45.66V56H37.4199Z" fill="#165332"/>
<path fill-rule="evenodd" clip-rule="evenodd" d="M55.9999 14V43.5556C55.9999 46.9778 52.7332 49.7778 48.7406 49.7778H41.4814V46.6667H48.7406C50.7369 46.6667 52.3703 45.2667 52.3703 43.5556V14H45.111C42.0984 14 39.6666 11.9156 39.6666 9.33333V3.11111H19.7036C17.7073 3.11111 16.074 4.51111 16.074 6.22222V34.2222H12.4443V6.22222C12.4443 2.8 15.711 0 19.7036 0H39.6666L55.9999 14Z" fill="#165332"/>
</svg>
