<svg width="32" height="32" viewBox="0 0 32 32" fill="none" xmlns="http://www.w3.org/2000/svg">
<path d="M27.3353 0H4.66472C2.08847 0 0 2.08839 0 4.66456V27.3343C0 29.9105 2.08847 31.9989 4.66472 31.9989H27.3353C29.9115 31.9989 32 29.9105 32 27.3343V4.66456C32 2.08839 29.9115 0 27.3353 0Z" fill="#333333"/>
<path d="M27.3353 1.39937C28.2013 1.39937 29.0318 1.74338 29.6442 2.35572C30.2566 2.96806 30.6006 3.79857 30.6006 4.66456V27.3343C30.6006 28.2003 30.2566 29.0308 29.6442 29.6431C29.0318 30.2555 28.2013 30.5995 27.3353 30.5995H4.66472C3.79871 30.5995 2.96817 30.2555 2.3558 29.6431C1.74344 29.0308 1.39942 28.2003 1.39942 27.3343V4.66456C1.39942 3.79857 1.74344 2.96806 2.3558 2.35572C2.96817 1.74338 3.79871 1.39937 4.66472 1.39937H27.3353ZM27.3353 0H4.66472C3.42756 0 2.24107 0.491443 1.36627 1.36622C0.49146 2.24099 0 3.42744 0 4.66456V27.3343C0 28.5714 0.49146 29.7579 1.36627 30.6326C2.24107 31.5074 3.42756 31.9989 4.66472 31.9989H27.3353C28.5724 31.9989 29.7589 31.5074 30.6337 30.6326C31.5085 29.7579 32 28.5714 32 27.3343V4.66456C32 3.42744 31.5085 2.24099 30.6337 1.36622C29.7589 0.491443 28.5724 0 27.3353 0Z" fill="#333333"/>
<path d="M12.0098 27.9637C12.5336 27.9637 13.0522 27.8605 13.5361 27.6601C14.02 27.4597 14.4597 27.1659 14.83 26.7956C15.2004 26.4252 15.4941 25.9856 15.6946 25.5017C15.895 25.0178 15.9982 24.4992 15.9982 23.9755V19.9873H12.0098C10.952 19.9873 9.9376 20.4075 9.18964 21.1554C8.44168 21.9034 8.02148 22.9178 8.02148 23.9755C8.02148 25.0332 8.44168 26.0476 9.18964 26.7956C9.9376 27.5435 10.952 27.9637 12.0098 27.9637Z" fill="#0ACF83"/>
<path d="M8.02148 15.9994C8.02148 14.9417 8.44168 13.9273 9.18964 13.1793C9.9376 12.4314 10.952 12.0112 12.0098 12.0112H15.9982V19.9876H12.0098C10.952 19.9876 9.9376 19.5674 9.18964 18.8195C8.44168 18.0716 8.02148 17.0572 8.02148 15.9994Z" fill="#A259FF"/>
<path d="M8.02148 8.02286C8.02148 6.96513 8.44168 5.95072 9.18964 5.20278C9.9376 4.45485 10.952 4.03467 12.0098 4.03467H15.9982V12.0111H12.0098C10.952 12.0111 9.9376 11.5909 9.18964 10.8429C8.44168 10.095 8.02148 9.0806 8.02148 8.02286Z" fill="#F24E1E"/>
<path d="M15.998 4.05859H19.9864C21.0442 4.05859 22.0586 4.47878 22.8066 5.22671C23.5545 5.97464 23.9747 6.98905 23.9747 8.04679C23.9747 9.10453 23.5545 10.1189 22.8066 10.8669C22.0586 11.6148 21.0442 12.035 19.9864 12.035H15.998V4.05859Z" fill="#FF7262"/>
<path d="M23.9747 15.9994C23.9747 16.7882 23.7408 17.5593 23.3026 18.2152C22.8643 18.871 22.2414 19.3822 21.5127 19.684C20.7839 19.9859 19.982 20.0649 19.2083 19.911C18.4346 19.7571 17.724 19.3773 17.1662 18.8195C16.6084 18.2617 16.2286 17.5511 16.0747 16.7775C15.9208 16.0039 15.9998 15.202 16.3016 14.4732C16.6035 13.7445 17.1147 13.1216 17.7706 12.6834C18.4265 12.2451 19.1976 12.0112 19.9864 12.0112C21.0442 12.0112 22.0586 12.4314 22.8066 13.1793C23.5545 13.9273 23.9747 14.9417 23.9747 15.9994Z" fill="#1ABCFE"/>
</svg>
