<svg width="32" height="32" viewBox="0 0 32 32" fill="none" xmlns="http://www.w3.org/2000/svg">
<rect width="32" height="32" rx="16" fill="#FFA500" fill-opacity="0.1"/>
<path fill-rule="evenodd" clip-rule="evenodd" d="M9 10C8.44772 10 8 10.4477 8 11V21C8 21.5523 8.44772 22 9 22H23C23.5523 22 24 21.5523 24 21V15.5C24 14.9477 23.5523 14.5 23 14.5H21.0704C20.0673 14.5 19.1306 13.9987 18.5742 13.1641L16.7617 10.4453C16.5762 10.1671 16.264 10 15.9296 10H9ZM6 11C6 9.34315 7.34315 8 9 8H15.9296C16.9327 8 17.8694 8.5013 18.4258 9.3359L20.2383 12.0547C20.4238 12.3329 20.736 12.5 21.0704 12.5H23C24.6569 12.5 26 13.8431 26 15.5V21C26 22.6569 24.6569 24 23 24H9C7.34315 24 6 22.6569 6 21V11Z" fill="#FFA500"/>
</svg>
