<svg width="24" height="24" viewBox="0 0 24 24" fill="none" xmlns="http://www.w3.org/2000/svg">
    <path
        d="M5 5.5C3.87614 5.5 3 4.62386 3 3.5C3 2.37614 3.87614 1.5 5 1.5C6.12386 1.5 7 2.37614 7 3.5C7 4.62386 6.12386 5.5 5 5.5Z"
        fill="currentColor" stroke="currentColor" />
    <path
        d="M2.99873 15.9644L2.98127 15.7199L2.77735 15.584L1.5 14.7324V11C1.5 9.07614 3.07614 7.5 5 7.5C6.92386 7.5 8.5 9.07614 8.5 11V14.7324L7.22265 15.584L7.01873 15.7199L7.00127 15.9644L6.53444 22.5H3.46556L2.99873 15.9644Z"
        fill="currentColor" stroke="currentColor" />
    <path
        d="M11.2 20.2C10.9 21.45 10.7 22 10 22C9.7 22 9.4 21.75 9.05 21.45C8.55 21.05 7.95 20.5 7 20.5V21.5C7.55 21.5 7.95 21.85 8.4 22.2C8.85 22.55 9.35 23 10 23C11.55 23 11.9 21.55 12.2 20.4C12.5 19.1 12.7 18.5 13.5 18.5V17.5C11.85 17.5 11.45 19.05 11.2 20.2Z"
        fill="currentColor" />
    <path d="M7.2 20H5V22H7.05L7.2 20Z" fill="currentColor" />
    <path
        d="M22.5 18C22.5 20.4853 20.4853 22.5 18 22.5C15.5147 22.5 13.5 20.4853 13.5 18C13.5 15.5147 15.5147 13.5 18 13.5C20.4853 13.5 22.5 15.5147 22.5 18Z"
        stroke="currentColor" />
    <path
        d="M17.5 16.9992C17.55 17.0992 17.55 17.1492 17.65 17.1992C17.7 17.2492 17.8 17.2992 17.9 17.3992C18 17.4492 18.15 17.4992 18.3 17.5492C18.55 17.6492 18.75 17.7492 18.95 17.8492C19.15 17.9492 19.3 18.0492 19.45 18.1992C19.6 18.3492 19.7 18.4992 19.8 18.6492C19.9 18.8492 19.9 19.0492 19.9 19.2992C19.9 19.4992 19.85 19.6992 19.8 19.8992C19.75 20.0992 19.65 20.2492 19.5 20.3492C19.35 20.4992 19.2 20.5992 19.05 20.6492C18.85 20.7492 18.65 20.7992 18.45 20.7992V21.5492H17.85V20.7992C17.65 20.7992 17.45 20.7492 17.25 20.6492C17.05 20.5492 16.9 20.4492 16.75 20.3492C16.6 20.1992 16.5 20.0492 16.4 19.7992C16.3 19.5992 16.25 19.3492 16.25 19.0492H17.35C17.35 19.2492 17.35 19.3992 17.4 19.4992C17.45 19.5992 17.5 19.6992 17.6 19.7992C17.7 19.8492 17.75 19.8992 17.85 19.9492C17.95 19.9992 18.05 19.9992 18.15 19.9992C18.25 19.9992 18.35 19.9992 18.45 19.9492C18.55 19.8992 18.6 19.8492 18.65 19.7992C18.7 19.7492 18.75 19.6492 18.8 19.5992C18.85 19.4992 18.85 19.4492 18.85 19.3492C18.85 19.2492 18.85 19.1492 18.8 19.0492C18.75 18.9492 18.75 18.8992 18.65 18.8492C18.6 18.7992 18.5 18.6992 18.4 18.6492C18.3 18.5992 18.2 18.5492 18.05 18.4992C17.8 18.3992 17.6 18.2992 17.4 18.1992C17.2 18.0992 17.05 17.9992 16.9 17.8492C16.75 17.6992 16.65 17.5492 16.55 17.3992C16.45 17.1992 16.45 16.9992 16.45 16.7492C16.45 16.5492 16.5 16.3492 16.55 16.1492C16.6 15.9992 16.7 15.7992 16.85 15.6992C17 15.5492 17.15 15.4492 17.3 15.3992C17.5 15.2992 17.7 15.2492 17.9 15.2492V14.4492H18.5V15.2492C18.7 15.2992 18.9 15.3492 19.1 15.4492C19.3 15.5492 19.4 15.6492 19.55 15.7992C19.65 15.9492 19.75 16.0992 19.85 16.2992C19.9 16.4992 19.95 16.7492 19.95 16.9992H18.85C18.85 16.6992 18.8 16.4992 18.65 16.3492C18.55 16.1992 18.35 16.1492 18.15 16.1492C18.05 16.1492 17.95 16.1492 17.85 16.1992C17.75 16.2492 17.7 16.2992 17.65 16.3492C17.55 16.3492 17.5 16.3992 17.5 16.4992C17.5 16.5992 17.45 16.6492 17.45 16.7492C17.45 16.8492 17.45 16.9492 17.5 16.9992Z"
        fill="currentColor" />
</svg>