<svg width="24" height="24" viewBox="0 0 24 24" fill="none" xmlns="http://www.w3.org/2000/svg">
<g clip-path="url(#clip0_2834_55227)">
<path d="M23.9938 11.6204C23.9938 13.7901 23.988 15.9599 23.9965 18.1297C23.9996 18.9708 23.6222 19.5646 22.8946 19.9548C22.6265 20.0989 22.3352 20.1356 22.035 20.1356C19.73 20.1345 17.425 20.1353 15.12 20.1353C14.816 20.1353 14.8144 20.136 14.8608 20.4289C14.916 20.7782 14.9755 21.1266 15.0304 21.4759C15.0489 21.5941 15.1007 21.6455 15.2313 21.6567C15.8209 21.7073 16.2582 22.1891 16.2656 22.7814C16.2683 23.0067 16.2667 23.2323 16.2667 23.4575C16.2667 23.8841 16.1535 23.9988 15.7332 23.9988C13.7759 23.9988 11.8186 23.9988 9.86135 23.9988C9.3077 23.9988 8.75406 24 8.20041 23.9984C7.87355 23.9977 7.74065 23.8667 7.73794 23.5448C7.73562 23.2937 7.73562 23.0426 7.73833 22.7915C7.7449 22.1864 8.1753 21.7112 8.78033 21.6567C8.91555 21.6444 8.95612 21.5814 8.97466 21.4682C9.03532 21.0938 9.0925 20.7187 9.16282 20.3458C9.19527 20.1747 9.13307 20.1318 8.97273 20.1329C8.25179 20.1383 7.53047 20.1349 6.80953 20.1349C5.20616 20.1349 3.60279 20.1101 2.00019 20.1434C0.91337 20.1662 -0.00576801 19.2312 2.73134e-05 18.1401C0.023595 13.7944 0.0232086 9.44829 2.73134e-05 5.10218C-0.00576801 4.0084 0.911438 3.07304 2.01719 3.09622C3.70981 3.13215 5.40359 3.10279 7.09698 3.11013C7.28127 3.1109 7.36704 3.04483 7.4447 2.88372C7.98791 1.75557 8.83596 0.941516 9.9815 0.427663C10.9895 -0.0243724 12.0388 -0.105893 13.0982 0.122056C14.4196 0.406414 15.4554 1.14783 16.2138 2.26942C16.3436 2.46144 16.473 2.65616 16.5549 2.87329C16.6214 3.04986 16.7234 3.1109 16.915 3.11013C18.6277 3.10279 20.3405 3.10433 22.0528 3.10665C23.0179 3.10781 23.8018 3.76152 23.9695 4.70732C23.9973 4.86418 23.9927 5.028 23.9927 5.18833C23.9942 7.33222 23.9934 9.47649 23.9934 11.6204H23.9938ZM12.0014 16.242C15.1239 16.242 18.246 16.242 21.3685 16.242C21.553 16.242 21.6454 16.1497 21.6459 15.9653C21.6459 13.5317 21.6459 11.0984 21.6459 8.66476C21.6459 7.6668 21.6448 6.66923 21.6471 5.67128C21.6471 5.53953 21.6344 5.45105 21.4644 5.45144C20.048 5.45608 18.6316 5.45492 17.2152 5.4526C17.1001 5.4526 17.0309 5.48737 17.0201 5.61023C16.9838 6.02325 16.8718 6.41926 16.7435 6.81103C16.7076 6.92114 16.7443 6.96943 16.8582 6.96866C17.0448 6.9675 17.2315 6.96789 17.4184 6.96904C18.3094 6.97407 18.9693 7.62933 18.9704 8.51871C18.9728 10.3276 18.9728 12.1369 18.9704 13.9458C18.9693 14.8333 18.3067 15.4951 17.42 15.4978C16.5507 15.5002 15.6818 15.4986 14.8125 15.4986C12.057 15.4986 9.30152 15.5002 6.54604 15.4967C5.73276 15.4955 5.04003 14.8356 5.03616 14.044C5.02766 12.1705 5.02805 10.2971 5.03616 8.42367C5.03964 7.65444 5.71847 6.98836 6.4877 6.97098C6.69362 6.96634 6.89994 6.96441 7.10587 6.97059C7.2577 6.97484 7.3002 6.92577 7.25113 6.77509C7.1333 6.41424 7.017 6.05145 6.99653 5.66819C6.98725 5.49394 6.89878 5.4499 6.73265 5.45028C5.37422 5.45608 4.0158 5.45337 2.65738 5.45376C2.45827 5.45376 2.35847 5.55138 2.35795 5.74662C2.35795 9.14577 2.35795 12.5449 2.35795 15.9445C2.35795 16.1423 2.45647 16.2413 2.65351 16.2416C5.76946 16.2416 8.88542 16.2416 12.0014 16.2416V16.242ZM12.0006 17.0444C9.86367 17.0444 7.72674 17.0444 5.58981 17.0444C4.07723 17.0444 2.56465 17.0471 1.05207 17.0409C0.86778 17.0402 0.799782 17.0935 0.809441 17.2816C0.822963 17.5513 0.807123 17.8221 0.81485 18.0926C0.822577 18.36 0.878985 18.6161 1.03816 18.8398C1.30745 19.2184 1.69728 19.3324 2.13541 19.3324C6.93085 19.3332 11.7263 19.3328 16.5213 19.3328C18.3171 19.3328 20.1129 19.3347 21.9091 19.332C22.6968 19.3309 23.1848 18.839 23.191 18.0513C23.1929 17.8133 23.1914 17.5749 23.191 17.3369C23.191 17.1422 23.091 17.0448 22.8912 17.0448C19.261 17.0448 15.6304 17.0448 12.0002 17.0448L12.0006 17.0444ZM12.0068 0.825223C9.65156 0.879699 7.79821 2.64805 7.78662 5.04461C7.77542 7.35849 9.54879 9.25511 11.9886 9.26824C14.3442 9.28099 16.2115 7.48251 16.2169 5.05118C16.2223 2.67277 14.3813 0.881244 12.0064 0.825223H12.0068ZM17.3118 14.6842C17.3126 14.6173 17.2624 14.6034 17.2295 14.5775C16.9873 14.3863 16.7427 14.1981 16.5009 14.0069C15.6632 13.3455 14.826 12.684 13.9907 12.0195C13.8825 11.9337 13.7941 11.9275 13.6824 12.0145C13.2362 12.3626 12.7849 12.7037 12.3367 13.0495C12.1061 13.2276 11.899 13.2276 11.6706 13.051C11.2229 12.7053 10.7704 12.3649 10.325 12.0164C10.2122 11.9283 10.1241 11.9341 10.0174 12.0206C9.75278 12.2351 9.48388 12.4441 9.21614 12.6546C8.5941 13.1434 7.97169 13.631 7.35004 14.1201C7.12518 14.297 6.90187 14.4767 6.64108 14.6842H17.3114H17.3118ZM1.55511 10.5386C1.55511 8.7486 1.55511 6.959 1.55511 5.16902C1.55511 4.75755 1.65942 4.65169 2.06587 4.65169C3.55951 4.6513 5.05316 4.65362 6.5472 4.65014C6.99962 4.64898 6.95828 4.72587 7.01855 4.23751C7.02319 4.19926 7.03246 4.1614 7.04134 4.12392C7.07921 3.96397 7.02048 3.90563 6.85358 3.90641C5.25059 3.91066 3.64722 3.90718 2.04423 3.91143C1.78383 3.9122 1.53308 3.97479 1.31402 4.1274C0.932688 4.39321 0.813304 4.7815 0.813304 5.22079C0.812145 8.7428 0.811759 12.2644 0.813691 15.7864C0.813691 16.3123 0.73642 16.2369 1.27693 16.2416C1.55433 16.2439 1.55511 16.2416 1.55511 15.9665C1.55511 14.1572 1.55511 12.3483 1.55511 10.539V10.5386ZM22.448 10.5459C22.448 12.2776 22.448 14.0096 22.448 15.7412C22.448 16.2447 22.448 16.2358 22.9453 16.2462C23.1438 16.2505 23.1968 16.1844 23.1948 15.9916C23.186 15.0709 23.191 14.1502 23.191 13.2295C23.191 10.5641 23.191 7.899 23.1906 5.23354C23.1906 4.93952 23.1423 4.65748 22.9688 4.40867C22.7073 4.03313 22.3267 3.91027 21.8951 3.90911C20.3435 3.90602 18.7919 3.90795 17.2403 3.90795C17.0345 3.90795 16.9486 4.01317 16.9826 4.2236C16.9919 4.28078 16.9981 4.33874 17.0008 4.3963C17.0093 4.58098 17.0839 4.65709 17.2886 4.65594C18.8337 4.64666 20.3787 4.65053 21.9241 4.65091C22.3445 4.65091 22.4484 4.75523 22.4484 5.17597C22.4484 6.96557 22.4484 8.75555 22.4484 10.5451L22.448 10.5459ZM7.11823 7.78271C6.90651 7.78812 6.68551 7.73905 6.47147 7.8055C6.4197 7.82173 6.33779 7.81207 6.32813 7.88046C6.31886 7.94536 6.39575 7.96584 6.44018 7.99945C7.06414 8.47544 7.69042 8.94911 8.31361 9.42626C9.49895 10.3338 10.6831 11.2425 11.8658 12.1532C11.9643 12.2289 12.0412 12.2293 12.1397 12.1532C12.5569 11.8302 12.9792 11.5141 13.398 11.1931C14.7719 10.1399 16.145 9.08589 17.5174 8.03113C17.5761 7.98593 17.6904 7.96005 17.6715 7.88046C17.6518 7.79623 17.5332 7.80744 17.4559 7.78657C17.3953 7.77035 17.3284 7.77228 17.2643 7.77189C17.0004 7.77034 16.7361 7.77846 16.4727 7.76841C16.322 7.76262 16.2292 7.81323 16.1385 7.93841C15.2777 9.12761 14.134 9.87173 12.6651 10.0479C10.8095 10.2704 9.26366 9.65499 8.08373 8.20693C7.81096 7.87196 7.55906 7.66719 7.11862 7.78194L7.11823 7.78271ZM5.83514 11.3302C5.83514 12.1416 5.83514 12.9525 5.83553 13.7639C5.83553 13.8408 5.83553 13.9192 5.84905 13.9945C5.87919 14.1641 5.92207 14.1784 6.05691 14.073C7.13523 13.2272 8.21354 12.3815 9.29109 11.5346C9.49161 11.3774 9.48929 11.377 9.27834 11.2159C8.19423 10.3879 7.11089 9.55878 6.026 8.7316C5.9781 8.69528 5.93096 8.62033 5.86335 8.65742C5.8081 8.68794 5.8363 8.76405 5.8363 8.8193C5.83476 9.65615 5.83514 10.4934 5.83514 11.3302ZM18.1684 11.3329C18.1684 10.5803 18.1684 9.82769 18.1684 9.07507C18.1684 8.95916 18.1684 8.84364 18.1676 8.72773C18.1668 8.64196 18.1278 8.62458 18.059 8.6721C18.0165 8.70107 17.9763 8.73314 17.9354 8.76444C17.3736 9.19406 16.8123 9.62408 16.2505 10.0537C15.7243 10.4559 15.1996 10.86 14.6703 11.258C14.5428 11.3538 14.537 11.4141 14.6746 11.5091C14.8751 11.6478 15.0617 11.8066 15.2537 11.9577C16.0971 12.6222 16.9382 13.289 17.7859 13.9482C17.8763 14.0185 17.9709 14.1773 18.0807 14.1201C18.202 14.0563 18.1684 13.8786 18.1684 13.7457C18.1699 12.9417 18.1691 12.1373 18.1691 11.3333L18.1684 11.3329ZM12.006 21.6505C12.6624 21.6505 13.3188 21.6509 13.9749 21.6505C14.2063 21.6505 14.2132 21.6393 14.1742 21.4037C14.1151 21.0486 14.0533 20.6939 14.0011 20.3377C13.9799 20.1921 13.9216 20.131 13.7639 20.1322C12.5863 20.138 11.4087 20.138 10.2311 20.1322C10.0804 20.1314 10.0255 20.1924 10.0047 20.3277C9.95137 20.6769 9.89187 21.0258 9.83546 21.3747C9.80558 21.5586 9.88569 21.6507 10.0758 21.6509C10.7194 21.6509 11.3627 21.6509 12.0064 21.6509L12.006 21.6505ZM11.9917 23.196C12.3004 23.196 12.6095 23.196 12.9182 23.196C13.6967 23.196 14.4752 23.1929 15.2537 23.1987C15.4117 23.1998 15.4701 23.1504 15.4666 22.9885C15.4596 22.6249 15.302 22.4557 14.9357 22.4538C14.4145 22.4511 13.8933 22.453 13.3722 22.453C11.9372 22.453 10.5023 22.4522 9.06739 22.4538C8.72044 22.4538 8.55161 22.6103 8.53963 22.9298C8.52997 23.1863 8.53924 23.196 8.80621 23.196C9.86792 23.196 10.9296 23.196 11.9913 23.196H11.9917Z" fill="#5D5D5D"/>
<path d="M12.7889 18.1963C12.7877 18.6603 12.4628 18.9799 11.9949 18.9764C11.5286 18.9729 11.2145 18.653 11.2148 18.1816C11.2148 17.718 11.5394 17.3993 12.008 17.4024C12.4751 17.4055 12.7904 17.7257 12.7889 18.1963Z" fill="#5D5D5D"/>
<path d="M12.9617 8.16169C12.3489 8.15126 11.8134 7.89781 11.298 7.60418C10.5156 7.1591 9.89438 6.54015 9.45123 5.75701C9.14331 5.21264 8.869 4.6501 8.89643 3.99562C8.92695 3.27004 9.28858 2.75387 9.92104 2.43358C10.2587 2.26281 10.62 2.13725 10.9746 2.00241C11.3123 1.87414 11.4916 1.94716 11.6519 2.26281C11.8729 2.69901 12.0927 3.13598 12.3095 3.57449C12.4911 3.94191 12.4246 4.14089 12.0638 4.32981C12.0182 4.35377 11.9722 4.37695 11.9258 4.39975C11.6705 4.52608 11.6469 4.57901 11.7902 4.82474C11.9258 5.05732 12.1136 5.23736 12.3783 5.32777C12.4938 5.36718 12.5606 5.33666 12.6093 5.22925C12.6595 5.11798 12.7155 5.00903 12.7731 4.90085C12.8956 4.67058 13.0996 4.57554 13.338 4.68719C13.8796 4.94103 14.4132 5.21264 14.9444 5.48811C15.1005 5.56886 15.1492 5.74388 15.0986 5.89301C14.9004 6.47486 14.7505 7.08685 14.3324 7.56284C13.9762 7.96851 13.5153 8.17946 12.9624 8.16169H12.9617ZM12.7059 6.22682C11.7574 6.21368 10.9213 5.43981 10.8344 4.52995C10.793 4.09646 10.8371 4.01571 11.2227 3.81751C11.2571 3.79974 11.2911 3.78119 11.3258 3.76458C11.405 3.72671 11.4243 3.67147 11.3842 3.59188C11.2822 3.39136 11.1809 3.19007 11.0813 2.98839C11.0364 2.89798 10.9723 2.89566 10.8889 2.93082C10.7173 3.00307 10.5411 3.06527 10.3708 3.14061C9.8372 3.37784 9.62316 3.83489 9.77229 4.40322C9.86463 4.75442 10.0157 5.0805 10.2023 5.38959C10.7915 6.36398 11.6353 7.00648 12.736 7.30089C13.0602 7.38743 13.3581 7.31016 13.62 7.09419C13.9275 6.84035 13.9832 6.45322 14.1408 6.12057C14.1806 6.03635 14.1076 5.99423 14.0415 5.96139C13.892 5.88683 13.7425 5.81187 13.593 5.73731C13.3515 5.61638 13.3407 5.61136 13.229 5.86094C13.117 6.11091 12.962 6.26855 12.7063 6.22682H12.7059Z" fill="#5D5D5D"/>
</g>
<defs>
<clipPath id="clip0_2834_55227">
<rect width="23.9961" height="24" fill="white"/>
</clipPath>
</defs>
</svg>
