<svg width="16" height="16" viewBox="0 0 16 16" fill="currentColor"
    xmlns="http://www.w3.org/2000/svg">
    <path
        d="M13.5305 9.82834C14.0172 8.67206 14.1292 7.39235 13.8509 6.16911C13.5725 4.94587 12.9178 3.84063 11.9787 3.00878C11.0397 2.17692 9.86355 1.66029 8.61567 1.53151C7.36779 1.40273 6.11093 1.66829 5.0218 2.29084L4.2778 0.988088C5.41602 0.337549 6.70494 -0.00313666 8.01595 2.17624e-05C9.32696 0.00318019 10.6142 0.350073 11.7493 1.00609C15.1168 2.95009 16.4068 7.11259 14.837 10.5836L15.8435 11.1641L12.7198 12.8246L12.596 9.28909L13.5305 9.82834ZM2.46805 5.17384C1.9814 6.33011 1.86938 7.60983 2.14773 8.83306C2.42608 10.0563 3.08081 11.1615 4.01985 11.9934C4.9589 12.8253 6.13504 13.3419 7.38292 13.4707C8.6308 13.5994 9.88766 13.3339 10.9768 12.7113L11.7208 14.0141C10.5826 14.6646 9.29365 15.0053 7.98265 15.0022C6.67164 14.999 5.38437 14.6521 4.2493 13.9961C0.881797 12.0521 -0.408203 7.88959 1.16155 4.41859L0.154297 3.83884L3.27805 2.17834L3.4018 5.71384L2.4673 5.17459L2.46805 5.17384ZM9.06055 9.62209L6.9373 7.50109L4.8163 9.62209L3.7558 8.56159L6.93805 5.38009L9.0598 7.50109L11.1815 5.38009L12.242 6.44059L9.0598 9.62209H9.06055Z"
        fill="currentColor" />
</svg>