<svg width="18" height="19" viewBox="0 0 18 19" fill="none" xmlns="http://www.w3.org/2000/svg">
<g clip-path="url(#clip0_1462_33904)">
<path d="M17.25 8.75H16.4618C16.2866 7.02963 15.5232 5.42239 14.3004 4.19961C13.0776 2.97683 11.4704 2.21342 9.75 2.03825V1.25C9.75 1.05109 9.67098 0.860322 9.53033 0.71967C9.38968 0.579018 9.19891 0.5 9 0.5C8.80109 0.5 8.61032 0.579018 8.46967 0.71967C8.32902 0.860322 8.25 1.05109 8.25 1.25V2.03825C6.52963 2.21342 4.92239 2.97683 3.69961 4.19961C2.47683 5.42239 1.71342 7.02963 1.53825 8.75H0.75C0.551088 8.75 0.360322 8.82902 0.21967 8.96967C0.0790176 9.11032 0 9.30109 0 9.5C0 9.69891 0.0790176 9.88968 0.21967 10.0303C0.360322 10.171 0.551088 10.25 0.75 10.25H1.53825C1.71342 11.9704 2.47683 13.5776 3.69961 14.8004C4.92239 16.0232 6.52963 16.7866 8.25 16.9618V17.75C8.25 17.9489 8.32902 18.1397 8.46967 18.2803C8.61032 18.421 8.80109 18.5 9 18.5C9.19891 18.5 9.38968 18.421 9.53033 18.2803C9.67098 18.1397 9.75 17.9489 9.75 17.75V16.9618C11.4704 16.7866 13.0776 16.0232 14.3004 14.8004C15.5232 13.5776 16.2866 11.9704 16.4618 10.25H17.25C17.4489 10.25 17.6397 10.171 17.7803 10.0303C17.921 9.88968 18 9.69891 18 9.5C18 9.30109 17.921 9.11032 17.7803 8.96967C17.6397 8.82902 17.4489 8.75 17.25 8.75ZM9.75 15.4482V14.75C9.75 14.5511 9.67098 14.3603 9.53033 14.2197C9.38968 14.079 9.19891 14 9 14C8.80109 14 8.61032 14.079 8.46967 14.2197C8.32902 14.3603 8.25 14.5511 8.25 14.75V15.4482C6.93013 15.28 5.70349 14.6782 4.76265 13.7374C3.8218 12.7965 3.22001 11.5699 3.05175 10.25H3.75C3.94891 10.25 4.13968 10.171 4.28033 10.0303C4.42098 9.88968 4.5 9.69891 4.5 9.5C4.5 9.30109 4.42098 9.11032 4.28033 8.96967C4.13968 8.82902 3.94891 8.75 3.75 8.75H3.05175C3.22001 7.43013 3.8218 6.20349 4.76265 5.26265C5.70349 4.3218 6.93013 3.72001 8.25 3.55175V4.25C8.25 4.44891 8.32902 4.63968 8.46967 4.78033C8.61032 4.92098 8.80109 5 9 5C9.19891 5 9.38968 4.92098 9.53033 4.78033C9.67098 4.63968 9.75 4.44891 9.75 4.25V3.55175C11.0699 3.72001 12.2965 4.3218 13.2374 5.26265C14.1782 6.20349 14.78 7.43013 14.9482 8.75H14.25C14.0511 8.75 13.8603 8.82902 13.7197 8.96967C13.579 9.11032 13.5 9.30109 13.5 9.5C13.5 9.69891 13.579 9.88968 13.7197 10.0303C13.8603 10.171 14.0511 10.25 14.25 10.25H14.9482C14.78 11.5699 14.1782 12.7965 13.2374 13.7374C12.2965 14.6782 11.0699 15.28 9.75 15.4482Z" fill="currentColor"/>
<path d="M9 7.25C8.55499 7.25 8.11998 7.38196 7.74997 7.62919C7.37996 7.87643 7.09157 8.22783 6.92127 8.63896C6.75097 9.0501 6.70642 9.5025 6.79323 9.93895C6.88005 10.3754 7.09434 10.7763 7.40901 11.091C7.72368 11.4057 8.12459 11.62 8.56105 11.7068C8.99751 11.7936 9.44991 11.749 9.86104 11.5787C10.2722 11.4084 10.6236 11.12 10.8708 10.75C11.118 10.38 11.25 9.94501 11.25 9.5C11.25 8.90326 11.0129 8.33097 10.591 7.90901C10.169 7.48705 9.59674 7.25 9 7.25ZM9 10.25C8.85167 10.25 8.70666 10.206 8.58332 10.1236C8.45999 10.0412 8.36386 9.92406 8.30709 9.78701C8.25033 9.64997 8.23547 9.49917 8.26441 9.35368C8.29335 9.2082 8.36478 9.07456 8.46967 8.96967C8.57456 8.86478 8.7082 8.79335 8.85368 8.76441C8.99917 8.73547 9.14997 8.75032 9.28701 8.80709C9.42406 8.86386 9.54119 8.95999 9.6236 9.08332C9.70601 9.20666 9.75 9.35166 9.75 9.5C9.75 9.69891 9.67098 9.88968 9.53033 10.0303C9.38968 10.171 9.19891 10.25 9 10.25Z" fill="currentColor"/>
</g>
<defs>
<clipPath id="clip0_1462_33904">
<rect width="18" height="18" fill="white" transform="translate(0 0.5)"/>
</clipPath>
</defs>
</svg>
