<svg width="26" height="24" viewBox="0 0 26 24" fill="none" xmlns="http://www.w3.org/2000/svg">
<path d="M4.35075 23.9992C4.40144 23.2562 4.35 22.5125 4.37591 21.7696C4.3898 21.369 4.57901 21.1306 4.9717 21.0352C5.1001 21.0041 5.13239 20.9433 5.126 20.8276C5.0971 20.3253 4.90375 19.8894 4.55686 19.5343C3.79738 18.7572 3.02776 17.9902 2.25663 17.2251C1.82565 16.7971 1.3864 16.3789 1.15739 15.7954C1.06729 15.5664 0.999337 15.3337 0.999337 15.0863C0.998586 13.0342 0.996334 10.9821 1.00046 8.93046C1.00159 8.30613 1.44759 7.73399 2.04339 7.5643C2.71878 7.37171 3.41369 7.61686 3.77335 8.14733C4.00161 8.48408 4.04328 8.855 4.03765 9.23906C4.02864 9.8326 4.02639 10.4261 4.03877 11.0197C4.04516 11.3197 4.03427 11.6196 4.03502 11.9196C4.03502 12.0059 4.00536 12.0472 3.91526 12.0446C3.74632 12.0397 3.57738 12.033 3.40881 12.0378C3.26165 12.042 3.23086 11.9635 3.23199 11.8377C3.23912 10.9942 3.24438 10.151 3.24813 9.30739C3.24888 9.13845 3.23462 8.96951 3.18919 8.80582C3.10697 8.50961 2.83629 8.30876 2.51755 8.30576C2.20783 8.30238 1.93452 8.49234 1.84217 8.77804C1.79974 8.90906 1.77234 9.04196 1.77346 9.18275C1.78097 10.2448 1.7881 11.3069 1.78885 12.369C1.78923 13.1435 1.78473 13.9183 1.77309 14.6928C1.76408 15.2909 1.98408 15.7902 2.39892 16.208C3.2624 17.0771 4.12963 17.9421 4.99573 18.8086C5.42372 19.237 5.74921 19.7231 5.87535 20.3272C5.91027 20.495 5.90576 20.6636 5.90238 20.8317C5.89976 20.9654 5.94293 21.0221 6.08559 21.0213C6.9975 21.0172 7.90978 21.0206 8.82168 21.0195C9.23353 21.0191 9.2538 20.9981 9.25492 20.5896C9.2568 19.9649 9.2538 19.3402 9.25568 18.7155C9.2583 17.8393 8.96585 17.1034 8.30623 16.4986C7.68077 15.9253 7.09849 15.3051 6.49781 14.7045C6.03416 14.2408 5.57464 13.7727 5.10723 13.3132C4.86283 13.0729 4.35376 13.1829 4.16004 13.5076C3.97608 13.8158 4.00987 14.0693 4.26178 14.3204C4.97433 15.0307 5.68576 15.7425 6.39644 16.4547C6.57927 16.6383 6.57777 16.6402 6.39794 16.8237C6.36716 16.8549 6.33337 16.883 6.30221 16.9135C6.09773 17.1132 5.89262 17.1101 5.68689 16.9041C4.91014 16.1266 4.13338 15.3491 3.35663 14.5716C3.31195 14.5269 3.26315 14.4785 3.25902 14.415C3.21922 13.8181 3.21847 13.2332 3.71666 12.7849C3.99297 12.5364 4.30833 12.4103 4.68075 12.3814C5.1031 12.3491 5.42409 12.4478 5.73382 12.7816C6.50231 13.6097 7.32299 14.3899 8.12264 15.1895C8.51571 15.5826 8.92793 15.9565 9.29472 16.3751C9.77151 16.9191 10.0103 17.5633 10.0275 18.2781C10.0474 19.1089 10.0373 19.9405 10.0302 20.7717C10.0287 20.9369 10.0722 21.0108 10.2423 21.0529C10.5929 21.1392 10.7795 21.3986 10.7825 21.7707C10.7874 22.4142 10.7833 23.0576 10.7855 23.7011C10.7855 23.8006 10.8005 23.9001 10.8084 23.9992H9.9825C10.0212 23.3129 10.0035 22.6263 9.99526 21.9396C9.99376 21.8277 9.95171 21.797 9.8526 21.7977C9.37206 21.8011 8.89114 21.8033 8.41059 21.8048C8.02991 21.806 7.64961 21.8048 7.26893 21.8048C6.7133 21.8048 6.1573 21.7981 5.60204 21.8094C5.46689 21.812 5.30621 21.738 5.20071 21.8285C5.0802 21.9317 5.1688 22.1026 5.16655 22.2403C5.15679 22.8264 5.13126 23.4132 5.17744 23.9992H4.3515H4.35075Z" fill="#5D5D5D"/>
<path d="M15.2762 23.9987C15.259 23.6931 15.2545 23.3879 15.2601 23.0815C15.268 22.6629 15.2609 22.244 15.2631 21.8254C15.2654 21.3782 15.4429 21.1425 15.8769 21.0302C15.9877 21.0017 16.0128 20.9488 16.0128 20.8474C16.011 20.0605 16.0188 19.2736 16.0121 18.4867C16.0038 17.4964 16.3826 16.6885 17.0952 16.0059C17.893 15.2416 18.6622 14.4479 19.4435 13.6663C19.8362 13.2732 20.227 12.8783 20.6208 12.4863C20.6595 12.4481 20.7098 12.4124 20.7612 12.397C21.3889 12.2093 22.1931 12.5051 22.5587 13.0491C22.7521 13.3367 22.7866 13.6577 22.811 13.994C22.8377 14.3567 22.686 14.5955 22.4363 14.8365C21.6859 15.5607 20.9534 16.304 20.2221 17.0481C20.0918 17.181 20.001 17.2035 19.8797 17.0545C19.817 16.9775 19.7374 16.9141 19.668 16.842C19.4757 16.6427 19.4724 16.6382 19.6635 16.4467C20.3779 15.7308 21.0931 15.0156 21.8128 14.3053C22.0936 14.0282 22.0249 13.4808 21.6682 13.2961C21.5533 13.2364 21.4223 13.206 21.2962 13.17C21.1224 13.1204 21.0135 13.2346 20.9072 13.3412C20.4045 13.8458 19.9045 14.3526 19.4018 14.8571C18.8112 15.4503 18.2365 16.0608 17.6227 16.6288C17.019 17.1878 16.8102 17.8846 16.7937 18.6666C16.7828 19.191 16.7903 19.7159 16.7922 20.2403C16.793 20.4277 16.8189 20.6169 16.802 20.8023C16.7851 20.9863 16.8553 21.0231 17.0216 21.022C17.9898 21.016 18.9584 21.0163 19.9266 21.022C20.0866 21.0227 20.153 20.9769 20.1451 20.8091C20.1083 19.9959 20.4992 19.3724 21.0454 18.8227C21.8289 18.0347 22.615 17.2493 23.4016 16.4643C23.6054 16.2612 23.8074 16.057 23.9651 15.8145C24.244 15.3854 24.2936 14.9097 24.2707 14.4111C24.2527 14.0185 24.268 13.6246 24.2677 13.2312C24.2669 12.6752 24.2647 12.1188 24.2639 11.5628C24.2632 11.1945 24.2628 10.8259 24.2639 10.4576C24.2654 10.0014 24.2846 9.54453 24.2665 9.08952C24.2436 8.50574 23.8082 8.18663 23.2919 8.34994C23.0085 8.43966 22.8399 8.66792 22.8215 9.00543C22.7851 9.67368 22.799 10.3423 22.8091 11.0109C22.8137 11.3169 22.8054 11.6233 22.8061 11.9296C22.8061 12.0223 22.76 12.0471 22.6762 12.0441C22.5137 12.0388 22.3508 12.0325 22.1886 12.0381C22.0482 12.0426 22.0012 11.9792 22.0024 11.8466C22.0099 11.0031 22.0174 10.1599 22.0181 9.31628C22.0181 9.07863 22.0054 8.84249 22.0647 8.60823C22.2501 7.87615 22.9619 7.41476 23.7627 7.51124C24.4802 7.59759 25.0452 8.22004 25.0467 8.94724C25.0508 10.9865 25.0519 13.0262 25.0459 15.0655C25.044 15.7018 24.7475 16.2316 24.3244 16.6712C23.4534 17.5756 22.5524 18.4511 21.666 19.3404C21.3165 19.6911 21.0334 20.0815 20.9478 20.5869C20.932 20.68 20.9234 20.7719 20.9208 20.8658C20.9178 20.9638 20.9606 21.0043 21.0574 21.0299C21.4903 21.144 21.6712 21.3801 21.6709 21.8257C21.6701 22.5499 21.6971 23.2745 21.6585 23.9987H20.9076C20.9031 23.918 20.8949 23.8369 20.8945 23.7562C20.8934 23.1698 20.8934 22.583 20.8945 21.9966C20.8945 21.8892 20.8926 21.795 20.7424 21.7972C20.3993 21.8021 20.0558 21.7995 19.7126 21.8013C19.3383 21.8036 18.964 21.8107 18.5897 21.81C17.7972 21.8081 17.0043 21.8032 16.2118 21.7968C16.0962 21.7961 16.0387 21.8351 16.0399 21.959C16.0444 22.4148 16.0459 22.8706 16.044 23.3263C16.0432 23.5504 16.0327 23.7746 16.0267 23.9991H15.2759L15.2762 23.9987Z" fill="#5D5D5D"/>
<g clip-path="url(#clip0_2834_55266)">
<path d="M14.6337 7.78595C14.7828 7.83051 14.9141 7.86774 15.0442 7.90886C15.8875 8.17425 16.6531 8.5789 17.3015 9.20117C17.8805 9.75692 18.2767 10.419 18.4462 11.2147C18.5076 11.503 18.5147 11.7968 18.5105 12.0914C18.5061 12.3994 18.5206 12.7077 18.5137 13.0155C18.5061 13.3614 18.5185 13.7064 18.3874 14.0426C18.1533 14.6429 17.5218 15.1166 16.8865 15.119C15.6249 15.124 14.3634 15.1212 13.102 15.1212C11.5453 15.1212 9.98872 15.1173 8.43195 15.1233C7.90355 15.1255 7.4637 14.9365 7.11262 14.5402C6.85284 14.2471 6.70103 13.8986 6.68732 13.4995C6.6772 13.2027 6.68373 12.9055 6.68352 12.6084C6.68352 12.3398 6.68184 12.071 6.68479 11.8024C6.6928 11.0946 6.92032 10.4595 7.31336 9.88456C7.77598 9.20805 8.39147 8.71472 9.10923 8.34515C9.56616 8.10989 10.0419 7.93017 10.5397 7.81049C10.5559 7.80662 10.5709 7.79758 10.5985 7.78595C9.63237 7.04165 9.11893 6.06316 9.12336 4.83349C9.12694 3.80937 9.52188 2.94345 10.2595 2.25253C11.6783 0.924057 13.8765 1.02608 15.1771 2.50005C15.8653 3.28009 16.1983 4.19702 16.0852 5.25407C15.9724 6.30767 15.4472 7.12452 14.6337 7.78595ZM16.5554 14.235V14.2451C16.6046 14.2451 16.6541 14.2481 16.703 14.2447C16.9521 14.2268 17.1882 14.1799 17.3791 13.9911C17.5851 13.7873 17.6418 13.5299 17.6464 13.2557C17.6519 12.9371 17.6302 12.6177 17.6426 12.2996C17.6544 11.9961 17.6388 11.6962 17.5775 11.4014C17.4318 10.7029 17.0305 10.1648 16.5029 9.7242C15.7129 9.06449 14.7838 8.71924 13.7877 8.55738C13.2473 8.46956 12.7018 8.44438 12.1515 8.47817C11.4234 8.52294 10.7191 8.65919 10.0376 8.92501C9.37849 9.18201 8.78873 9.54598 8.30607 10.0772C7.85863 10.5695 7.59295 11.1435 7.55647 11.8215C7.53033 12.3084 7.54804 12.7955 7.54656 13.2824C7.54551 13.639 7.6697 13.9431 7.99506 14.1267C8.17344 14.2275 8.37123 14.2423 8.56796 14.2432C9.03458 14.2451 9.50121 14.2281 9.96763 14.2374C10.3957 14.246 10.8237 14.2423 11.2515 14.2421C11.704 14.2421 12.1568 14.2393 12.609 14.2395C13.0438 14.2395 13.479 14.2419 13.9138 14.2419C14.3558 14.2419 14.7977 14.2486 15.2399 14.237C15.6781 14.2253 16.1171 14.235 16.5554 14.235ZM12.5875 7.51518C14.0117 7.51647 15.1823 6.3335 15.1901 4.89569C15.1979 3.44303 14.0711 2.22239 12.5987 2.21916C11.1484 2.21594 10.0174 3.41074 10.0016 4.84554C9.98492 6.36106 11.1881 7.52444 12.5875 7.51518Z" fill="#5D5D5D"/>
</g>
<defs>
<clipPath id="clip0_2834_55266">
<rect width="13.1997" height="14.3996" fill="white" transform="translate(6.08008 0.929688)"/>
</clipPath>
</defs>
</svg>
