<svg width="32" height="32" viewBox="0 0 32 32" fill="none" xmlns="http://www.w3.org/2000/svg">
<rect width="32" height="32" rx="16" fill="#BE851D" fill-opacity="0.15"/>
<path d="M11.5093 20.4209L10.3053 20.2371L9.99283 16.9284C9.90092 15.458 8.64177 14.3367 7.17122 14.4286C5.70067 14.5205 4.57938 15.7796 4.67129 17.2685L5.00216 20.7333C5.0665 21.7811 5.73743 22.6909 6.71167 23.0586C6.96902 23.1872 7.25394 23.2424 7.54805 23.2332L10.0756 23.3527C10.3329 23.3618 10.5443 23.1688 10.5535 22.9207C10.5627 22.6726 10.3697 22.452 10.1215 22.4428L7.56643 22.3233C7.54805 22.3233 7.53885 22.3233 7.52047 22.3233C7.37342 22.3325 7.23555 22.3049 7.10688 22.2406C7.0885 22.2314 7.07012 22.2222 7.05174 22.2222C6.39918 21.9833 5.94882 21.3767 5.90287 20.669L5.58119 17.195C5.52604 16.23 6.26132 15.4028 7.22636 15.3385C8.2006 15.2833 9.01859 16.0186 9.08293 16.9928L9.4138 20.4576C9.4138 20.5128 9.4138 20.5587 9.4138 20.6139C9.40461 20.8436 9.57005 21.0366 9.79982 21.0734L11.3715 21.3215C11.5645 21.3491 11.7023 21.5145 11.7023 21.7075V25.54C11.7023 25.7882 11.9045 25.9995 12.1619 25.9995C12.41 25.9995 12.6214 25.7974 12.6214 25.54V21.7075C12.6031 21.0642 12.1435 20.522 11.5093 20.4209Z" fill="#BE851D"/>
<path d="M7.49316 13.3802C8.80746 13.3802 9.8828 12.3049 9.8828 10.9906C9.8828 9.67637 8.80746 8.60107 7.49316 8.60107C6.17885 8.60107 5.10352 9.67637 5.10352 10.9906C5.10352 12.3049 6.17885 13.3802 7.49316 13.3802ZM7.49316 9.51094C8.31115 9.51094 8.9729 10.1727 8.9729 10.9906C8.9729 11.8086 8.31115 12.4703 7.49316 12.4703C6.67516 12.4703 6.01342 11.8086 6.01342 10.9906C6.01342 10.1727 6.68436 9.51094 7.49316 9.51094Z" fill="#BE851D"/>
<path d="M24.8199 14.4286C23.3586 14.3367 22.0902 15.458 21.9983 16.9101L21.6858 20.2371L20.4818 20.4209C19.8476 20.522 19.3789 21.0642 19.3789 21.7075V25.54C19.3789 25.7882 19.5811 25.9995 19.8385 25.9995C20.0958 25.9995 20.298 25.7974 20.298 25.54V21.7075C20.298 21.5145 20.4359 21.3583 20.6289 21.3215L22.2005 21.0734C22.4303 21.0366 22.5957 20.8436 22.5865 20.6139C22.5865 20.5587 22.5865 20.5128 22.5865 20.476L22.9174 16.9836C22.9726 16.0186 23.7997 15.2833 24.774 15.3385C25.739 15.3936 26.4743 16.23 26.4192 17.1766L26.0883 20.669C26.0423 21.3583 25.6012 21.9649 24.9486 22.2038C24.9302 22.213 24.9118 22.2222 24.8935 22.2222C24.7648 22.2866 24.6269 22.3141 24.4799 22.3049C24.4615 22.3049 24.4431 22.3049 24.4339 22.3049L21.8788 22.4244C21.6307 22.4336 21.4285 22.6542 21.4469 22.9023C21.4561 23.1505 21.6674 23.3527 21.9248 23.3343L24.4523 23.2148C24.7372 23.224 25.0313 23.1688 25.2887 23.0402C26.2629 22.6634 26.9338 21.7535 26.9982 20.7242L27.3291 17.2317C27.4118 15.7796 26.2905 14.5113 24.8199 14.4286Z" fill="#BE851D"/>
<path d="M24.4971 13.3802C25.8114 13.3802 26.8867 12.3049 26.8867 10.9906C26.8867 9.67637 25.8114 8.60107 24.4971 8.60107C23.1828 8.60107 22.1074 9.67637 22.1074 10.9906C22.1074 12.3049 23.1736 13.3802 24.4971 13.3802ZM24.4971 9.51094C25.3151 9.51094 25.9768 10.1727 25.9768 10.9906C25.9768 11.8086 25.3151 12.4703 24.4971 12.4703C23.6791 12.4703 23.0173 11.8086 23.0173 10.9906C23.0173 10.1727 23.6791 9.51094 24.4971 9.51094Z" fill="#BE851D"/>
<path d="M20.7092 12.2501V6.48759C20.7092 6.22106 20.4886 6.00049 20.2221 6.00049H11.7664C11.4999 6.00049 11.2793 6.22106 11.2793 6.48759V12.2501C11.2793 12.5166 11.4999 12.7372 11.7664 12.7372H14.1285L15.6726 14.2812C15.7645 14.3731 15.8748 14.4191 15.9942 14.4191C16.1137 14.4191 16.224 14.3731 16.3159 14.2812L17.86 12.7372H20.2221C20.4978 12.7372 20.7092 12.5166 20.7092 12.2501ZM19.7993 11.8273H17.667C17.5475 11.8273 17.428 11.8733 17.3453 11.9652L15.9942 13.3162L14.6432 11.956C14.5605 11.8733 14.441 11.8181 14.3215 11.8181H12.1892V6.91955H19.7993V11.8273Z" fill="#BE851D"/>
</svg>
