<svg width="24" height="19" viewBox="0 0 24 19" fill="currentColor"
    xmlns="http://www.w3.org/2000/svg">
    <path
        d="M12.0003 0.5C10.892 0.5 9.94782 1.22321 9.58957 2.21429H3.42885V3.92857H4.63421L4.39314 4.35714L0.964565 10.3571L0.857422 10.5714V10.7857C0.857422 13.1429 2.78599 15.0714 5.14314 15.0714C7.50028 15.0714 9.42885 13.1429 9.42885 10.7857V10.5714L9.32171 10.3571L5.89314 4.35714L5.65206 3.92857H9.58957C9.85073 4.65179 10.4199 5.22098 11.1431 5.48214V16.7857H7.71456V18.5H16.286V16.7857H12.8574V5.48214C13.5773 5.22098 14.1498 4.64844 14.411 3.92857H18.3485L18.1074 4.35714L14.6789 10.3571L14.5717 10.5714V10.7857C14.5717 13.1429 16.5003 15.0714 18.8574 15.0714C21.2146 15.0714 23.1431 13.1429 23.1431 10.7857V10.5714L23.036 10.3571L19.6074 4.35714L19.3664 3.92857H20.5717V2.21429H14.411C14.0527 1.22321 13.1085 0.5 12.0003 0.5ZM12.0003 2.21429C12.4824 2.21429 12.8574 2.58929 12.8574 3.07143C12.8574 3.55357 12.4824 3.92857 12.0003 3.92857C11.5181 3.92857 11.1431 3.55357 11.1431 3.07143C11.1431 2.58929 11.5181 2.21429 12.0003 2.21429ZM5.14314 6.52679L7.09849 9.92857H3.18778L5.14314 6.52679ZM18.8574 6.52679L20.8128 9.92857H16.9021L18.8574 6.52679ZM2.78599 11.6429H7.50028C7.15541 12.6373 6.26144 13.3571 5.14314 13.3571C4.02483 13.3571 3.13086 12.6373 2.78599 11.6429ZM16.5003 11.6429H21.2146C20.8697 12.6373 19.9757 13.3571 18.8574 13.3571C17.7391 13.3571 16.8451 12.6373 16.5003 11.6429Z"
        fill="currentColor" />
</svg>