<svg width="32" height="32" viewBox="0 0 32 32" fill="none" xmlns="http://www.w3.org/2000/svg">
<rect width="32" height="32" rx="16" fill="#00B5DE" fill-opacity="0.15"/>
<g clip-path="url(#clip0_1532_30996)">
<path d="M25.5 13L22.6667 10.8333V7.66667C22.6667 7.16667 22.3333 6.83333 21.8333 6.83333H17.3333L16.5833 6.25C16.25 5.91667 15.75 5.91667 15.4167 6.25L14.6667 6.83333H10.1667C9.66667 6.83333 9.33333 7.16667 9.33333 7.66667V10.8333L6.58333 12.9167C6.58333 12.9167 6 13.3333 6 14C6 15 6 25.1667 6 25.1667C6 25.6667 6.33333 26 6.83333 26H25.1667C25.6667 26 26 25.6667 26 25.1667C26 25.1667 26 14.8333 26 13.9167C26 13.4167 25.5 13 25.5 13ZM10.1667 12.0833V10.25V7.66667H13.5833H18.4167H21.8333V10.25V12.0833V16.3333L18.0833 19.0833L16.5833 17.9167C16.25 17.5833 15.75 17.5833 15.4167 17.9167L13.9167 19.0833L10.1667 16.3333V12.0833ZM7.66667 13.9167L9.33333 12.6667V15.6667L7.66667 14.4167V13.9167ZM7.66667 15.6667L13 19.75L7.66667 23.8333V15.6667ZM8.58333 24.3333L16 18.9167L23.4167 24.3333H8.58333ZM24.3333 23.8333L19 19.75L24.3333 15.6667V23.8333ZM24.3333 14.5L22.6667 15.75V12.6667L24.3333 13.9167V14.5Z" fill="#00B5DE"/>
<path d="M20.1663 10.1667H11.833V11.0001H20.1663V10.1667Z" fill="#00B5DE"/>
<path d="M20.1663 12.6667H11.833V13.5001H20.1663V12.6667Z" fill="#00B5DE"/>
<path d="M20.1663 15.1667H11.833V16.0001H20.1663V15.1667Z" fill="#00B5DE"/>
</g>
<defs>
<clipPath id="clip0_1532_30996">
<rect width="20" height="20" fill="white" transform="translate(6 6)"/>
</clipPath>
</defs>
</svg>
