<svg width="32" height="32" viewBox="0 0 32 32" fill="none" xmlns="http://www.w3.org/2000/svg">
<rect width="32" height="32" rx="8" fill="#1C1D22" fill-opacity="0.04"/>
<g clip-path="url(#clip0_891_25019)">
<path fill-rule="evenodd" clip-rule="evenodd" d="M26 8.5C26 7.1202 24.8798 6 23.5 6H8.5C7.1202 6 6 7.1202 6 8.5V23.5C6 24.8798 7.1202 26 8.5 26H23.5C24.8798 26 26 24.8798 26 23.5V8.5Z" fill="#2867B2"/>
<path d="M11.7348 12.979H8.38477V23.0556H11.7348V12.979Z" fill="white"/>
<path d="M10.0825 8.12012C8.93637 8.12012 8.1875 8.87363 8.1875 9.86125C8.1875 10.8281 8.91359 11.6024 10.0382 11.6024H10.0598C11.2279 11.6024 11.955 10.8281 11.955 9.86125C11.9333 8.87363 11.228 8.12012 10.0825 8.12012Z" fill="white"/>
<path d="M19.9556 12.7419C18.1787 12.7419 17.3827 13.7192 16.937 14.4056V12.9789H13.5879C13.6323 13.9241 13.5879 23.0555 13.5879 23.0555H16.937V17.428C16.937 17.1268 16.9586 16.8257 17.0474 16.6104C17.2891 16.0088 17.8406 15.3857 18.7659 15.3857C19.9773 15.3857 20.4626 16.3101 20.4626 17.6641V23.0555H23.8119V17.277C23.8119 14.1818 22.1593 12.7419 19.9556 12.7419Z" fill="white"/>
</g>
<defs>
<clipPath id="clip0_891_25019">
<rect width="20" height="20" fill="white" transform="translate(6 6)"/>
</clipPath>
</defs>
</svg>
