<svg width="24" height="24" viewBox="0 0 24 24" fill="none" xmlns="http://www.w3.org/2000/svg">
    <path
        d="M5.1211 13.5008H16.5C16.8978 13.5008 17.2794 13.3428 17.5607 13.0615C17.842 12.7802 18 12.3986 18 12.0008C18 11.603 17.842 11.2214 17.5607 10.9401C17.2794 10.6588 16.8978 10.5008 16.5 10.5008H5.1211L7.06055 8.56136C7.34053 8.27981 7.49745 7.89873 7.49689 7.50167C7.49634 7.10461 7.33837 6.72397 7.0576 6.4432C6.77683 6.16244 6.39619 6.00446 5.99913 6.00391C5.60207 6.00336 5.22099 6.16027 4.93945 6.44026L0.439447 10.9403C0.30013 11.0795 0.189613 11.2448 0.114211 11.4268C0.0388095 11.6088 0 11.8038 0 12.0008C0 12.1978 0.0388095 12.3928 0.114211 12.5748C0.189613 12.7568 0.30013 12.9221 0.439447 13.0614L4.93945 17.5614C5.07858 17.7013 5.24395 17.8123 5.42609 17.8882C5.60823 17.9641 5.80355 18.0033 6.00086 18.0036C6.19818 18.0039 6.3936 17.9652 6.57595 17.8898C6.7583 17.8145 6.92398 17.7038 7.0635 17.5643C7.20302 17.4248 7.31365 17.2591 7.38903 17.0768C7.46441 16.8944 7.50307 16.699 7.5028 16.5017C7.50252 16.3044 7.46332 16.109 7.38743 15.9269C7.31154 15.7448 7.20046 15.5794 7.06055 15.4403L5.1211 13.5008Z"
        fill="#BF0606" />
    <path
        d="M22.5 2.41129e-07H10.5C10.303 -0.000111495 10.1079 0.0386109 9.92584 0.113953C9.7438 0.189296 9.5784 0.299781 9.43909 0.439091C9.29978 0.578401 9.1893 0.743804 9.11395 0.925843C9.03861 1.10788 8.99989 1.30299 9 1.5V4.5C9 4.89783 9.15804 5.27936 9.43934 5.56066C9.72064 5.84197 10.1022 6 10.5 6C10.8978 6 11.2794 5.84197 11.5607 5.56066C11.842 5.27936 12 4.89783 12 4.5V3H21V21H12V19.5C12 19.1022 11.842 18.7206 11.5607 18.4393C11.2794 18.158 10.8978 18 10.5 18C10.1022 18 9.72064 18.158 9.43934 18.4393C9.15804 18.7206 9 19.1022 9 19.5V22.5C8.99989 22.697 9.03861 22.8921 9.11395 23.0742C9.1893 23.2562 9.29978 23.4216 9.43909 23.5609C9.5784 23.7002 9.7438 23.8107 9.92584 23.886C10.1079 23.9614 10.303 24.0001 10.5 24H22.5C22.697 24.0001 22.8921 23.9614 23.0742 23.886C23.2562 23.8107 23.4216 23.7002 23.5609 23.5609C23.7002 23.4216 23.8107 23.2562 23.886 23.0742C23.9614 22.8921 24.0001 22.697 24 22.5V1.5C24.0001 1.30299 23.9614 1.10788 23.886 0.925843C23.8107 0.743804 23.7002 0.578401 23.5609 0.439091C23.4216 0.299781 23.2562 0.189296 23.0742 0.113953C22.8921 0.0386109 22.697 -0.000111495 22.5 2.41129e-07Z"
        fill="#BF0606" />
</svg>