<svg width="32" height="32" viewBox="0 0 32 32" fill="none" xmlns="http://www.w3.org/2000/svg">
<rect width="32" height="32" rx="16" fill="#E75D75" fill-opacity="0.15"/>
<g clip-path="url(#clip0_1532_30966)">
<path d="M15.9925 25.8466C12.8801 25.8466 9.76806 25.8466 6.65566 25.8466C6.60292 25.8466 6.54979 25.8473 6.49705 25.8466C6.17863 25.8418 6.0101 25.6788 6.00852 25.356C6.00415 24.6161 6.00534 23.8757 6.00534 23.1357C6.00495 20.2742 6.00812 17.4131 6.00098 14.5516C6.00019 14.2812 6.08386 14.09 6.29957 13.927C6.56247 13.7284 6.7996 13.4952 7.05735 13.289C7.17353 13.1962 7.212 13.0947 7.2116 12.9499C7.20724 11.3641 7.20883 9.77793 7.20922 8.19213C7.20922 7.74997 7.35991 7.60087 7.8068 7.60087C9.68994 7.60087 11.5735 7.59809 13.4566 7.60484C13.6501 7.60563 13.7953 7.54853 13.9368 7.42401C14.2885 7.11391 14.647 6.81134 15.0079 6.51155C15.5658 6.04758 16.3834 6.03132 16.9497 6.48379C17.3212 6.78041 17.6801 7.09329 18.0362 7.40854C18.1873 7.54218 18.3407 7.60682 18.5497 7.60603C20.4396 7.59809 22.3295 7.60127 24.2194 7.60206C24.6234 7.60206 24.7793 7.75949 24.7793 8.16714C24.7797 9.75295 24.7812 11.3392 24.7765 12.925C24.7761 13.084 24.8185 13.1974 24.9454 13.2985C25.219 13.517 25.4764 13.7549 25.7492 13.9742C25.9177 14.1098 25.9899 14.2712 25.9895 14.4878C25.9855 16.5958 25.9875 18.7039 25.9875 20.8116C25.9875 22.2324 25.9867 23.6532 25.9867 25.0737C25.9867 25.1462 25.9923 25.2188 25.9982 25.291C26.0256 25.6292 25.8273 25.847 25.4883 25.847C23.6313 25.847 21.7747 25.847 19.9178 25.847C18.6092 25.847 17.301 25.847 15.9925 25.847V25.8466ZM15.9873 8.47685C13.4372 8.47685 10.8871 8.47844 8.33697 8.47368C8.15892 8.47368 8.08001 8.5062 8.0808 8.70963C8.08755 10.8236 8.08358 12.938 8.09032 15.0521C8.09032 15.1421 8.14504 15.2587 8.21325 15.3173C9.77639 16.6601 11.3439 17.998 12.9157 19.3304C12.9974 19.3998 13.1267 19.4474 13.2342 19.4478C15.0709 19.455 16.9073 19.455 18.744 19.4478C18.8519 19.4474 18.9823 19.4018 19.064 19.332C20.6307 18.0036 22.1915 16.668 23.7558 15.3368C23.8597 15.2483 23.9061 15.1567 23.9057 15.0172C23.9013 12.9293 23.9029 10.8419 23.9029 8.75404C23.9029 8.56951 23.8079 8.47711 23.6178 8.47685C21.0744 8.47685 18.5307 8.47685 15.9873 8.47685ZM24.24 24.9456C24.2618 24.9182 24.284 24.8909 24.3058 24.8631C24.2428 24.8278 24.1714 24.8024 24.1178 24.7564C22.4532 23.3289 20.7913 21.8977 19.1235 20.4741C19.0267 20.3916 18.8812 20.3266 18.7567 20.323C18.1901 20.3067 17.6226 20.3135 17.0556 20.3159C16.4227 20.3186 15.7894 20.3305 15.1566 20.3301C14.517 20.3301 13.8773 20.3115 13.2381 20.3198C13.1132 20.3214 12.9653 20.3821 12.869 20.4638C11.238 21.8497 9.61381 23.2436 7.98841 24.6363C7.8865 24.7235 7.78935 24.8163 7.647 24.9456H24.24ZM25.0779 15.3772C24.9914 15.4407 24.9418 15.4724 24.8974 15.5105C23.2486 16.9158 21.6014 18.3232 19.9499 19.725C19.8079 19.8456 19.823 19.9161 19.9554 20.0292C21.6117 21.446 23.2641 22.8677 24.918 24.2873C24.9597 24.323 25.0089 24.3504 25.0782 24.3984V15.3772H25.0779ZM6.91103 24.3813C7.0062 24.3103 7.07519 24.2651 7.13745 24.2116C7.94559 23.52 8.75293 22.8272 9.56027 22.1352C10.3878 21.4258 11.2142 20.7148 12.0454 20.0097C12.1707 19.9035 12.1703 19.8333 12.0422 19.7349C11.8852 19.6148 11.7384 19.4807 11.5874 19.3522C10.0948 18.0789 8.60225 16.8056 7.1089 15.5331C7.05418 15.4863 6.99113 15.449 6.91024 15.3923V24.3813H6.91103ZM16.8474 7.58858C16.6043 7.23882 16.226 7.00961 15.9564 7.0338C15.592 7.06672 15.3893 7.33399 15.1141 7.58858H16.8474Z" fill="#E75D75"/>
<path d="M19.3597 13.3169C19.3459 13.9989 19.1738 14.6235 18.7419 15.1616C18.3581 15.6402 17.7712 15.858 17.289 15.6859C17.1387 15.6319 16.9889 15.5399 16.8758 15.4281C16.7656 15.3194 16.6962 15.3282 16.5745 15.3972C15.5907 15.9531 14.4435 15.5371 14.135 14.493C13.8122 13.4017 14.4487 11.9428 15.8496 11.7806C16.1074 11.7509 16.3881 11.8659 16.649 11.9448C16.7604 11.9785 16.8251 12.0122 16.9179 11.9083C17.0412 11.7707 17.2058 11.7251 17.3862 11.8056C17.5694 11.8869 17.6661 12.0293 17.6455 12.2295C17.6023 12.6487 17.5464 13.0666 17.5012 13.4858C17.4643 13.826 17.4219 14.1671 17.4096 14.5085C17.4056 14.6187 17.4687 14.8051 17.5404 14.8269C17.6491 14.8598 17.8184 14.8142 17.9156 14.7409C18.2514 14.4875 18.3922 14.1111 18.4441 13.7114C18.533 13.0282 18.4295 12.3766 18.0004 11.8151C17.6027 11.2945 17.0364 11.0847 16.4067 11.0597C14.955 11.0022 13.7416 12.0531 13.5533 13.5084C13.4419 14.3709 13.5997 15.1545 14.2417 15.7854C14.8 16.3338 15.4923 16.4916 16.2481 16.4282C16.6653 16.3933 17.0634 16.2831 17.4429 16.0999C17.686 15.9825 17.9223 16.0677 18.0325 16.2878C18.1459 16.5146 18.0698 16.7783 17.8101 16.8787C17.4187 17.0302 17.0178 17.1745 16.6078 17.2558C15.992 17.3775 15.3635 17.351 14.7754 17.1218C13.5152 16.6304 12.8133 15.693 12.6773 14.3455C12.5187 12.7732 13.1504 11.5593 14.436 10.6968C15.6795 9.86251 17.4964 10.0433 18.4822 11.0482C18.962 11.5371 19.2233 12.132 19.3074 12.8073C19.3284 12.977 19.3427 13.1475 19.3601 13.3173L19.3597 13.3169ZM16.6522 13.2415C16.6447 13.2094 16.6431 13.14 16.6137 13.0861C16.3631 12.6257 15.9135 12.5178 15.4796 12.8156C15.1351 13.0524 14.9852 13.397 14.9308 13.8014C14.8694 14.2603 15.1319 14.6893 15.5447 14.7718C15.9765 14.8579 16.4706 14.5244 16.5495 14.0782C16.5963 13.8133 16.6161 13.5433 16.6518 13.2419L16.6522 13.2415Z" fill="#E75D75"/>
</g>
<defs>
<clipPath id="clip0_1532_30966">
<rect width="20" height="19.6939" fill="white" transform="translate(6 6.15308)"/>
</clipPath>
</defs>
</svg>
