<svg width="18" height="19" viewBox="0 0 18 19" fill="none" xmlns="http://www.w3.org/2000/svg">
<path d="M9 10.625C10.5533 10.625 11.8125 9.3658 11.8125 7.8125C11.8125 6.2592 10.5533 5 9 5C7.4467 5 6.1875 6.2592 6.1875 7.8125C6.1875 9.3658 7.4467 10.625 9 10.625Z" stroke="currentColor" stroke-width="1.125" stroke-linecap="round" stroke-linejoin="round"/>
<path d="M12.9375 16.25C12.9375 15.2057 12.5227 14.2042 11.7842 13.4658C11.0458 12.7273 10.0443 12.3125 9 12.3125C7.95571 12.3125 6.95419 12.7273 6.21577 13.4658C5.47734 14.2042 5.0625 15.2057 5.0625 16.25H12.9375Z" stroke="currentColor" stroke-width="1.125" stroke-linecap="round" stroke-linejoin="round"/>
<path d="M13.5 8.375C13.9794 8.375 14.4509 8.25245 14.8696 8.019C15.2883 7.78554 15.6404 7.44893 15.8925 7.04112C16.1445 6.63331 16.2881 6.16784 16.3097 5.68892C16.3312 5.20999 16.23 4.73351 16.0156 4.30471C15.8012 3.87592 15.4807 3.50904 15.0847 3.23892C14.6886 2.96881 14.2301 2.80442 13.7526 2.76137C13.2751 2.71831 12.7946 2.79802 12.3566 2.99293C11.9186 3.18784 11.5376 3.49147 11.25 3.875" stroke="currentColor" stroke-width="1.125" stroke-linecap="round" stroke-linejoin="round"/>
<path d="M14.0625 14H17.4375C17.4375 12.9557 17.0227 11.9542 16.2842 11.2158C15.5458 10.4773 14.5443 10.0625 13.5 10.0625" stroke="currentColor" stroke-width="1.125" stroke-linecap="round" stroke-linejoin="round"/>
<path d="M6.75 3.875C6.46235 3.49147 6.08145 3.18784 5.64345 2.99293C5.20545 2.79802 4.72489 2.71831 4.24742 2.76137C3.76995 2.80442 3.31141 2.96881 2.91534 3.23892C2.51927 3.50904 2.19882 3.87592 1.98442 4.30471C1.77003 4.73351 1.66879 5.20999 1.69034 5.68892C1.71189 6.16784 1.8555 6.63331 2.10755 7.04112C2.35959 7.44893 2.71169 7.78554 3.13041 8.019C3.54914 8.25245 4.02059 8.375 4.5 8.375" stroke="currentColor" stroke-width="1.125" stroke-linecap="round" stroke-linejoin="round"/>
<path d="M4.5 10.0625C3.45571 10.0625 2.45419 10.4773 1.71577 11.2158C0.977343 11.9542 0.5625 12.9557 0.5625 14H3.9375" stroke="currentColor" stroke-width="1.125" stroke-linecap="round" stroke-linejoin="round"/>
</svg>
