<svg width="24" height="24" viewBox="0 0 24 24" fill="none" xmlns="http://www.w3.org/2000/svg">
    <g clip-path="url(#clip0_619_25621)">
        <path fill-rule="evenodd" clip-rule="evenodd"
            d="M3.3602 22.7992C2.16726 22.7992 1.2002 21.8015 1.2002 20.5706V9.42779C1.2002 8.19698 2.16726 7.19922 3.3602 7.19922H20.6402C21.8331 7.19922 22.8002 8.19698 22.8002 9.42779V20.5706C22.8002 21.8015 21.8331 22.7992 20.6402 22.7992H3.3602Z"
            stroke="currentColor" stroke-width="2" stroke-linecap="round" stroke-linejoin="round" />
        <path fill-rule="evenodd" clip-rule="evenodd"
            d="M18 7.19922H6C6 4.14199 7.688 1.19922 12 1.19922C16.312 1.19922 18 4.14199 18 7.19922Z"
            stroke="currentColor" stroke-width="2" stroke-linecap="round" stroke-linejoin="round" />
        <path
            d="M11.6314 15.0462C11.539 15.0446 11.4509 15.0068 11.3861 14.9409C11.3213 14.8749 11.2849 14.7862 11.285 14.6937C11.2842 14.6477 11.2925 14.602 11.3096 14.5593C11.3267 14.5166 11.352 14.4777 11.3843 14.4449C11.4166 14.4121 11.455 14.386 11.4975 14.3682C11.5399 14.3504 11.5854 14.3413 11.6314 14.3413C11.6779 14.3408 11.724 14.3496 11.767 14.367C11.8101 14.3844 11.8493 14.4102 11.8823 14.4428C11.9359 14.5054 12.0018 14.5562 12.0759 14.592C12.15 14.6279 12.2308 14.648 12.313 14.6512C12.3953 14.6544 12.4773 14.6405 12.554 14.6105C12.6307 14.5805 12.7003 14.5349 12.7585 14.4767C12.8167 14.4185 12.8623 14.3488 12.8923 14.2722C12.9223 14.1955 12.9362 14.1135 12.933 14.0312C12.9298 13.9489 12.9097 13.8682 12.8738 13.7941C12.838 13.72 12.7872 13.6541 12.7247 13.6005C12.5827 13.4578 12.4143 13.3442 12.2288 13.266V13.1286C12.2288 12.9702 12.1659 12.8182 12.0539 12.7062C11.9418 12.5942 11.7899 12.5312 11.6314 12.5312C11.473 12.5312 11.3211 12.5942 11.209 12.7062C11.097 12.8182 11.0341 12.9702 11.0341 13.1286V13.266C10.6961 13.3988 10.4157 13.6462 10.2418 13.965C10.0678 14.2837 10.0116 14.6534 10.0828 15.0094C10.154 15.3655 10.3481 15.6851 10.6313 15.9124C10.9144 16.1397 11.2684 16.2603 11.6314 16.2529C11.6774 16.2521 11.7231 16.2605 11.7659 16.2775C11.8086 16.2946 11.8475 16.32 11.8803 16.3522C11.9131 16.3845 11.9392 16.4229 11.957 16.4654C11.9747 16.5078 11.9839 16.5533 11.9839 16.5993C11.9787 16.6661 11.9552 16.7301 11.916 16.7843C11.8768 16.8386 11.8234 16.881 11.7617 16.9069C11.7 16.9329 11.6323 16.9413 11.5661 16.9313C11.5 16.9213 11.4378 16.8932 11.3865 16.8502C11.331 16.7943 11.2649 16.7498 11.1921 16.7195C11.1193 16.6892 11.0412 16.6735 10.9624 16.6735C10.8835 16.6735 10.8054 16.6892 10.7326 16.7195C10.6598 16.7498 10.5938 16.7943 10.5382 16.8502C10.427 16.9622 10.3645 17.1136 10.3645 17.2714C10.3645 17.4292 10.427 17.5806 10.5382 17.6925C10.6807 17.8345 10.849 17.9481 11.0341 18.0271V18.1645C11.0341 18.3229 11.097 18.4748 11.209 18.5869C11.3211 18.6989 11.473 18.7618 11.6314 18.7618C11.7899 18.7618 11.9418 18.6989 12.0539 18.5869C12.1659 18.4748 12.2288 18.3229 12.2288 18.1645V18.0271C12.5742 17.9005 12.8629 17.6546 13.0428 17.3338C13.2227 17.013 13.2819 16.6384 13.2098 16.2777C13.1377 15.917 12.9389 15.5941 12.6495 15.3671C12.36 15.1402 11.9989 15.0242 11.6314 15.0402V15.0462Z"
            fill="currentColor" />
        <path
            d="M11.6309 10.6367C10.6422 10.6379 9.67606 10.9321 8.85458 11.4823C8.0331 12.0324 7.39315 12.8137 7.01562 13.7274C6.63809 14.6412 6.53992 15.6463 6.73353 16.6158C6.92713 17.5853 7.40382 18.4757 8.10334 19.1744C8.80285 19.873 9.6938 20.3486 10.6636 20.5411C11.6333 20.7335 12.6384 20.6342 13.5517 20.2555C14.465 19.8769 15.2456 19.2361 15.7947 18.4139C16.3439 17.5918 16.637 16.6254 16.637 15.6367C16.6338 14.3106 16.1052 13.0397 15.1669 12.1026C14.2286 11.1654 12.9571 10.6383 11.6309 10.6367ZM11.6309 19.442C10.8785 19.4408 10.1434 19.2166 9.51837 18.7978C8.89336 18.3789 8.40655 17.7842 8.11945 17.0888C7.83235 16.3934 7.75784 15.6284 7.90534 14.8907C8.05285 14.1529 8.41574 13.4755 8.94817 12.9439C9.4806 12.4123 10.1587 12.0505 10.8967 11.9041C11.6347 11.7578 12.3995 11.8335 13.0945 12.1217C13.7895 12.4099 14.3834 12.8976 14.8013 13.5233C15.2192 14.1489 15.4422 14.8844 15.4422 15.6367C15.4422 16.1369 15.3436 16.6322 15.152 17.0943C14.9604 17.5564 14.6795 17.9761 14.3255 18.3296C13.9715 18.683 13.5513 18.9632 13.089 19.154C12.6266 19.3449 12.1311 19.4428 11.6309 19.442Z"
            fill="currentColor" />
    </g>
    <defs>
        <clipPath id="clip0_619_25621">
            <rect width="24" height="24" fill="currentColor" />
        </clipPath>
    </defs>
</svg>