<svg width="20" height="25" viewBox="0 0 20 25" fill="none" xmlns="http://www.w3.org/2000/svg">
    <path fill-rule="evenodd" clip-rule="evenodd"
        d="M2.39998 22.1H16.7999V7.49411L12.2058 2.9H2.39998V22.1ZM2.39998 0.5C1.07451 0.5 0 1.57452 0 2.9V22.1C0 23.4255 1.07451 24.5 2.39998 24.5H16.7999C18.1253 24.5 19.1998 23.4255 19.1998 22.1V7.49411C19.1998 6.85759 18.947 6.24714 18.4969 5.79706L13.9028 1.20294C13.4527 0.752856 12.8423 0.5 12.2058 0.5H2.39998Z"
        fill="currentColor" />
    <path
        d="M4.79996 18.5C4.79996 17.8373 5.33721 17.3 5.99995 17.3H13.1999C13.8626 17.3 14.3999 17.8373 14.3999 18.5C14.3999 19.1627 13.8626 19.7 13.1999 19.7H5.99995C5.33721 19.7 4.79996 19.1627 4.79996 18.5Z"
        fill="currentColor" />
    <path
        d="M4.79996 13.7C4.79996 13.0373 5.33721 12.5 5.99995 12.5H10.7999C11.4626 12.5 11.9999 13.0373 11.9999 13.7C11.9999 14.3627 11.4626 14.9 10.7999 14.9H5.99995C5.33721 14.9 4.79996 14.3627 4.79996 13.7Z"
        fill="currentColor" />
    <path
        d="M4.79996 8.9C4.79996 8.23726 5.33721 7.7 5.99995 7.7H8.39993C9.06266 7.7 9.59992 8.23726 9.59992 8.9C9.59992 9.56274 9.06266 10.1 8.39993 10.1H5.99995C5.33721 10.1 4.79996 9.56274 4.79996 8.9Z"
        fill="currentColor" />
</svg>