<svg width="22" height="25" viewBox="0 0 22 25" fill="none" xmlns="http://www.w3.org/2000/svg">
    <path fill-rule="evenodd" clip-rule="evenodd"
        d="M1.77196 16.3522C3.34914 14.1536 6.14239 12.5 10.8 12.5C15.4576 12.5 18.2509 14.1536 19.828 16.3522C21.3524 18.4771 21.5951 20.9126 21.6 22.2603C21.6049 23.6155 20.4687 24.5 19.3039 24.5H2.29609C1.13127 24.5 -0.00485887 23.6155 1.56291e-05 22.2603C0.00486323 20.9126 0.247647 18.4771 1.77196 16.3522ZM2.40215 22.1H19.1978C19.1731 20.9575 18.9273 19.214 17.8779 17.7511C16.8282 16.2879 14.8259 14.9 10.8 14.9C6.77408 14.9 4.7718 16.2879 3.7221 17.7511C2.67271 19.214 2.42693 20.9575 2.40215 22.1Z"
        fill="#BF0606" />
    <path fill-rule="evenodd" clip-rule="evenodd"
        d="M10.8001 7.7C12.1256 7.7 13.2001 6.62548 13.2001 5.3C13.2001 3.97452 12.1256 2.9 10.8001 2.9C9.47463 2.9 8.40011 3.97452 8.40011 5.3C8.40011 6.62548 9.47463 7.7 10.8001 7.7ZM10.8001 10.1C13.4511 10.1 15.6001 7.95097 15.6001 5.3C15.6001 2.64903 13.4511 0.5 10.8001 0.5C8.14914 0.5 6.00009 2.64903 6.00009 5.3C6.00009 7.95097 8.14914 10.1 10.8001 10.1Z"
        fill="#BF0606" />
</svg>