<svg width="32" height="32" viewBox="0 0 32 32" fill="none" xmlns="http://www.w3.org/2000/svg">
<rect width="32" height="32" rx="16" fill="#509D21" fill-opacity="0.15"/>
<path d="M15.9993 10.9104C14.1131 10.9104 12.2276 10.6932 10.3973 10.2642C10.2118 10.2207 10.0966 10.0359 10.14 9.84971C10.1835 9.66488 10.3642 9.54971 10.5552 9.59246C14.5504 10.529 18.7966 10.4111 22.7469 9.24902C22.9331 9.1966 23.1221 9.29936 23.1752 9.48212C23.229 9.66557 23.1249 9.8566 22.9421 9.9104C20.6862 10.5738 18.3504 10.9104 15.9993 10.9104Z" fill="#509D21"/>
<path d="M22.8447 22.7717C22.8123 22.7717 22.7799 22.7669 22.7468 22.7572C18.3613 21.4669 13.6385 21.4669 9.25298 22.7572C9.06747 22.8089 8.87781 22.7069 8.82471 22.5241C8.77091 22.3406 8.87505 22.1496 9.05781 22.0958C13.5716 20.7675 18.4288 20.7675 22.9426 22.0958C23.1254 22.1496 23.2295 22.3406 23.1757 22.5241C23.1316 22.6751 22.9937 22.7717 22.8447 22.7717Z" fill="#509D21"/>
<path d="M15.5786 25.7213C15.511 25.7213 15.4441 25.702 15.3841 25.6613C12.1655 23.4648 10.2441 19.853 10.2441 15.9999C10.2441 12.8779 11.4724 9.93924 13.7041 7.72545C13.84 7.58959 14.0586 7.59235 14.1917 7.72683C14.3262 7.862 14.3248 8.08062 14.1903 8.21442C12.0903 10.2979 10.9338 13.0627 10.9338 15.9999C10.9338 19.6248 12.7428 23.0241 15.7738 25.0917C15.931 25.1986 15.971 25.4137 15.8641 25.571C15.7966 25.6689 15.6883 25.7213 15.5786 25.7213Z" fill="#509D21"/>
<path d="M16.4502 25.7213C16.3405 25.7213 16.2322 25.6689 16.1653 25.571C16.0584 25.413 16.0984 25.1985 16.2557 25.0916C19.2867 23.0241 21.0957 19.6248 21.0957 15.9999C21.0957 12.3751 19.2867 8.97579 16.2557 6.9082C16.0984 6.80131 16.0584 6.58613 16.1653 6.42889C16.2729 6.27165 16.4881 6.23303 16.6446 6.33855C19.8633 8.5351 21.7846 12.1468 21.7846 15.9999C21.7846 19.853 19.8633 23.4648 16.6446 25.6613C16.5853 25.7013 16.5177 25.7213 16.4502 25.7213Z" fill="#509D21"/>
<path d="M15.9991 25.6181C15.8088 25.6181 15.6543 25.4636 15.6543 25.2733V6.72569C15.6543 6.53534 15.8088 6.38086 15.9991 6.38086C16.1895 6.38086 16.344 6.53534 16.344 6.72569V25.2733C16.344 25.4643 16.1895 25.6181 15.9991 25.6181Z" fill="#509D21"/>
<path d="M25.6188 16.3449H7.76084C7.5705 16.3449 7.41602 16.1904 7.41602 16.0001C7.41602 15.8098 7.5705 15.6553 7.76084 15.6553H25.6195C25.8098 15.6553 25.9643 15.8098 25.9643 16.0001C25.9643 16.1904 25.8098 16.3449 25.6188 16.3449Z" fill="#509D21"/>
<path d="M16 26C10.4862 26 6 21.5138 6 16C6 13.5717 6.88138 11.2283 8.48276 9.40345C8.60828 9.26 8.82552 9.24621 8.96966 9.37172C9.11241 9.49724 9.12621 9.71517 9.00138 9.85862C7.51103 11.5572 6.68966 13.7386 6.68966 16C6.68966 21.1338 10.8662 25.3103 16 25.3103C21.1338 25.3103 25.3103 21.1338 25.3103 16C25.3103 10.8662 21.1338 6.68966 16 6.68966C13.8772 6.68966 11.8786 7.38483 10.2214 8.7C10.0724 8.81862 9.85586 8.79448 9.73724 8.64414C9.61862 8.49517 9.64345 8.27862 9.7931 8.16C11.5731 6.7469 13.7193 6 16 6C21.5138 6 26 10.4862 26 16C26 21.5138 21.5138 26 16 26Z" fill="#509D21"/>
</svg>
