<svg width="22" height="22" viewBox="0 0 22 22" fill="none" xmlns="http://www.w3.org/2000/svg">
<path d="M9.18146 0.75H8.93146V1V3.22487C4.34921 3.65852 0.75 7.5175 0.75 12.2121C0.75 17.1958 4.80454 21.25 9.78788 21.25C14.4818 21.25 18.3411 17.6501 18.7744 13.0685H20.9993H21.2493V12.8185V12.2121C21.2489 5.89154 16.1078 0.75 9.78788 0.75H9.18146ZM9.18146 13.0682H17.063C16.6374 16.7054 13.537 19.5375 9.78788 19.5375C5.74807 19.5375 2.46212 16.2509 2.46212 12.2118C2.46212 8.46223 5.29394 5.36116 8.93146 4.93595V12.8182V13.0682H9.18146ZM18.5743 11.3561H10.6436V3.4246V2.49939C15.3376 2.90963 19.0893 6.66199 19.4995 11.3561H18.5743Z" fill="currentColor" stroke="currentColor" stroke-width="0.5"/>
</svg>
