<svg width="40" height="40" viewBox="0 0 40 40" fill="none" xmlns="http://www.w3.org/2000/svg">
<rect width="40" height="40" rx="5.33333" fill="#DE3030" fill-opacity="0.1"/>
<g clip-path="url(#clip0_1598_7246)">
<path d="M13.5651 18.7937L10.0286 15.7312L6.49219 18.7937V4.375H13.5651V18.7937Z" fill="#DE3030"/>
<path d="M33.0391 11.6998H29.4458C28.0376 11.6998 26.8945 10.5686 26.8945 9.1748V5.6123H27.8292V9.16855C27.8292 10.0498 28.5554 10.7686 29.4458 10.7686H33.0391V11.6998Z" fill="#DE3030"/>
<path d="M30.9542 35.6254H12.1099C10.7016 35.6254 9.55859 34.4941 9.55859 33.1004V17.3629H10.4932V33.1004C10.4932 33.9816 11.2195 34.7004 12.1099 34.7004H30.9479C31.8383 34.7004 32.5645 33.9816 32.5645 33.1004V11.4254L27.3925 6.08164H14.5538V5.15039H27.7966L33.4992 11.0504V33.1004C33.5055 34.4941 32.3624 35.6254 30.9542 35.6254Z" fill="#DE3030"/>
<path d="M30.5889 22.0059H12.4141V22.9309H30.5889V22.0059Z" fill="#DE3030"/>
<path d="M25.3474 24.3872H12.4141V25.3122H25.3474V24.3872Z" fill="#DE3030"/>
<path d="M20.9331 26.7622H12.4141V27.6872H20.9331V26.7622Z" fill="#DE3030"/>
<path d="M29.9322 29.1436H12.4141V30.0686H29.9322V29.1436Z" fill="#DE3030"/>
<path d="M28.5049 31.5249H12.4141V32.4499H28.5049V31.5249Z" fill="#DE3030"/>
<path d="M16.8317 17.4312V19.0625H16.1055V14.75H17.7727C18.2526 14.75 18.6315 14.875 18.9031 15.1187C19.1746 15.3625 19.3135 15.6875 19.3135 16.0875C19.3135 16.4937 19.1746 16.8187 18.9031 17.0625C18.6315 17.3063 18.2526 17.425 17.7727 17.425H16.8317V17.4312ZM16.8317 16.8562H17.7727C18.0442 16.8562 18.2463 16.7875 18.3789 16.6438C18.5115 16.5 18.581 16.3188 18.581 16.1C18.581 15.8813 18.5115 15.7 18.3789 15.55C18.2463 15.4063 18.0379 15.3313 17.7727 15.3313H16.8317V16.8562Z" fill="#DE3030"/>
<path d="M20.1855 19.0684V14.7559H21.6254C22.1748 14.7559 22.6295 14.9246 22.9705 15.2684C23.3178 15.6121 23.4883 16.0496 23.4883 16.5871V17.2434C23.4883 17.7809 23.3178 18.2184 22.9705 18.5621C22.6232 18.8996 22.1748 19.0684 21.6254 19.0684H20.1855ZM20.9181 15.3309V18.4871H21.6317C21.979 18.4871 22.2569 18.3684 22.4653 18.1371C22.6737 17.9059 22.7747 17.6059 22.7747 17.2371V16.5746C22.7747 16.2121 22.6737 15.9121 22.4653 15.6809C22.2569 15.4496 21.9854 15.3309 21.6317 15.3309H20.9181Z" fill="#DE3030"/>
<path d="M26.9623 17.2309H25.2067V19.0684H24.4805V14.7559H27.2654V15.3309H25.2067V16.6496H26.9623V17.2309Z" fill="#DE3030"/>
</g>
<defs>
<clipPath id="clip0_1598_7246">
<rect width="32.3333" height="32" fill="white" transform="translate(3.83398 4)"/>
</clipPath>
</defs>
</svg>
