<svg width="14" height="23" viewBox="0 0 14 23" fill="none" xmlns="http://www.w3.org/2000/svg">
<path d="M7 22.7522C6.83772 22.7522 6.67982 22.6995 6.55 22.6022L3.55 20.3522C3.45685 20.2823 3.38125 20.1917 3.32918 20.0876C3.27711 19.9834 3.25 19.8686 3.25 19.7522V12.6047C2.04592 11.8002 1.13248 10.6297 0.644608 9.26628C0.156732 7.90281 0.12028 6.41859 0.540636 5.03282C0.960991 3.64705 1.81587 2.43321 2.97901 1.57055C4.14215 0.707904 5.55188 0.242187 7 0.242188C8.44812 0.242188 9.85786 0.707904 11.021 1.57055C12.1841 2.43321 13.039 3.64705 13.4594 5.03282C13.8797 6.41859 13.8433 7.90281 13.3554 9.26628C12.8675 10.6297 11.9541 11.8002 10.75 12.6047V13.7522C10.7506 13.8509 10.7317 13.9487 10.6943 14.0401C10.657 14.1315 10.602 14.2146 10.5325 14.2847L9.5575 15.2522L10.5325 16.2197C10.6028 16.2894 10.6586 16.3723 10.6967 16.4637C10.7347 16.5551 10.7543 16.6532 10.7543 16.7522C10.7543 16.8512 10.7347 16.9492 10.6967 17.0406C10.6586 17.132 10.6028 17.215 10.5325 17.2847L9.5575 18.2522L10.5325 19.2197C10.6086 19.2959 10.6675 19.3875 10.705 19.4885C10.7425 19.5894 10.7579 19.6973 10.75 19.8047C10.7423 19.9121 10.7114 20.0166 10.6597 20.1111C10.6079 20.2056 10.5364 20.2878 10.45 20.3522L7.45 22.6022C7.32018 22.6995 7.16228 22.7522 7 22.7522ZM4.75 19.3772L7 21.0647L8.86 19.6697L7.9675 18.7847C7.8972 18.715 7.84141 18.632 7.80333 18.5406C7.76525 18.4492 7.74565 18.3512 7.74565 18.2522C7.74565 18.1532 7.76525 18.0551 7.80333 17.9637C7.84141 17.8723 7.8972 17.7894 7.9675 17.7197L8.9425 16.7522L7.9675 15.7847C7.8972 15.715 7.84141 15.632 7.80333 15.5406C7.76525 15.4492 7.74565 15.3512 7.74565 15.2522C7.74565 15.1532 7.76525 15.0551 7.80333 14.9637C7.84141 14.8723 7.8972 14.7894 7.9675 14.7197L9.25 13.4447V12.1922C9.25079 12.0613 9.28582 11.9329 9.35161 11.8197C9.41739 11.7066 9.51165 11.6126 9.625 11.5472C10.6259 10.9693 11.4081 10.0774 11.8504 9.00963C12.2926 7.9419 12.3702 6.75807 12.0711 5.64174C11.772 4.52541 11.1129 3.53898 10.196 2.83544C9.27911 2.13189 8.1557 1.75054 7 1.75054C5.8443 1.75054 4.72089 2.13189 3.804 2.83544C2.88712 3.53898 2.22801 4.52541 1.92889 5.64174C1.62977 6.75807 1.70736 7.9419 2.14963 9.00963C2.5919 10.0774 3.37413 10.9693 4.375 11.5472C4.48835 11.6126 4.58261 11.7066 4.64839 11.8197C4.71418 11.9329 4.74921 12.0613 4.75 12.1922V19.3772Z" fill="#BF0606"/>
<path d="M7 6.25C7.41421 6.25 7.75 5.91421 7.75 5.5C7.75 5.08579 7.41421 4.75 7 4.75C6.58579 4.75 6.25 5.08579 6.25 5.5C6.25 5.91421 6.58579 6.25 7 6.25Z" fill="#BF0606"/>
<path d="M7 7C6.70333 7 6.41332 6.91203 6.16665 6.74721C5.91997 6.58238 5.72771 6.34811 5.61418 6.07403C5.50065 5.79994 5.47094 5.49834 5.52882 5.20737C5.5867 4.91639 5.72956 4.64912 5.93934 4.43934C6.14912 4.22956 6.41639 4.0867 6.70737 4.02882C6.99834 3.97094 7.29994 4.00065 7.57403 4.11418C7.84812 4.22771 8.08238 4.41997 8.24721 4.66665C8.41203 4.91332 8.5 5.20333 8.5 5.5C8.5 5.89783 8.34197 6.27936 8.06066 6.56066C7.77936 6.84197 7.39783 7 7 7Z" fill="#BF0606"/>
</svg>
