<svg width="21" height="20" viewBox="0 0 21 20" fill="none" xmlns="http://www.w3.org/2000/svg">
<path fill-rule="evenodd" clip-rule="evenodd" d="M19.6449 14.1339C20.4733 12.699 19.9817 10.8642 18.5468 10.0358L18.4847 9.99994L18.5467 9.9641C19.9816 9.13568 20.4732 7.30091 19.6448 5.86603L18.6448 4.13398C17.8164 2.6991 15.9816 2.20747 14.5467 3.0359L14.4846 3.0718V3C14.4846 1.34315 13.1414 2.94419e-07 11.4846 2.90038e-07L9.48456 0C7.8277 2.02095e-07 6.48456 1.34315 6.48455 3L6.48456 3.07168L6.42243 3.03582C4.98756 2.20739 3.15278 2.69902 2.32436 4.13389L1.32436 5.86594C0.495931 7.30082 0.987555 9.13559 2.42243 9.96402L2.48465 9.99994L2.42238 10.0359C0.987499 10.8643 0.495873 12.6991 1.3243 14.134L2.3243 15.866C3.15273 17.3009 4.9875 17.7925 6.42238 16.9641L6.48455 16.9282V17C6.48455 18.6569 7.8277 20 9.48455 20H11.4846C13.1414 20 14.4846 18.6569 14.4846 17V16.9281L14.5468 16.964C15.9817 17.7925 17.8164 17.3008 18.6449 15.8659L19.6449 14.1339ZM15.4846 4.80384C14.1512 5.57365 12.4845 4.6114 12.4846 3.07179V3C12.4846 2.44772 12.0368 2 11.4846 2L9.48455 2C8.93229 2 8.48459 2.44768 8.48456 2.99994L8.48455 3.07169C8.48455 4.61124 6.81798 5.57349 5.48465 4.80378L5.42243 4.76787C4.94414 4.49173 4.33255 4.6556 4.05641 5.13389L3.05641 6.86595C2.78026 7.34424 2.94414 7.95583 3.42243 8.23197L3.48456 8.26784C4.81798 9.03759 4.81803 10.9622 3.48465 11.732L3.42238 11.7679C2.94408 12.0441 2.78021 12.6557 3.05635 13.134L4.05635 14.866C4.33249 15.3443 4.94408 15.5082 5.42238 15.2321L5.48456 15.1961C6.81789 14.4264 8.48455 15.3886 8.48455 16.9282V17C8.48455 17.5523 8.93227 18 9.48455 18H11.4846C12.0368 18 12.4846 17.5523 12.4846 17V16.9281C12.4845 15.3884 14.1513 14.4262 15.4846 15.1961L15.5468 15.232C16.0251 15.5081 16.6367 15.3442 16.9128 14.8659L17.9128 13.1339C18.189 12.6556 18.0251 12.044 17.5468 11.7679L17.4846 11.732C16.1513 10.9621 16.1514 9.03768 17.4847 8.2679L17.5468 8.23205C18.025 7.9559 18.1889 7.34431 17.9128 6.86603L16.9128 5.13398C16.6366 4.65568 16.025 4.49181 15.5467 4.76795L15.4846 4.80384Z" fill="currentColor"/>
<path fill-rule="evenodd" clip-rule="evenodd" d="M10.4844 11.9999C11.5889 11.9999 12.4844 11.1045 12.4844 9.99994C12.4844 8.89537 11.5889 7.99994 10.4844 7.99994C9.37981 7.99994 8.48438 8.89537 8.48438 9.99994C8.48438 11.1045 9.37981 11.9999 10.4844 11.9999ZM10.4844 13.9999C12.6935 13.9999 14.4844 12.2091 14.4844 9.99994C14.4844 7.7908 12.6935 5.99994 10.4844 5.99994C8.27524 5.99994 6.48438 7.7908 6.48438 9.99994C6.48438 12.2091 8.27524 13.9999 10.4844 13.9999Z" fill="currentColor"/>
</svg>
