<svg width="24" height="25" viewBox="0 0 24 25" fill="currentColor"
    xmlns="http://www.w3.org/2000/svg">
    <path
        d="M15.6015 0.5C13.6273 0.5 12.0059 2.1238 12.0059 4.09801C12.0059 6.07221 13.6273 7.70304 15.6015 7.70304C17.5757 7.70304 19.1972 6.07221 19.1972 4.09801C19.1972 2.1238 17.5757 0.5 15.6015 0.5ZM15.6015 2.90258C16.2785 2.90258 16.797 3.42099 16.797 4.09801C16.797 4.77503 16.2785 5.30281 15.6015 5.30281C14.9245 5.30281 14.4061 4.77503 14.4061 4.09801C14.4061 3.42099 14.9245 2.90258 15.6015 2.90258ZM8.39848 7.70304C6.42427 7.70304 4.80281 9.3245 4.80281 11.2987C4.80281 12.8525 5.81243 14.1826 7.20305 14.6834V14.6998C7.20169 15.5033 7.22346 15.84 7.40224 16.1015C4.80042 16.1015 3.08731 16.229 1.68294 17.2454C0.157198 18.8124 0 19.7 0 22.0998C0.276072 23.8213 1.2 24.5 2.80106 24.5H13.9982C15.6 24.5 16.5573 23.6804 16.797 22.0998C16.8 19.7 16.3705 18.2648 15.1843 17.2969H21.2013C22.8 17.2999 23.5747 16.2148 24 14.9061C24 12.5 23.5502 10.9999 22.3264 10.0423C21.2191 9.21185 19.7519 8.89847 18.0018 8.89847H13.2013C12.4825 8.89847 11.8315 8.96509 11.23 9.08599C10.5668 8.24638 9.54026 7.70304 8.39848 7.70304ZM8.39848 10.1033C9.0755 10.1033 9.60094 10.624 9.60094 11.301C9.60094 11.9781 9.0755 12.5059 8.39848 12.5059C7.72146 12.5059 7.20305 11.9757 7.20305 11.2987C7.20305 10.6217 7.72146 10.1033 8.39848 10.1033ZM13.2013 11.2987H18.0018C19.4519 11.2987 20.3897 11.5948 20.8825 11.9644C21.3754 12.334 21.5998 12.7679 21.5998 13.7013V14.7983C21.5394 14.8394 21.394 14.9061 21.2013 14.9061H10.0018C9.60014 14.902 9.60032 14.9014 9.60327 14.6904V14.6811C10.9426 14.1961 11.9325 12.9453 12.0012 11.4651C12.0012 11.4636 12.0011 11.462 12.0012 11.4605C12.3549 11.3819 12.7015 11.2987 13.2013 11.2987ZM13.6795 19.1581C14.1723 19.5277 14.4061 19.9709 14.4061 20.9043V21.9919C14.3494 22.0326 14.1959 22.0998 13.9982 22.0998H2.80104C2.60846 22.0998 2.4627 22.0422 2.40256 22.0013V20.9043C2.40255 19.9709 2.62697 19.5277 3.11981 19.1581C5.96492 18.0817 10.788 18.0619 13.6795 19.1581Z"
        fill="currentColor" />
</svg>