<svg width="22" height="19" viewBox="0 0 22 19" fill="none" xmlns="http://www.w3.org/2000/svg">
<path d="M1.59751 6.76894C2.15144 7.42552 2.89716 7.82443 3.69382 7.87873V15.9708C3.68687 16.3268 3.73987 16.6815 3.85035 17.0145C3.9611 17.3482 4.12784 17.6548 4.3425 17.9154L4.53546 17.7565L4.3425 17.9154C4.55722 18.1761 4.81611 18.386 5.10537 18.5304C5.39483 18.6748 5.70777 18.7501 6.02532 18.75C6.02535 18.75 6.02538 18.75 6.02541 18.75H15.7683C16.3983 18.75 16.992 18.453 17.4223 17.9429C17.8516 17.4341 18.0872 16.7519 18.0872 16.0476V7.85304C18.4549 7.83638 18.8171 7.74596 19.1578 7.58614C19.5538 7.40042 19.9119 7.12525 20.2129 6.77889C20.5138 6.43261 20.7522 6.02148 20.9161 5.57003C21.08 5.11857 21.1667 4.63435 21.1719 4.1449V4.14225V3.99367C21.1719 3.99365 21.1719 3.99363 21.1719 3.99362C21.172 3.5008 21.0891 3.01216 20.9274 2.55604C20.7656 2.09992 20.5278 1.68413 20.2262 1.33398C19.9244 0.983759 19.5643 0.70571 19.1656 0.51869C18.7676 0.332033 18.3404 0.240427 17.9094 0.250791H3.86858C3.00572 0.250791 2.18879 0.657424 1.59386 1.36261C1.00001 2.06652 0.671875 3.0134 0.671875 3.99362L0.671873 4.14225L0.671877 4.14314C0.675368 5.12188 1.00459 6.06613 1.59751 6.76894ZM15.7794 17.299L15.7794 17.2988H15.7683H6.02678C5.75597 17.2954 5.48662 17.1665 5.28017 16.9218C5.07255 16.6757 4.94923 16.3353 4.94617 15.9723V4.94218H16.9101V15.9723C16.9087 16.1568 16.8761 16.3382 16.8149 16.5056C16.7537 16.6732 16.6656 16.822 16.5577 16.9442C16.4499 17.0662 16.325 17.1586 16.1917 17.2185L16.2942 17.4465L16.1917 17.2185C16.0587 17.2783 15.9186 17.3052 15.7794 17.299ZM3.16639 4.94218H3.69382V6.51215C3.50335 6.48992 3.31555 6.43378 3.13659 6.34451C2.90236 6.22765 2.68684 6.05575 2.50372 5.8362C2.32054 5.61659 2.17389 5.35419 2.07382 5.06316C1.97376 4.77214 1.9227 4.45952 1.92422 4.14345L1.92423 4.14345V4.14225V3.99362C1.92423 3.35764 2.13774 2.75452 2.50802 2.31561C2.87723 1.87797 3.36796 1.64258 3.86858 1.64258H17.9125C18.1613 1.64258 18.4091 1.70059 18.642 1.81498C18.8752 1.92947 19.0901 2.09876 19.273 2.31561L19.4641 2.1544L19.273 2.31561C19.456 2.53253 19.603 2.79222 19.7038 3.08071C19.8046 3.3692 19.8568 3.6795 19.8568 3.99362V4.1702C19.8474 4.79986 19.6303 5.39338 19.2616 5.82546C18.9373 6.2055 18.5213 6.4318 18.0872 6.48244V4.94218H18.6272C18.8083 4.94218 18.9714 4.85656 19.0843 4.72279C19.1953 4.59125 19.2525 4.4209 19.2534 4.25004C19.2555 4.16347 19.2429 4.07662 19.2156 3.99441L18.9783 4.07323L19.2156 3.99441C19.1879 3.91105 19.1452 3.83271 19.0882 3.76517C19.0311 3.69756 18.9604 3.6416 18.879 3.60357C18.799 3.56626 18.7117 3.54765 18.6228 3.5504H3.16639C2.98527 3.5504 2.82217 3.63602 2.70931 3.76979C2.59753 3.90229 2.54021 4.07417 2.54021 4.24629H2.54012L2.5403 4.25299C2.54483 4.42186 2.60331 4.5889 2.71279 4.71867C2.82317 4.8495 2.98065 4.93537 3.15698 4.94201L3.15698 4.94218H3.16639Z" fill="currentColor" stroke="currentColor" stroke-width="0.5"/>
<path d="M12.8954 10.003L11.1877 12.0412V8.538C11.1924 8.45927 11.1774 8.38059 11.144 8.30815C11.1106 8.23572 11.0596 8.1715 10.995 8.12057C10.9305 8.06963 10.8541 8.03336 10.772 8.01461C10.6898 7.99586 10.6041 7.99515 10.5216 8.01252C10.3722 8.01252 10.2288 8.06788 10.1232 8.16643C10.0175 8.26497 9.9581 8.39863 9.9581 8.538V12.1527L7.87469 10.1622C7.82226 10.1126 7.75978 10.0732 7.69089 10.0464C7.622 10.0195 7.54806 10.0056 7.47338 10.0056C7.3987 10.0056 7.32476 10.0195 7.25587 10.0464C7.18697 10.0732 7.1245 10.1126 7.07207 10.1622C7.02154 10.2118 6.98224 10.2704 6.95653 10.3345C6.93081 10.3986 6.9192 10.4668 6.92239 10.5352C6.92558 10.6036 6.9435 10.6706 6.97508 10.7324C7.00666 10.7942 7.05126 10.8493 7.10622 10.8947L10.2655 13.8565C10.3768 13.9523 10.5239 14.0037 10.6753 13.9998C10.7549 13.9998 10.8333 13.9825 10.9045 13.9494C10.9756 13.9162 11.0375 13.868 11.0852 13.8087L13.8005 10.624C13.8464 10.5696 13.8805 10.5073 13.9006 10.4407C13.9208 10.3741 13.9267 10.3044 13.918 10.2356C13.9092 10.1669 13.8861 10.1004 13.8498 10.04C13.8135 9.97957 13.7648 9.92641 13.7065 9.88354C13.6482 9.84067 13.5814 9.80894 13.51 9.79014C13.4385 9.77134 13.3638 9.76585 13.29 9.77398C13.2163 9.78211 13.145 9.80371 13.0802 9.83753C13.0154 9.87136 12.9584 9.91675 12.9124 9.97112L12.8954 10.003Z" fill="currentColor"/>
</svg>
