<svg width="20" height="24" viewBox="0 0 20 24" fill="currentColor"
    xmlns="http://www.w3.org/2000/svg">
    <path
        d="M10.5612 10.7632H7.17182C7.04941 10.7632 6.93201 10.7146 6.84546 10.628C6.7589 10.5415 6.71028 10.4241 6.71028 10.3017C6.71028 10.1793 6.7589 10.0619 6.84546 9.97533C6.93201 9.88877 7.04941 9.84014 7.17182 9.84014H10.5612C10.8007 9.84014 11.0303 9.74503 11.1996 9.57572C11.3689 9.40642 11.464 9.17679 11.464 8.93735C11.464 8.69792 11.3689 8.46829 11.1996 8.29898C11.0303 8.12968 10.8007 8.03456 10.5612 8.03456H8.53615C8.2961 8.03499 8.05832 7.98807 7.83642 7.89651C7.61452 7.80494 7.41286 7.67051 7.24297 7.50092C7.07307 7.33133 6.93829 7.12991 6.84633 6.90817C6.75437 6.68643 6.70703 6.44874 6.70703 6.20869C6.70703 5.96864 6.75437 5.73094 6.84633 5.50921C6.93829 5.28747 7.07307 5.08604 7.24297 4.91645C7.41286 4.74686 7.61452 4.61244 7.83642 4.52087C8.05832 4.4293 8.2961 4.38239 8.53615 4.38282H11.9258C12.0482 4.38282 12.1656 4.43144 12.2522 4.518C12.3387 4.60455 12.3873 4.72195 12.3873 4.84435C12.3873 4.96676 12.3387 5.08416 12.2522 5.17071C12.1656 5.25727 12.0482 5.30589 11.9258 5.30589H8.53615C8.4174 5.30559 8.29976 5.32872 8.18997 5.37396C8.08017 5.41919 7.98038 5.48564 7.8963 5.56951C7.81223 5.65337 7.74552 5.75299 7.70001 5.86268C7.6545 5.97236 7.63107 6.08994 7.63107 6.20869C7.63107 6.32744 7.6545 6.44502 7.70001 6.5547C7.74552 6.66438 7.81223 6.76401 7.8963 6.84787C7.98038 6.93173 8.08017 6.99818 8.18997 7.04342C8.29976 7.08865 8.4174 7.11178 8.53615 7.11148H10.5612C11.0455 7.11148 11.5099 7.30385 11.8523 7.64627C12.1947 7.98868 12.3871 8.4531 12.3871 8.93735C12.3871 9.4216 12.1947 9.88602 11.8523 10.2284C11.5099 10.5709 11.0455 10.7632 10.5612 10.7632Z"
        fill="currentColor" />
    <path
        d="M9.54845 11.9573C9.48784 11.9573 9.42781 11.9454 9.37181 11.9222C9.31581 11.899 9.26492 11.865 9.22206 11.8222C9.1792 11.7793 9.1452 11.7284 9.12202 11.6724C9.09883 11.6164 9.0869 11.5564 9.08691 11.4958V3.65685C9.08691 3.53444 9.13554 3.41705 9.2221 3.33049C9.30865 3.24394 9.42604 3.19531 9.54845 3.19531C9.67086 3.19531 9.78825 3.24394 9.87481 3.33049C9.96136 3.41705 10.01 3.53444 10.01 3.65685V11.4958C10.01 11.5564 9.99808 11.6164 9.97489 11.6724C9.9517 11.7284 9.91771 11.7793 9.87484 11.8222C9.83198 11.865 9.7811 11.899 9.72509 11.9222C9.66909 11.9454 9.60907 11.9573 9.54845 11.9573Z"
        fill="currentColor" />
    <path
        d="M18.6371 24C18.5765 24 18.5165 23.988 18.4605 23.9648C18.4045 23.9416 18.3536 23.9076 18.3108 23.8648L16.8196 22.3738L15.3284 23.8648C15.2855 23.9076 15.2346 23.9416 15.1786 23.9648C15.1227 23.9881 15.0626 24 15.002 24C14.9414 24 14.8814 23.9881 14.8254 23.9648C14.7694 23.9416 14.7186 23.9076 14.6757 23.8648L13.1845 22.3738L11.6933 23.8648C11.6505 23.9076 11.5996 23.9417 11.5436 23.9649C11.4876 23.9881 11.4276 24 11.367 24C11.3064 24 11.2464 23.9881 11.1904 23.9649C11.1344 23.9417 11.0835 23.9076 11.0407 23.8648L9.54943 22.3738L8.05797 23.8648C8.01513 23.9076 7.96425 23.9416 7.90826 23.9648C7.85227 23.9881 7.79226 24 7.73165 24C7.67104 24 7.61103 23.9881 7.55504 23.9648C7.49904 23.9416 7.44817 23.9076 7.40533 23.8648L5.91413 22.3738L4.42292 23.8648C4.38007 23.9076 4.3292 23.9417 4.27321 23.9649C4.21722 23.9881 4.1572 24 4.09659 24C4.03599 24 3.97597 23.9881 3.91998 23.9649C3.86399 23.9417 3.81312 23.9076 3.77027 23.8648L2.27907 22.3738L0.787864 23.8648C0.723324 23.9293 0.641091 23.9733 0.551563 23.9911C0.462036 24.0089 0.369237 23.9998 0.284902 23.9649C0.200567 23.9299 0.128485 23.8708 0.0777723 23.7949C0.0270597 23.719 -5.47906e-06 23.6297 1.59115e-08 23.5385V0.461538C-1.59017e-05 0.400924 0.0119111 0.3409 0.0350999 0.284897C0.0582888 0.228893 0.092285 0.178007 0.135146 0.135146C0.178007 0.092285 0.228893 0.058289 0.284897 0.0351001C0.3409 0.0119113 0.400924 -1.59017e-05 0.461538 1.59112e-08H18.6371C18.6977 -1.59017e-05 18.7577 0.0119113 18.8137 0.0351001C18.8697 0.058289 18.9206 0.092285 18.9635 0.135146C19.0063 0.178007 19.0403 0.228893 19.0635 0.284897C19.0867 0.3409 19.0987 0.400924 19.0986 0.461538V23.5385C19.0986 23.6609 19.05 23.7783 18.9635 23.8648C18.8769 23.9514 18.7595 24 18.6371 24ZM5.91414 21.2596C5.97476 21.2595 6.03479 21.2714 6.09079 21.2946C6.1468 21.3179 6.19766 21.3519 6.24046 21.3948L7.73167 22.8858L9.22311 21.3948C9.26595 21.352 9.31682 21.318 9.37282 21.2948C9.42881 21.2715 9.48882 21.2596 9.54943 21.2596C9.61004 21.2596 9.67005 21.2715 9.72604 21.2948C9.78204 21.318 9.83291 21.352 9.87575 21.3948L11.367 22.8858L12.8582 21.3948C12.901 21.352 12.9519 21.318 13.0079 21.2948C13.0639 21.2715 13.1239 21.2596 13.1845 21.2596C13.2451 21.2596 13.3051 21.2715 13.3611 21.2948C13.4171 21.318 13.468 21.352 13.5108 21.3948L15.002 22.8858L16.4932 21.3948C16.5361 21.352 16.587 21.318 16.6429 21.2948C16.6989 21.2715 16.759 21.2596 16.8196 21.2596C16.8802 21.2596 16.9402 21.2715 16.9962 21.2948C17.0522 21.318 17.103 21.352 17.1459 21.3948L18.1756 22.4243V0.923071H0.923077V22.4243L1.95275 21.3948C1.9956 21.352 2.04647 21.318 2.10246 21.2948C2.15845 21.2715 2.21847 21.2596 2.27907 21.2596C2.33968 21.2596 2.3997 21.2715 2.45569 21.2948C2.51168 21.318 2.56255 21.352 2.6054 21.3948L4.0966 22.8858L5.58782 21.3948C5.63062 21.3519 5.68148 21.3179 5.73748 21.2947C5.79348 21.2714 5.85352 21.2595 5.91414 21.2596Z"
        fill="currentColor" />
    <path
        d="M14.9449 15.5207H4.15392C4.03151 15.5207 3.91412 15.4721 3.82756 15.3856C3.74101 15.299 3.69238 15.1816 3.69238 15.0592C3.69238 14.9368 3.74101 14.8194 3.82756 14.7328C3.91412 14.6463 4.03151 14.5977 4.15392 14.5977H14.9449C15.0673 14.5977 15.1847 14.6463 15.2712 14.7328C15.3578 14.8194 15.4064 14.9368 15.4064 15.0592C15.4064 15.1816 15.3578 15.299 15.2712 15.3856C15.1847 15.4721 15.0673 15.5207 14.9449 15.5207Z"
        fill="currentColor" />
    <path
        d="M14.9449 18.5403H4.15392C4.03151 18.5403 3.91412 18.4916 3.82756 18.4051C3.74101 18.3185 3.69238 18.2011 3.69238 18.0787C3.69238 17.9563 3.74101 17.8389 3.82756 17.7524C3.91412 17.6658 4.03151 17.6172 4.15392 17.6172H14.9449C15.0673 17.6172 15.1847 17.6658 15.2712 17.7524C15.3578 17.8389 15.4064 17.9563 15.4064 18.0787C15.4064 18.2011 15.3578 18.3185 15.2712 18.4051C15.1847 18.4916 15.0673 18.5403 14.9449 18.5403Z"
        fill="currentColor" />
</svg>