<svg width="18" height="18" viewBox="0 0 18 18" fill="none" xmlns="http://www.w3.org/2000/svg">
    <path d="M13.5 14.0625V15.75" stroke="currentColor" stroke-width="1.5" stroke-linecap="round"
        stroke-linejoin="round" />
    <path d="M4.5 14.0625V15.75" stroke="currentColor" stroke-width="1.5" stroke-linecap="round"
        stroke-linejoin="round" />
    <path
        d="M15.1875 3.375H2.8125C2.50184 3.375 2.25 3.62684 2.25 3.9375V13.5C2.25 13.8107 2.50184 14.0625 2.8125 14.0625H15.1875C15.4982 14.0625 15.75 13.8107 15.75 13.5V3.9375C15.75 3.62684 15.4982 3.375 15.1875 3.375Z"
        stroke="currentColor" stroke-width="1.5" stroke-linecap="round" stroke-linejoin="round" />
    <path d="M12.6562 9H15.75" stroke="currentColor" stroke-width="1.5" stroke-linecap="round"
        stroke-linejoin="round" />
    <path
        d="M10.4062 11.25C11.6489 11.25 12.6562 10.2426 12.6562 9C12.6562 7.75736 11.6489 6.75 10.4062 6.75C9.16361 6.75 8.15625 7.75736 8.15625 9C8.15625 10.2426 9.16361 11.25 10.4062 11.25Z"
        stroke="currentColor" stroke-width="1.5" stroke-linecap="round" stroke-linejoin="round" />
</svg>