<svg width="26" height="27" viewBox="0 0 26 27" fill="none" xmlns="http://www.w3.org/2000/svg">
    <path
        d="M10.5393 12.5492L1.73081 21.2814C1.49913 21.5108 1.31534 21.7833 1.18994 22.0831C1.06454 22.383 1 22.7045 1 23.0291C1 23.3537 1.06454 23.6752 1.18994 23.975C1.31534 24.2749 1.49913 24.5473 1.73081 24.7768C2.1981 25.2398 2.83178 25.5 3.49252 25.5C4.15326 25.5 4.78694 25.2398 5.25423 24.7768L14.0628 16.0421M19.4388 16.4929L24.2704 21.2826C24.7376 21.7459 25 22.3741 25 23.0291C25 23.6841 24.7376 24.3123 24.2704 24.7755C23.8032 25.2386 23.1695 25.4988 22.5087 25.4988C21.848 25.4988 21.2143 25.2386 20.747 24.7755L13.0112 17.108M6.40668 6.74054L3.76163 7.61253L1.12032 3.24644L2.88203 1.5L7.28754 4.11965L6.40668 6.74054ZM6.40668 6.74054L9.93259 10.2359"
        stroke="#BF0606" stroke-width="2" stroke-linecap="round" stroke-linejoin="round" />
    <path
        d="M10.5393 12.5498C9.48778 9.89064 9.69336 6.40147 11.8612 4.25239C14.0291 2.10331 18.0284 1.63274 20.23 2.94318L16.4424 6.6979L16.0898 10.5403L19.9658 10.192L23.7534 6.43606C25.0765 8.61972 24.6006 12.5844 22.4327 14.7322C20.2648 16.8813 16.7464 17.0851 14.064 16.0427"
        stroke="#BF0606" stroke-width="2" stroke-linecap="round" stroke-linejoin="round" />
</svg>