<svg width="18" height="19" viewBox="0 0 18 19" fill="none" xmlns="http://www.w3.org/2000/svg">
<path d="M7.65019 12.1855L4.99745 9.87766L3.95557 10.7841L7.65019 13.9984L14.3005 8.21266L13.2586 7.2998L7.65019 12.1855Z" fill="currentColor"/>
<path d="M13.5956 5.64286V3.74815H15.7446V17.1804H2.51172V3.74815H4.66076V5.64286V5.67672H4.69463H13.5617H13.5956V5.64286ZM15.7785 2.3947H13.5956V1.78571C13.5956 1.4341 13.435 1.09801 13.1511 0.851026C12.8674 0.604168 12.4834 0.466133 12.0839 0.466133H6.17248C5.77295 0.466133 5.389 0.604168 5.10525 0.851026C4.82135 1.09801 4.66076 1.4341 4.66076 1.78571V2.3947H2.47785C2.07832 2.3947 1.69437 2.53274 1.41062 2.7796C1.12673 3.02659 0.966133 3.36267 0.966133 3.71429V17.2143C0.966133 17.5659 1.12673 17.902 1.41062 18.149C1.69437 18.3958 2.07832 18.5339 2.47785 18.5339H15.7785C16.178 18.5339 16.562 18.3958 16.8457 18.149C17.1296 17.902 17.2902 17.5659 17.2902 17.2143V3.71429C17.2902 3.36267 17.1296 3.02659 16.8457 2.7796C16.562 2.53274 16.178 2.3947 15.7785 2.3947ZM6.20634 1.81958H12.05V4.32328H6.20634V1.81958Z" fill="currentColor" stroke="#257AFB" stroke-width="0.0677347"/>
</svg>
