<svg width="28" height="25" viewBox="0 0 28 25" fill="none" xmlns="http://www.w3.org/2000/svg">
    <path
        d="M10.004 4.49991C10.004 3.4401 10.425 2.4237 11.1744 1.67431C11.9238 0.924912 12.9402 0.503906 14 0.503906C15.0598 0.503906 16.0762 0.924912 16.8256 1.67431C17.575 2.4237 17.996 3.4401 17.996 4.49991C17.996 5.55971 17.575 6.57611 16.8256 7.3255C16.0762 8.0749 15.0598 8.49591 14 8.49591C12.9402 8.49591 11.9238 8.0749 11.1744 7.3255C10.425 6.57611 10.004 5.55971 10.004 4.49991ZM14 2.50391C13.7379 2.50391 13.4783 2.55553 13.2362 2.65584C12.994 2.75615 12.774 2.90318 12.5886 3.08852C12.4033 3.27387 12.2562 3.4939 12.1559 3.73607C12.0556 3.97824 12.004 4.23779 12.004 4.49991C12.004 4.76202 12.0556 5.02158 12.1559 5.26374C12.2562 5.50591 12.4033 5.72595 12.5886 5.91129C12.774 6.09664 12.994 6.24366 13.2362 6.34397C13.4783 6.44428 13.7379 6.49591 14 6.49591C14.5294 6.49591 15.0371 6.28561 15.4114 5.91129C15.7857 5.53697 15.996 5.02928 15.996 4.49991C15.996 3.97053 15.7857 3.46284 15.4114 3.08852C15.0371 2.7142 14.5294 2.50391 14 2.50391ZM20 5.49991C20 5.10594 20.0776 4.71583 20.2284 4.35186C20.3791 3.98788 20.6001 3.65716 20.8787 3.37859C21.1573 3.10001 21.488 2.87903 21.8519 2.72827C22.2159 2.5775 22.606 2.49991 23 2.49991C23.394 2.49991 23.7841 2.5775 24.1481 2.72827C24.512 2.87903 24.8427 3.10001 25.1213 3.37859C25.3999 3.65716 25.6209 3.98788 25.7716 4.35186C25.9224 4.71583 26 5.10594 26 5.49991C26 6.29556 25.6839 7.05862 25.1213 7.62123C24.5587 8.18384 23.7956 8.49991 23 8.49991C22.2044 8.49991 21.4413 8.18384 20.8787 7.62123C20.3161 7.05862 20 6.29556 20 5.49991ZM23 4.49991C22.7348 4.49991 22.4804 4.60526 22.2929 4.7928C22.1054 4.98034 22 5.23469 22 5.49991C22 5.76512 22.1054 6.01948 22.2929 6.20701C22.4804 6.39455 22.7348 6.49991 23 6.49991C23.2652 6.49991 23.5196 6.39455 23.7071 6.20701C23.8946 6.01948 24 5.76512 24 5.49991C24 5.23469 23.8946 4.98034 23.7071 4.7928C23.5196 4.60526 23.2652 4.49991 23 4.49991ZM5 2.49991C4.20435 2.49991 3.44129 2.81598 2.87868 3.37859C2.31607 3.9412 2 4.70426 2 5.49991C2 6.29556 2.31607 7.05862 2.87868 7.62123C3.44129 8.18384 4.20435 8.49991 5 8.49991C5.79565 8.49991 6.55871 8.18384 7.12132 7.62123C7.68393 7.05862 8 6.29556 8 5.49991C8 4.70426 7.68393 3.9412 7.12132 3.37859C6.55871 2.81598 5.79565 2.49991 5 2.49991ZM4 5.49991C4 5.23469 4.10536 4.98034 4.29289 4.7928C4.48043 4.60526 4.73478 4.49991 5 4.49991C5.26522 4.49991 5.51957 4.60526 5.70711 4.7928C5.89464 4.98034 6 5.23469 6 5.49991C6 5.76512 5.89464 6.01948 5.70711 6.20701C5.51957 6.39455 5.26522 6.49991 5 6.49991C4.73478 6.49991 4.48043 6.39455 4.29289 6.20701C4.10536 6.01948 4 5.76512 4 5.49991ZM6.536 10.4999C6.18401 11.1076 5.99909 11.7976 6 12.4999H2V17.4999C1.99984 17.9974 2.12339 18.4871 2.35953 18.9249C2.59568 19.3628 2.937 19.7351 3.35278 20.0082C3.76855 20.2814 4.24573 20.4468 4.74135 20.4897C5.23697 20.5326 5.73548 20.4516 6.192 20.2539C6.34 20.9159 6.572 21.5479 6.872 22.1379C6.11293 22.4444 5.29022 22.5598 4.47611 22.474C3.66201 22.3883 2.88142 22.1039 2.20288 21.646C1.52435 21.188 0.968639 20.5705 0.584546 19.8476C0.200452 19.1247 -0.000272096 18.3185 2.76826e-07 17.4999V12.4999C2.76826e-07 11.9695 0.210714 11.4608 0.585787 11.0857C0.960859 10.7106 1.46957 10.4999 2 10.4999H6.536ZM21.128 22.1379C21.8871 22.4444 22.7098 22.5598 23.5239 22.474C24.338 22.3883 25.1186 22.1039 25.7971 21.646C26.4756 21.188 27.0314 20.5705 27.4155 19.8476C27.7995 19.1247 28.0003 18.3185 28 17.4999V12.4999C28 11.9695 27.7893 11.4608 27.4142 11.0857C27.0391 10.7106 26.5304 10.4999 26 10.4999H21.464C21.804 11.0879 22 11.7699 22 12.4999H26V17.4999C26.0002 17.9974 25.8766 18.4871 25.6405 18.9249C25.4043 19.3628 25.063 19.7351 24.6472 20.0082C24.2314 20.2814 23.7543 20.4468 23.2586 20.4897C22.763 20.5326 22.2645 20.4516 21.808 20.2539C21.658 20.9159 21.428 21.5479 21.128 22.1379ZM10 10.4979C9.46957 10.4979 8.96086 10.7086 8.58579 11.0837C8.21071 11.4588 8 11.9675 8 12.4979V18.4999C8 20.0912 8.63214 21.6173 9.75736 22.7425C10.8826 23.8678 12.4087 24.4999 14 24.4999C15.5913 24.4999 17.1174 23.8678 18.2426 22.7425C19.3679 21.6173 20 20.0912 20 18.4999V12.4999C20 11.9695 19.7893 11.4608 19.4142 11.0857C19.0391 10.7106 18.5304 10.4999 18 10.4999H10V10.4979ZM10 12.4979H18V18.4999C18 19.5608 17.5786 20.5782 16.8284 21.3283C16.0783 22.0785 15.0609 22.4999 14 22.4999C12.9391 22.4999 11.9217 22.0785 11.1716 21.3283C10.4214 20.5782 10 19.5608 10 18.4999V12.4999V12.4979Z"
        fill="#BF0606" />
</svg>