<svg width="35" height="41" viewBox="0 0 35 41" fill="currentColor"
    xmlns="http://www.w3.org/2000/svg">
    <path
        d="M3.00098 24.4998C3.00098 27.6643 3.93935 30.7577 5.69743 33.3888C7.45551 36.02 9.95434 38.0707 12.8779 39.2817C15.8015 40.4927 19.0185 40.8095 22.1222 40.1922C25.2258 39.5748 28.0767 38.051 30.3143 35.8134C32.552 33.5758 34.0758 30.7249 34.6931 27.6212C35.3105 24.5175 34.9937 21.3005 33.7827 18.3769C32.5717 15.4534 30.5209 12.9545 27.8898 11.1965C25.2586 9.43837 22.1652 8.5 19.0008 8.5C14.7574 8.5 10.6878 10.1857 7.68721 13.1862C4.68667 16.1868 3.00098 20.2564 3.00098 24.4998ZM19.0008 12.5C21.3741 12.5 23.6942 13.2037 25.6675 14.5223C27.6409 15.8409 29.179 17.715 30.0872 19.9077C30.9954 22.1003 31.2331 24.5131 30.7701 26.8409C30.307 29.1686 29.1642 31.3068 27.486 32.985C25.8077 34.6632 23.6696 35.8061 21.3418 36.2691C19.0141 36.7321 16.6013 36.4945 14.4086 35.5862C12.2159 34.678 10.3418 33.1399 9.02327 31.1666C7.70471 29.1932 7.00093 26.8731 7.00093 24.4998C7.00093 21.3172 8.26519 18.265 10.5156 16.0146C12.766 13.7642 15.8182 12.5 19.0008 12.5Z"
        fill="currentColor" />
    <path d="M23.0009 0.5H15.001V4.49995H23.0009V0.5Z" fill="currentColor" />
    <path d="M6.58115 4.08193L0.584961 10.0781L3.41335 12.9065L9.40954 6.91033L6.58115 4.08193Z"
        fill="currentColor" />
    <path d="M21.0009 16.5H17.001V26.4999H21.0009V16.5Z" fill="currentColor" />
</svg>