<svg width="20" height="20" viewBox="0 0 20 20" fill="none" xmlns="http://www.w3.org/2000/svg">
<g clip-path="url(#clip0_1683_42697)">
<path d="M0 11.5002C0 8.94188 0.00993542 6.38351 0 3.82514C0 3.50224 0.104322 3.25882 0.332837 3.03527C1.2469 2.13612 2.15102 1.22702 3.05017 0.312966C3.26379 0.0943865 3.4923 0 3.8003 0C7.16344 0.00496771 10.5216 0 13.8847 0C14.456 0 14.7243 0.263289 14.7293 0.834575C14.7293 2.67263 14.7293 4.51068 14.7293 6.34873C14.7293 6.46299 14.7193 6.58222 14.6846 6.6915C14.5951 6.9995 14.3169 7.19324 14.0189 7.18331C13.7158 7.16841 13.4675 6.95479 13.4029 6.63189C13.383 6.52757 13.383 6.41828 13.383 6.30899C13.383 4.769 13.383 3.22901 13.383 1.68902C13.383 1.35618 13.383 1.35122 13.0551 1.35122C10.0894 1.35122 7.12866 1.35122 4.16294 1.35122C3.97417 1.35122 3.83507 1.40089 3.70094 1.53999C2.99553 2.26031 2.28018 2.97566 1.55986 3.68107C1.4158 3.82017 1.36612 3.9692 1.36612 4.16294C1.36612 8.88227 1.36612 13.6016 1.36612 18.3209C1.36612 18.6289 1.38102 18.6438 1.68902 18.6438C3.78539 18.6438 5.8768 18.6438 7.97317 18.6438C8.1222 18.6438 8.27124 18.6438 8.42027 18.6587C8.84252 18.7084 9.10581 19.0015 9.08097 19.384C9.0611 19.7466 8.76801 20 8.34575 20C6.68157 20 5.01739 20 3.3532 20C2.49876 20 1.64928 20 0.794834 20C0.263289 20 0.0149031 19.7566 0.0149031 19.225C0.0149031 16.6518 0.0149031 14.0735 0.0149031 11.5002H0Z" fill="currentColor"/>
<path d="M14.1026 8.19727C17.3317 8.19727 19.9596 10.8649 19.9546 14.1287C19.9546 17.3776 17.3217 20.0006 14.0778 20.0006C10.8339 20.0006 8.20598 17.3379 8.21094 14.0542C8.21094 10.8252 10.8637 8.1923 14.1076 8.19727H14.1026ZM18.6034 14.1287C18.6779 11.7194 16.6163 9.58326 14.1275 9.56836C11.6089 9.55346 9.57706 11.6002 9.55719 14.1188C9.53732 16.6424 11.6883 18.6543 14.0778 18.6642C16.512 18.6742 18.6878 16.5232 18.6034 14.1287Z" fill="currentColor"/>
<path d="M7.81324 4.7438C6.54151 4.7438 5.26481 4.7438 3.99308 4.7438C3.81424 4.7438 3.6503 4.71896 3.4963 4.6196C3.25785 4.4656 3.1585 4.24206 3.19327 3.96386C3.22805 3.71051 3.42676 3.4969 3.68011 3.43232C3.80927 3.39755 3.9434 3.39258 4.07256 3.39258C6.57132 3.39258 9.06511 3.39258 11.5639 3.39258C11.693 3.39258 11.8272 3.40251 11.9563 3.43232C12.2395 3.4969 12.4332 3.73038 12.4481 4.00857C12.468 4.33644 12.309 4.58483 12.0209 4.68915C11.8768 4.7438 11.7278 4.73883 11.5788 4.73883C10.3219 4.73883 9.06511 4.73883 7.80828 4.73883L7.81324 4.7438Z" fill="currentColor"/>
<path d="M6.60179 6.36328C7.7841 6.36328 8.96642 6.36328 10.1537 6.36328C10.3872 6.36328 10.5958 6.40799 10.7598 6.5918C11.1075 6.97928 10.9287 7.56547 10.422 7.67972C10.3027 7.70953 10.1785 7.7145 10.0543 7.7145C7.7543 7.7145 5.45425 7.7145 3.1542 7.7145C3.06478 7.7145 2.97039 7.7145 2.88098 7.69959C2.49349 7.63998 2.23021 7.34192 2.25008 6.99418C2.26995 6.64147 2.56304 6.37322 2.95549 6.36825C3.4771 6.35831 3.99871 6.36825 4.52032 6.36825C5.2158 6.36825 5.91128 6.36825 6.60676 6.36825L6.60179 6.36328Z" fill="currentColor"/>
<path d="M5.21497 10.6662C4.47975 10.6662 3.74453 10.6662 3.00434 10.6662C2.54731 10.6662 2.23435 10.388 2.23932 9.99558C2.24428 9.61307 2.55228 9.33984 2.99441 9.33984C4.48472 9.33984 5.97007 9.33984 7.46038 9.33984C7.75347 9.33984 7.97205 9.4541 8.10618 9.71739C8.23037 9.96081 8.1956 10.1993 8.03663 10.4178C7.89754 10.6116 7.69386 10.6613 7.47031 10.6613C6.71522 10.6613 5.9651 10.6613 5.21001 10.6613L5.21497 10.6662Z" fill="currentColor"/>
<path d="M4.92874 15.2667C5.57454 15.2667 6.22035 15.2667 6.86615 15.2667C7.16421 15.2667 7.39273 15.3958 7.52685 15.6691C7.64608 15.9125 7.5964 16.136 7.44737 16.3447C7.30331 16.5484 7.08473 16.608 6.85621 16.608C5.56461 16.6129 4.273 16.6179 2.9814 16.608C2.53927 16.608 2.24121 16.3149 2.24121 15.9324C2.24121 15.5548 2.57405 15.2617 3.01121 15.2617C3.64707 15.2617 4.28791 15.2617 4.92377 15.2617L4.92874 15.2667Z" fill="currentColor"/>
<path d="M4.90739 13.6413C4.27649 13.6413 3.65055 13.6413 3.01966 13.6413C2.80604 13.6413 2.60734 13.6016 2.44837 13.4426C2.07579 13.0651 2.23972 12.469 2.76133 12.3249C2.85572 12.3001 2.95507 12.2852 3.05443 12.2852C4.30132 12.2852 5.55319 12.2852 6.80008 12.2852C7.0435 12.2852 7.26208 12.3497 7.42105 12.5385C7.58995 12.7372 7.63466 12.9657 7.53034 13.2091C7.40614 13.5072 7.16769 13.6314 6.8597 13.6314C6.20396 13.6364 5.55319 13.6314 4.89745 13.6314L4.90739 13.6413Z" fill="currentColor"/>
<path d="M13.4181 12.6073C13.4181 12.1354 13.4181 11.6635 13.4181 11.1915C13.4181 10.7494 13.6863 10.4414 14.0688 10.4414C14.4513 10.4414 14.7593 10.7593 14.7643 11.1965C14.7742 11.8423 14.7742 12.4881 14.7643 13.1339C14.7643 13.3575 14.8388 13.4518 15.0673 13.4369C15.2958 13.422 15.5293 13.427 15.7628 13.4369C16.2049 13.4518 16.5278 13.7449 16.5229 14.1225C16.5229 14.5199 16.2149 14.7832 15.7529 14.7882C15.2313 14.7882 14.7097 14.7882 14.188 14.7882C13.6714 14.7882 13.4181 14.5249 13.4131 14.0033C13.4131 13.5413 13.4131 13.0743 13.4131 12.6123L13.4181 12.6073Z" fill="currentColor"/>
</g>
<defs>
<clipPath id="clip0_1683_42697">
<rect width="19.9503" height="20" fill="white"/>
</clipPath>
</defs>
</svg>
