<svg width="16" height="19" viewBox="0 0 16 19" fill="none" xmlns="http://www.w3.org/2000/svg">
<path d="M1.0874 11.2999C1.0874 12.7239 1.50965 14.116 2.30076 15.3001C3.09187 16.4842 4.2163 17.407 5.53186 17.952C6.84742 18.497 8.29503 18.6396 9.69162 18.3617C11.0882 18.0839 12.3711 17.3982 13.378 16.3912C14.3848 15.3842 15.0705 14.1013 15.3483 12.7046C15.6261 11.3078 15.4836 9.86011 14.9386 8.54444C14.3937 7.22877 13.4709 6.10424 12.2869 5.31307C11.103 4.5219 9.71099 4.09961 8.28704 4.09961C6.37758 4.09961 4.54632 4.8582 3.19613 6.20851C1.84593 7.55882 1.0874 9.39023 1.0874 11.2999ZM8.28704 5.89967C9.355 5.89967 10.399 6.21639 11.287 6.80977C12.1749 7.40315 12.867 8.24654 13.2757 9.23329C13.6844 10.22 13.7914 11.3058 13.583 12.3534C13.3747 13.4009 12.8604 14.3631 12.1052 15.1184C11.3501 15.8736 10.3879 16.3879 9.34047 16.5963C8.29303 16.8046 7.20732 16.6977 6.22065 16.289C5.23398 15.8802 4.39066 15.1881 3.79733 14.3C3.204 13.412 2.88731 12.3679 2.88731 11.2999C2.88731 9.86764 3.45621 8.49408 4.46886 7.48135C5.4815 6.46862 6.85494 5.89967 8.28704 5.89967Z" fill="currentColor"/>
<path d="M10.0866 0.5H6.48682V2.30006H10.0866V0.5Z" fill="currentColor"/>
<path d="M2.69818 2.11311L0 4.81152L1.27273 6.08436L3.97091 3.38595L2.69818 2.11311Z" fill="currentColor"/>
<path d="M9.18663 7.69922H7.38672V12.1994H9.18663V7.69922Z" fill="currentColor"/>
</svg>
