<svg width="32" height="32" viewBox="0 0 32 32" fill="none" xmlns="http://www.w3.org/2000/svg">
<rect width="32" height="32" rx="8" fill="#1C1D22" fill-opacity="0.04"/>
<path d="M27.0741 9.13023C26.2592 9.49231 25.3842 9.73669 24.4641 9.84538C25.4022 9.28323 26.1229 8.39292 26.4628 7.33231C25.5842 7.85223 24.6122 8.23162 23.5772 8.43446C22.7479 7.55177 21.5668 7 20.259 7C17.7494 7 15.7161 9.034 15.7161 11.5436C15.7161 11.8995 15.7556 12.247 15.8331 12.5793C12.0566 12.3896 8.70855 10.5806 6.46686 7.83146C6.0764 8.503 5.85209 9.28323 5.85209 10.1161C5.85209 11.6932 6.65447 13.0833 7.87294 13.8988C7.1287 13.8746 6.42809 13.6711 5.8154 13.3305C5.8147 13.3492 5.8147 13.3692 5.8147 13.3872C5.8147 15.5895 7.3807 17.4262 9.4597 17.8436C9.07894 17.9468 8.6774 18.0028 8.2627 18.0028C7.96917 18.0028 7.68532 17.9745 7.4084 17.9218C7.98578 19.726 9.66463 21.04 11.6522 21.0774C10.098 22.2958 8.13878 23.0235 6.00994 23.0235C5.64301 23.0235 5.28094 23.002 4.92578 22.9598C6.93624 24.2475 9.3247 25 11.8911 25C20.2486 25 24.8199 18.0762 24.8199 12.0712C24.8199 11.8745 24.8144 11.6779 24.8061 11.4827C25.6943 10.8423 26.4642 10.0427 27.0741 9.13023Z" fill="#55ACEE"/>
</svg>
