<svg width="30" height="25" viewBox="0 0 30 25" fill="none" xmlns="http://www.w3.org/2000/svg">
    <mask id="path-1-inside-1_1060_1351" fill="currentColor">
        <path
            d="M21.1364 14.2143C19.5 14.2143 16.95 14.7971 15 15.9286C13.05 14.78 10.5 14.2143 8.86364 14.2143C5.90455 14.2143 0 16.0657 0 19.7857V24.5H30V19.7857C30 16.0657 24.0955 14.2143 21.1364 14.2143ZM15.6818 21.9286H2.04545V19.7857C2.04545 18.86 5.53636 16.7857 8.86364 16.7857C12.1909 16.7857 15.6818 18.86 15.6818 19.7857V21.9286ZM27.9545 21.9286H17.7273V19.7857C17.7273 18.9971 17.4545 18.3114 17.0182 17.6943C18.2182 17.18 19.6909 16.7857 21.1364 16.7857C24.4636 16.7857 27.9545 18.86 27.9545 19.7857V21.9286ZM8.86364 12.5C11.4955 12.5 13.6364 9.80857 13.6364 6.5C13.6364 3.19143 11.4955 0.5 8.86364 0.5C6.23182 0.5 4.09091 3.19143 4.09091 6.5C4.09091 9.80857 6.23182 12.5 8.86364 12.5ZM8.86364 3.07143C10.3636 3.07143 11.5909 4.61429 11.5909 6.5C11.5909 8.38571 10.3636 9.92857 8.86364 9.92857C7.36364 9.92857 6.13636 8.38571 6.13636 6.5C6.13636 4.61429 7.36364 3.07143 8.86364 3.07143ZM21.1364 12.5C23.7682 12.5 25.9091 9.80857 25.9091 6.5C25.9091 3.19143 23.7682 0.5 21.1364 0.5C18.5045 0.5 16.3636 3.19143 16.3636 6.5C16.3636 9.80857 18.5045 12.5 21.1364 12.5ZM21.1364 3.07143C22.6364 3.07143 23.8636 4.61429 23.8636 6.5C23.8636 8.38571 22.6364 9.92857 21.1364 9.92857C19.6364 9.92857 18.4091 8.38571 18.4091 6.5C18.4091 4.61429 19.6364 3.07143 21.1364 3.07143Z" />
    </mask>
    <path
        d="M21.1364 14.2143C19.5 14.2143 16.95 14.7971 15 15.9286C13.05 14.78 10.5 14.2143 8.86364 14.2143C5.90455 14.2143 0 16.0657 0 19.7857V24.5H30V19.7857C30 16.0657 24.0955 14.2143 21.1364 14.2143ZM15.6818 21.9286H2.04545V19.7857C2.04545 18.86 5.53636 16.7857 8.86364 16.7857C12.1909 16.7857 15.6818 18.86 15.6818 19.7857V21.9286ZM27.9545 21.9286H17.7273V19.7857C17.7273 18.9971 17.4545 18.3114 17.0182 17.6943C18.2182 17.18 19.6909 16.7857 21.1364 16.7857C24.4636 16.7857 27.9545 18.86 27.9545 19.7857V21.9286ZM8.86364 12.5C11.4955 12.5 13.6364 9.80857 13.6364 6.5C13.6364 3.19143 11.4955 0.5 8.86364 0.5C6.23182 0.5 4.09091 3.19143 4.09091 6.5C4.09091 9.80857 6.23182 12.5 8.86364 12.5ZM8.86364 3.07143C10.3636 3.07143 11.5909 4.61429 11.5909 6.5C11.5909 8.38571 10.3636 9.92857 8.86364 9.92857C7.36364 9.92857 6.13636 8.38571 6.13636 6.5C6.13636 4.61429 7.36364 3.07143 8.86364 3.07143ZM21.1364 12.5C23.7682 12.5 25.9091 9.80857 25.9091 6.5C25.9091 3.19143 23.7682 0.5 21.1364 0.5C18.5045 0.5 16.3636 3.19143 16.3636 6.5C16.3636 9.80857 18.5045 12.5 21.1364 12.5ZM21.1364 3.07143C22.6364 3.07143 23.8636 4.61429 23.8636 6.5C23.8636 8.38571 22.6364 9.92857 21.1364 9.92857C19.6364 9.92857 18.4091 8.38571 18.4091 6.5C18.4091 4.61429 19.6364 3.07143 21.1364 3.07143Z"
        fill="currentColor" />
    <path
        d="M15 15.9286L-238.758 446.75L13.1027 595.098L265.93 448.403L15 15.9286ZM0 24.5H-500V524.5H0V24.5ZM30 24.5V524.5H530V24.5H30ZM15.6818 21.9286V521.929H515.682V21.9286H15.6818ZM2.04545 21.9286H-497.955V521.929H2.04545V21.9286ZM27.9545 21.9286V521.929H527.955V21.9286H27.9545ZM17.7273 21.9286H-482.273V521.929H17.7273V21.9286ZM17.0182 17.6943L-179.941 -441.878L-748.119 -198.374L-391.237 306.36L17.0182 17.6943ZM21.1364 -485.786C-65.6133 -485.786 -155.18 -463.399 -235.93 -416.546L265.93 448.403C220.345 474.852 178.113 489.542 146.018 498.03C115.323 506.147 72.6593 514.214 21.1364 514.214V-485.786ZM268.758 -414.892C184.377 -464.594 93.0939 -485.786 8.86364 -485.786V514.214C-41.3212 514.214 -83.4924 506.562 -115.126 498.259C-147.838 489.672 -191.57 474.544 -238.758 446.75L268.758 -414.892ZM8.86364 -485.786C-71.7347 -485.786 -150.732 -466.569 -221.222 -431.139C-267.472 -407.892 -500 -278.644 -500 19.7857H500C500 314.495 270.424 440.958 227.867 462.349C161.069 495.923 86.5028 514.214 8.86364 514.214V-485.786ZM-500 19.7857V24.5H500V19.7857H-500ZM0 524.5H30V-475.5H0V524.5ZM530 24.5V19.7857H-470V24.5H530ZM530 19.7857C530 -278.644 297.472 -407.892 251.222 -431.139C180.732 -466.569 101.735 -485.786 21.1364 -485.786V514.214C-56.5028 514.214 -131.069 495.923 -197.867 462.349C-240.424 440.958 -470 314.495 -470 19.7857H530ZM15.6818 -478.071H2.04545V521.929H15.6818V-478.071ZM502.045 21.9286V19.7857H-497.955V21.9286H502.045ZM502.045 19.7857C502.045 168.135 437.206 269.938 411.508 306.565C379.706 351.891 347.04 382.29 327.785 398.772C288.002 432.826 250.472 454.01 225.015 466.54C175.999 490.667 101.922 516.786 8.86364 516.786V-483.214C-87.5219 -483.214 -165.009 -456.058 -216.602 -430.663C-243.347 -417.499 -281.957 -395.622 -322.5 -360.919C-342.133 -344.113 -375.099 -313.399 -407.104 -267.783C-433.006 -230.865 -497.955 -128.795 -497.955 19.7857H502.045ZM8.86364 516.786C-84.1946 516.786 -158.272 490.667 -207.288 466.54C-232.745 454.01 -270.274 432.826 -310.058 398.772C-329.312 382.29 -361.979 351.891 -393.78 306.565C-419.478 269.938 -484.318 168.135 -484.318 19.7857H515.682C515.682 -128.795 450.733 -230.865 424.831 -267.783C392.826 -313.399 359.86 -344.113 340.227 -360.919C299.685 -395.622 261.074 -417.499 234.329 -430.663C182.736 -456.058 105.249 -483.214 8.86364 -483.214V516.786ZM-484.318 19.7857V21.9286H515.682V19.7857H-484.318ZM27.9545 -478.071H17.7273V521.929H27.9545V-478.071ZM517.727 21.9286V19.7857H-482.273V21.9286H517.727ZM517.727 19.7857C517.727 -105.709 471.789 -205.185 425.273 -270.971L-391.237 306.36C-436.879 241.808 -482.273 143.703 -482.273 19.7857H517.727ZM213.978 477.267C170.584 495.864 104.273 516.786 21.1364 516.786V-483.214C-64.8909 -483.214 -134.147 -461.504 -179.941 -441.878L213.978 477.267ZM21.1364 516.786C-71.9219 516.786 -145.999 490.667 -195.015 466.54C-220.472 454.01 -258.002 432.826 -297.785 398.772C-317.04 382.29 -349.706 351.891 -381.508 306.565C-407.206 269.938 -472.045 168.135 -472.045 19.7857H527.955C527.955 -128.795 463.006 -230.865 437.104 -267.783C405.099 -313.399 372.133 -344.113 352.5 -360.919C311.957 -395.622 273.347 -417.499 246.602 -430.663C195.009 -456.058 117.522 -483.214 21.1364 -483.214V516.786ZM-472.045 19.7857V21.9286H527.955V19.7857H-472.045ZM8.86364 512.5C388.297 512.5 513.636 173.173 513.636 6.5H-486.364C-486.364 -97.0673 -453.31 -207.182 -379.064 -300.521C-304.246 -394.577 -170.554 -487.5 8.86364 -487.5V512.5ZM513.636 6.5C513.636 -160.173 388.297 -499.5 8.86364 -499.5V500.5C-170.554 500.5 -304.246 407.577 -379.064 313.521C-453.31 220.182 -486.364 110.067 -486.364 6.5H513.636ZM8.86364 -499.5C-370.57 -499.5 -495.909 -160.173 -495.909 6.5H504.091C504.091 110.067 471.038 220.182 396.791 313.521C321.974 407.577 188.282 500.5 8.86364 500.5V-499.5ZM-495.909 6.5C-495.909 173.173 -370.57 512.5 8.86364 512.5V-487.5C188.282 -487.5 321.974 -394.577 396.791 -300.521C471.038 -207.182 504.091 -97.0673 504.091 6.5H-495.909ZM8.86364 503.071C-171.897 503.071 -305.896 409.142 -380.511 315.34C-454.771 221.985 -488.409 111.387 -488.409 6.5H511.591C511.591 -158.75 387.165 -496.929 8.86364 -496.929V503.071ZM-488.409 6.5C-488.409 -98.387 -454.771 -208.985 -380.511 -302.34C-305.896 -396.142 -171.897 -490.071 8.86364 -490.071V509.929C387.165 509.929 511.591 171.75 511.591 6.5H-488.409ZM8.86364 -490.071C189.624 -490.071 323.623 -396.142 398.238 -302.34C472.498 -208.985 506.136 -98.387 506.136 6.5H-493.864C-493.864 171.75 -369.438 509.929 8.86364 509.929V-490.071ZM506.136 6.5C506.136 111.387 472.498 221.985 398.238 315.34C323.623 409.142 189.624 503.071 8.86364 503.071V-496.929C-369.438 -496.929 -493.864 -158.75 -493.864 6.5H506.136ZM21.1364 512.5C400.57 512.5 525.909 173.173 525.909 6.5H-474.091C-474.091 -97.0673 -441.038 -207.182 -366.791 -300.521C-291.974 -394.577 -158.282 -487.5 21.1364 -487.5V512.5ZM525.909 6.5C525.909 -160.173 400.57 -499.5 21.1364 -499.5V500.5C-158.282 500.5 -291.974 407.577 -366.791 313.521C-441.038 220.182 -474.091 110.067 -474.091 6.5H525.909ZM21.1364 -499.5C-358.297 -499.5 -483.636 -160.173 -483.636 6.5H516.364C516.364 110.067 483.31 220.182 409.064 313.521C334.246 407.577 200.554 500.5 21.1364 500.5V-499.5ZM-483.636 6.5C-483.636 173.173 -358.297 512.5 21.1364 512.5V-487.5C200.554 -487.5 334.246 -394.577 409.064 -300.521C483.31 -207.182 516.364 -97.0673 516.364 6.5H-483.636ZM21.1364 503.071C-159.624 503.071 -293.623 409.142 -368.238 315.34C-442.498 221.985 -476.136 111.387 -476.136 6.5H523.864C523.864 -158.75 399.438 -496.929 21.1364 -496.929V503.071ZM-476.136 6.5C-476.136 -98.387 -442.498 -208.985 -368.238 -302.34C-293.623 -396.142 -159.624 -490.071 21.1364 -490.071V509.929C399.438 509.929 523.864 171.75 523.864 6.5H-476.136ZM21.1364 -490.071C201.897 -490.071 335.896 -396.142 410.511 -302.34C484.771 -208.985 518.409 -98.387 518.409 6.5H-481.591C-481.591 171.75 -357.165 509.929 21.1364 509.929V-490.071ZM518.409 6.5C518.409 111.387 484.771 221.985 410.511 315.34C335.896 409.142 201.897 503.071 21.1364 503.071V-496.929C-357.165 -496.929 -481.591 -158.75 -481.591 6.5H518.409Z"
        fill="currentColor" mask="url(#path-1-inside-1_1060_1351)" />
</svg>