<svg width="58" height="58" viewBox="0 0 58 58" fill="none" xmlns="http://www.w3.org/2000/svg">
<path d="M10.8889 57.4004H8.58242V45.3609H4.48633V43.4086H14.9754V45.3609H10.8889V57.4004ZM27.4455 57.4004H24.8328L21.3109 51.6678L17.7699 57.4004H15.3104L19.9615 50.1461L15.6262 43.4086H18.1623L21.4162 48.7105L24.651 43.4086H27.1105L22.7561 50.2131L27.4455 57.4004ZM34.183 57.4004H31.8766V45.3609H27.7805V43.4086H38.2695V45.3609H34.183V57.4004Z" fill="#885CA7"/>
<path fill-rule="evenodd" clip-rule="evenodd" d="M57.4004 15.75V49C57.4004 52.85 53.7254 56 49.2337 56H41.0671V52.5H49.2337C51.4796 52.5 53.3171 50.925 53.3171 49V15.75H45.1504C41.7612 15.75 39.0254 13.405 39.0254 10.5V3.5H16.5671C14.3212 3.5 12.4837 5.075 12.4837 7V38.5H8.40039V7C8.40039 3.15 12.0754 0 16.5671 0H39.0254L57.4004 15.75Z" fill="#885CA7"/>
</svg>
