<svg width="24" height="25" viewBox="0 0 24 25" fill="none" xmlns="http://www.w3.org/2000/svg">
<g clip-path="url(#clip0_2834_55168)">
<path d="M12 23.75C18.4125 23.75 23.625 18.5375 23.625 12.125C23.625 5.7125 18.4125 0.5 12 0.5C5.5875 0.5 0.375 5.7125 0.375 12.125C0.375 18.5375 5.5875 23.75 12 23.75ZM3 16.7562L7.725 16.7188C8.25 18.6125 9.13125 20.45 10.3312 22.1C7.125 21.575 4.44375 19.5312 3 16.7562ZM8.925 8.9375H14.8125C15.2437 11 15.2437 13.1188 14.85 15.1813L8.925 15.2188C8.49375 13.1375 8.49375 11 8.925 8.9375ZM11.8687 21.6688C10.6875 20.15 9.825 18.4813 9.3 16.7188L14.4562 16.6813C13.9125 18.4438 13.05 20.1313 11.8687 21.6688ZM13.3688 22.1562C14.6063 20.4688 15.4875 18.6125 16.0125 16.6625L21.0563 16.625C19.5938 19.5688 16.7438 21.6875 13.3688 22.1562ZM22.125 12.125C22.125 13.175 21.9562 14.1875 21.675 15.125L16.3688 15.1625C16.7438 13.1 16.725 11 16.3312 8.9375H21.6C21.9375 9.93125 22.125 11.0188 22.125 12.125ZM20.9625 7.4375H15.975C15.4312 5.5625 14.5688 3.74375 13.3688 2.09375C16.6875 2.54375 19.4813 4.5875 20.9625 7.4375ZM14.4188 7.4375H9.31875C9.8625 5.7125 10.7063 4.08125 11.8687 2.58125C13.0312 4.08125 13.875 5.7125 14.4188 7.4375ZM10.3312 2.15C9.15 3.78125 8.2875 5.5625 7.7625 7.4375H3.0375C4.48125 4.68125 7.14375 2.675 10.3312 2.15ZM7.40625 8.9375C7.0125 11.0188 7.0125 13.1375 7.3875 15.2188L2.38125 15.2562C2.04375 14.2625 1.875 13.2125 1.875 12.125C1.875 11.0188 2.0625 9.93125 2.4 8.9375H7.40625Z" fill="#5D5D5D"/>
</g>
<defs>
<clipPath id="clip0_2834_55168">
<rect width="24" height="24" fill="white" transform="translate(0 0.125)"/>
</clipPath>
</defs>
</svg>
