<svg width="18" height="19" viewBox="0 0 18 19" fill="none" xmlns="http://www.w3.org/2000/svg">
<g clip-path="url(#clip0_1462_33889)">
<path d="M16.875 8.9375V10.0625H3.375V3.875H9V2.75H2.8125C2.66332 2.75 2.52024 2.80926 2.41475 2.91475C2.30926 3.02024 2.25 3.16332 2.25 3.3125V10.0625H1.125V2.1875C1.125 2.03832 1.18426 1.89524 1.28975 1.78975C1.39524 1.68426 1.53832 1.625 1.6875 1.625H10.125V0.5H1.6875C1.23995 0.5 0.810725 0.67779 0.494257 0.994257C0.17779 1.31072 0 1.73995 0 2.1875L0 13.4375C0 13.5867 0.0592632 13.7298 0.164752 13.8352C0.270242 13.9407 0.413316 14 0.5625 14H5.54063L5.14125 16.8125H4.5C4.35082 16.8125 4.20774 16.8718 4.10225 16.9773C3.99676 17.0827 3.9375 17.2258 3.9375 17.375H2.8125V18.5H15.1875V17.375H14.0625C14.0625 17.2258 14.0032 17.0827 13.8977 16.9773C13.7923 16.8718 13.6492 16.8125 13.5 16.8125H12.8644L12.465 14H17.4375C17.5867 14 17.7298 13.9407 17.8352 13.8352C17.9407 13.7298 18 13.5867 18 13.4375V8.9375H16.875ZM6.27187 16.8125L6.67125 14H11.3231L11.7225 16.8125H6.27187ZM16.875 12.875H1.125V11.1875H16.875V12.875Z" fill="currentColor"/>
<path d="M12.1331 5.5625L11.4187 6.27688L12.2119 7.07L12.9375 6.36688C13.1134 6.4708 13.3026 6.55028 13.5 6.60313V7.8125H14.625V6.60875C14.8224 6.5559 15.0116 6.47642 15.1875 6.3725L15.9019 7.08687L16.695 6.29375L15.9919 5.5625C16.0958 5.3866 16.1753 5.19736 16.2281 5H17.4375V3.875H16.2338C16.1809 3.67764 16.1014 3.4884 15.9975 3.3125L16.7119 2.59812L15.9131 1.78812L15.1875 2.50812C15.0116 2.4042 14.8224 2.32472 14.625 2.27188V1.0625H13.5V2.26625C13.3026 2.3191 13.1134 2.39858 12.9375 2.5025L12.2119 1.78812L11.4131 2.58687L12.1331 3.3125C12.0292 3.4884 11.9497 3.67764 11.8969 3.875H10.6875V5H11.8912C11.9459 5.19765 12.0272 5.3869 12.1331 5.5625ZM14.0625 3.3125C14.285 3.3125 14.5025 3.37848 14.6875 3.5021C14.8725 3.62571 15.0167 3.80141 15.1019 4.00698C15.187 4.21255 15.2093 4.43875 15.1659 4.65698C15.1225 4.87521 15.0153 5.07566 14.858 5.233C14.7007 5.39033 14.5002 5.49748 14.282 5.54088C14.0637 5.58429 13.8375 5.56201 13.632 5.47686C13.4264 5.39172 13.2507 5.24752 13.1271 5.06252C13.0035 4.87751 12.9375 4.66 12.9375 4.4375C12.9375 4.13913 13.056 3.85298 13.267 3.642C13.478 3.43103 13.7641 3.3125 14.0625 3.3125Z" fill="currentColor"/>
</g>
<defs>
<clipPath id="clip0_1462_33889">
<rect width="18" height="18" fill="white" transform="translate(0 0.5)"/>
</clipPath>
</defs>
</svg>
